<?xml version="1.0" encoding="UTF-8" standalone="no"?>
<!DOCTYPE svg PUBLIC "-//W3C//DTD SVG 1.1//EN" "http://www.w3.org/Graphics/SVG/1.1/DTD/svg11.dtd">
<!-- Created with Vectornator (http://vectornator.io/) -->
<svg height="100%" stroke-miterlimit="10" style="fill-rule:nonzero;clip-rule:evenodd;stroke-linecap:round;stroke-linejoin:round;" version="1.1" viewBox="181.736 -192.605 690.127 1318.56" width="100%" xml:space="preserve" xmlns="http://www.w3.org/2000/svg" xmlns:xlink="http://www.w3.org/1999/xlink">
<defs/>
<g id="Layer-3">
<g opacity="1">
<path d="M577.083 272.734C577.083 272.734 682.009 228.061 743.304 239.534C769.533 244.444 787.772 259.634 800.058 275.407C816.482 296.496 822.263 318.626 822.263 318.626L764.624 378.577L708.474 348.803L764.624 414.184L577.083 272.734Z" fill="#9f7a6d" fill-rule="nonzero" opacity="0" stroke="#000000" stroke-linecap="butt" stroke-linejoin="round" stroke-width="2.31"/>
<path d="M400.32 207.472C400.587 178.544 394.769 134.427 451.381 101.127C497.975 73.7184 472.024 73.0834 533.78 73.0834C591.823 73.0834 579.016 104.168 628.624 115.569C683.328 128.14 675.2 175.94 669.755 230.733C660.313 325.743 624.154 373.294 533.78 373.294C443.406 373.294 399.296 318.169 400.32 207.472Z" fill="#f0e1dc" fill-rule="nonzero" opacity="1" stroke="#000000" stroke-linecap="butt" stroke-linejoin="round" stroke-width="2.31"/>
<path d="M541.902 137.077L636.856 132.227L676.259 175.988L660.562 400.714L628.624 165.331L504.891 175.537L339.649 324.298L333.997 239.298L285.807 206.954C285.807 206.954 475.384 119.264 494.27 108.376C513.157 97.4879 541.902 137.077 541.902 137.077Z" fill="#9f7a6d" fill-rule="nonzero" opacity="0" stroke="#000000" stroke-linecap="butt" stroke-linejoin="round" stroke-width="2.31"/>
</g>
<path d="M437.509 632.917L417.7 961.137L451.679 974.102L495.232 966.738L518.173 709.901L531.583 709.64L518.579 709.665L552.186 956.329L587.301 979.105L628.624 960.887L607.459 600.969L437.509 632.917Z" fill="#040404" fill-rule="nonzero" opacity="1" stroke="#000000" stroke-linecap="butt" stroke-linejoin="round" stroke-width="2.31"/>
<g opacity="1">
<path d="M393.025 405.195L321.643 517.45L228.254 657.298L241.654 618.714L182.891 671.795L192.459 730.868L236.057 745.11L255.501 712.51L242.079 758.289L317.162 769.378C317.162 769.378 335.324 695.73 338.207 690.685C344.784 679.176 260.958 681.986 260.958 681.986L331.806 685.327L370.112 674.451L424.8 501.379L393.025 405.195Z" fill="#616163" fill-rule="nonzero" opacity="1" stroke="#000000" stroke-linecap="butt" stroke-linejoin="round" stroke-width="2.31"/>
<path d="M660.575 410.132L731.957 522.387L825.345 662.235L811.945 623.651L870.708 676.732L861.141 735.805L817.542 750.047L798.099 717.447L811.521 763.226L736.437 774.315C736.437 774.315 718.275 700.667 715.392 695.622C708.815 684.113 792.642 686.923 792.642 686.923L721.794 690.264L683.488 679.389L628.8 506.317L660.575 410.132Z" fill="#616163" fill-rule="nonzero" opacity="1" stroke="#000000" stroke-linecap="butt" stroke-linejoin="round" stroke-width="2.31"/>
<path d="M523.737 493.981L505.332 371.576L388.914 403.551L436.085 581.285L387.821 784.81L521.934 628.432L659.432 797.546L622.076 589.143L679.112 416.704L561.19 373.705L523.737 493.981Z" fill="#616163" fill-rule="nonzero" opacity="1" stroke="#000000" stroke-linecap="butt" stroke-linejoin="round" stroke-width="2.31"/>
<path d="M507.104 383.971L548.463 389.21L528.648 467.837L507.104 383.971Z" fill="#cdcdcd" fill-rule="nonzero" opacity="1" stroke="#000000" stroke-linecap="butt" stroke-linejoin="round" stroke-width="2.31"/>
<path d="M514.235 418.096L544.765 427.731L531.926 461.996L514.291 462.649L491.994 553.716L524.347 683.042L550.029 567.732L532.603 462.754L514.967 463.407L514.235 418.096Z" fill="#b83838" fill-rule="nonzero" opacity="1" stroke="#000000" stroke-linecap="butt" stroke-linejoin="round" stroke-width="2.31"/>
<path d="M530.583 787.215" fill="#b83838" fill-rule="nonzero" opacity="1" stroke="#000000" stroke-linecap="butt" stroke-linejoin="round" stroke-width="2.31"/>
<path d="M505.675 370.758L463.599 398.121L491.131 466.073L530.378 384.648L540.141 419.586L552.638 464.315L589.543 413.938L561.737 373.182L529.758 384.252L505.675 370.758Z" fill="#cdcdcd" fill-rule="nonzero" opacity="1" stroke="#000000" stroke-linecap="butt" stroke-linejoin="round" stroke-width="2.31"/>
<path d="M716.727 84.6773" fill="#cdcdcd" fill-rule="nonzero" opacity="1" stroke="#000000" stroke-linecap="butt" stroke-linejoin="round" stroke-width="2.31"/>
<path d="M530.669 374.871L561.375 373.015L529.738 384.119L506.076 371.001L530.669 374.871Z" fill="#040404" fill-rule="nonzero" opacity="1" stroke="#000000" stroke-linecap="butt" stroke-linejoin="round" stroke-width="2.31"/>
</g>
<g opacity="1">
<path d="M439.168 171.423L342.036 88.7161L473.525 9.65778L640.616 38.3691L709.395 115.842L677.302 175.201L439.168 171.423Z" fill="#4c4c4c" fill-rule="nonzero" opacity="1" stroke="#000000" stroke-linecap="butt" stroke-linejoin="round" stroke-width="2.31"/>
<path d="M477.384 112.341L343.513 114.67L255.571 171.453L682.136 177.277L477.384 112.341Z" fill="#1d1d1d" fill-rule="nonzero" opacity="1" stroke="#000000" stroke-linecap="butt" stroke-linejoin="round" stroke-width="1"/>
<path d="M853.789-191.45" fill="#9f7a6d" fill-rule="nonzero" opacity="1" stroke="#000000" stroke-linecap="butt" stroke-linejoin="round" stroke-width="2.31"/>
<path d="M465.571 241.021C465.571 233.614 471.293 227.61 478.352 227.61C485.41 227.61 491.132 233.614 491.132 241.021C491.132 248.428 485.41 254.433 478.352 254.433C471.293 254.433 465.571 248.428 465.571 241.021Z" fill="#000000" fill-rule="nonzero" opacity="1" stroke="#000000" stroke-linecap="butt" stroke-linejoin="round" stroke-width="2.31"/>
<path d="M574.356 237.206C574.356 229.543 580.347 223.331 587.736 223.331C595.126 223.331 601.116 229.543 601.116 237.206C601.116 244.869 595.126 251.081 587.736 251.081C580.347 251.081 574.356 244.869 574.356 237.206Z" fill="#000000" fill-rule="nonzero" opacity="1" stroke="#000000" stroke-linecap="butt" stroke-linejoin="round" stroke-width="2.31"/>
<path d="M494.199 316.481L578.442 316.666" fill="#000000" fill-rule="nonzero" opacity="1" stroke="#000000" stroke-linecap="butt" stroke-linejoin="round" stroke-width="2.31"/>
</g>
<path d="M609.284-135.459" fill="#cdcdcd" fill-rule="nonzero" opacity="1" stroke="#000000" stroke-linecap="butt" stroke-linejoin="round" stroke-width="2.31"/>
<path d="M446.501 932.441L385.966 966.016L397.222 1008.95L487.054 1018.73L495.704 963.411L446.501 932.441Z" fill="#000000" fill-rule="nonzero" opacity="1" stroke="#000000" stroke-linecap="butt" stroke-linejoin="round" stroke-width="2.31"/>
<path d="M601.368 927.321L661.902 960.896L650.646 1003.83L560.814 1013.61L552.164 958.291L601.368 927.321Z" fill="#000000" fill-rule="nonzero" opacity="1" stroke="#000000" stroke-linecap="butt" stroke-linejoin="round" stroke-width="2.31"/>
<path d="M445.008 971.003" fill="#000000" fill-rule="nonzero" opacity="1" stroke="#000000" stroke-linecap="butt" stroke-linejoin="round" stroke-width="2.31"/>
<path d="M617.421 1124.8" fill="#000000" fill-rule="nonzero" opacity="1" stroke="#000000" stroke-linecap="butt" stroke-linejoin="round" stroke-width="2.31"/>
</g>
</svg>
