<?xml version="1.0" encoding="UTF-8" standalone="no"?>
<!DOCTYPE svg PUBLIC "-//W3C//DTD SVG 1.1//EN" "http://www.w3.org/Graphics/SVG/1.1/DTD/svg11.dtd">
<!-- Created with Vectornator (http://vectornator.io/) -->
<svg height="100%" stroke-miterlimit="10" style="fill-rule:nonzero;clip-rule:evenodd;stroke-linecap:round;stroke-linejoin:round;" version="1.1" viewBox="242.399 65.9696 579.178 827.664" width="100%" xml:space="preserve" xmlns="http://www.w3.org/2000/svg" xmlns:xlink="http://www.w3.org/1999/xlink">
<defs/>
<g id="Front2">
<g opacity="1">
<path d="M386.206 382.732L516.341 347.005L609.912 383.511L525.776 473.467L394.825 417.02L386.206 382.732Z" fill="#171717" fill-rule="nonzero" opacity="1" stroke="#000000" stroke-linecap="butt" stroke-linejoin="round" stroke-width="2.31"/>
<path d="M347.032 685.232L650.839 720.676L739.655 889.497L500.309 763.113L255.427 888.145L347.032 685.232Z" fill="#171717" fill-rule="nonzero" opacity="1" stroke="#000000" stroke-linecap="round" stroke-linejoin="round" stroke-width="2.31"/>
<path d="M363.299 433.066L635.301 433.066L635.301 656.505L363.299 656.505L363.299 433.066Z" fill="#324e4a" fill-rule="nonzero" opacity="1" stroke="#000000" stroke-linecap="round" stroke-linejoin="round" stroke-width="2.31"/>
<path d="M458.299 583.891L525.776 587.01L523.683 614.639L458.715 618.181L458.299 583.891Z" fill="#070707" fill-rule="nonzero" opacity="1" stroke="#000000" stroke-linecap="round" stroke-linejoin="round" stroke-width="2.31"/>
<path d="M482.673 812.653L497.717 792.675L498.405 746.928L500.445 696.602C500.447 696.555 500.415 696.514 500.369 696.503L500.369 696.503C500.227 696.471 500.232 696.267 500.375 696.243L500.89 696.153C500.978 696.138 501.059 696.205 501.061 696.294L502.252 747.657C502.252 747.658 502.252 747.659 502.252 747.66L502.42 796.922C502.42 796.968 502.442 797.011 502.478 797.039L510.505 803.117C510.506 803.119 510.508 803.12 510.51 803.121L561.216 838.153C561.275 838.193 561.354 838.186 561.404 838.135L615.943 782.539C615.984 782.497 615.996 782.436 615.974 782.382L549.214 615.252C549.192 615.196 549.138 615.16 549.079 615.16L443.564 614.74C443.5 614.74 443.443 614.781 443.423 614.842L381.056 810.411C381.031 810.489 381.075 810.572 381.153 810.596L457.579 833.68L482.673 812.653Z" fill="#262222" fill-rule="nonzero" opacity="1" stroke="#000000" stroke-linecap="round" stroke-linejoin="round" stroke-width="2.31"/>
<path d="M470.984 631.015C481.692 632.123 538.555 634.707 531.724 623.445" fill="#262222" fill-rule="nonzero" opacity="1" stroke="#000000" stroke-linecap="round" stroke-linejoin="round" stroke-width="2.31"/>
<path d="M406.853 787.788L469.319 803.82L496.22 801.042L492.11 853.289L430.528 844.994C430.528 844.994 397.91 856.011 388.189 849.962C378.469 843.914 366.372 811.295 366.372 811.295L406.853 787.788Z" fill="#262222" fill-rule="nonzero" opacity="1" stroke="#000000" stroke-linecap="round" stroke-linejoin="round" stroke-width="2.31"/>
<path d="M583.697 787.511L526.759 809.637L500.812 800.931L509.727 850.494L570.431 845.252C570.431 845.252 603.049 856.269 612.77 850.22C622.491 844.172 634.588 811.553 634.588 811.553L583.697 787.511Z" fill="#262222" fill-rule="nonzero" opacity="1" stroke="#000000" stroke-linecap="round" stroke-linejoin="round" stroke-width="2.31"/>
<g opacity="1">
<path d="M476.766 599.006C484.029 599.748 517.661 600 517.661 600L517.7 604.79L470.719 604.263C470.719 604.263 469.502 598.264 476.766 599.006Z" fill="#d2d2d2" fill-rule="nonzero" opacity="1" stroke="#000000" stroke-linecap="butt" stroke-linejoin="round" stroke-width="2.31"/>
<path d="M474.394 582.723L520.669 581.153L517.501 620.486L470.477 620.23L474.172 613.061L515.818 614.314L514.118 588.805L477.189 589.655C477.189 589.655 473.336 621.052 476.181 621.176" fill="#d2d2d2" fill-rule="nonzero" opacity="1" stroke="#000000" stroke-linecap="butt" stroke-linejoin="round" stroke-width="2.31"/>
</g>
</g>
<g opacity="1">
<path d="M381.985 863.878C385.488 838.94 403.145 825.676 436.215 825.676C469.284 825.676 476.51 837.006 484.681 858.582C487.861 866.977 488.909 885.626 483.984 887.772C473.447 892.363 390.924 895.443 383.18 887.983C379.588 884.523 380.911 871.523 381.985 863.878Z" fill="#000000" fill-rule="nonzero" opacity="1" stroke="#000000" stroke-linecap="round" stroke-linejoin="round" stroke-width="2.31"/>
<path d="M517.426 861.695C520.929 836.757 538.586 823.493 571.656 823.493C604.725 823.493 611.951 834.823 620.122 856.399C623.302 864.794 624.35 883.443 619.425 885.589C608.888 890.18 526.365 893.26 518.621 885.8C515.029 882.34 516.352 869.339 517.426 861.695Z" fill="#000000" fill-rule="nonzero" opacity="1" stroke="#000000" stroke-linecap="round" stroke-linejoin="round" stroke-width="2.31"/>
</g>
<g opacity="1">
<path d="M378.851 153.491C449.202 122.743 392.251 138.589 506.389 138.589C573.422 138.589 593.524 132.96 629.881 162.326C655.43 182.963 657.637 239.757 655.066 268.73C640.564 432.179 369.559 434.498 342.603 297.429C334.557 256.518 352.473 165.019 378.851 153.491Z" fill="#a59595" fill-rule="nonzero" opacity="1" stroke="#000000" stroke-linecap="butt" stroke-linejoin="round" stroke-width="2.31"/>
<path d="M338.916 277.106C338.916 234.464 364.457 237.092 408.575 237.092C452.692 237.092 480.615 333.262 414.562 298.427C348.51 263.593 370.108 350.225 370.108 350.225C370.108 350.225 338.916 319.749 338.916 277.106Z" fill="#5e5656" fill-rule="nonzero" opacity="1" stroke="#000000" stroke-linecap="round" stroke-linejoin="round" stroke-width="2.31"/>
<path d="M657.448 254.96C657.448 252.581 657.413 250.293 657.344 248.091C655.656 194.416 633.502 192.141 595.823 192.141C556.598 192.141 537.223 300.461 595.921 281.633C654.62 262.805 625.671 341.123 625.671 341.123C625.671 341.123 657.448 315.313 657.448 254.96Z" fill="#5e5656" fill-rule="nonzero" opacity="1" stroke="#000000" stroke-linecap="round" stroke-linejoin="round" stroke-width="2.31"/>
<path d="M460.178 392.588C458.662 390.001 454.772 374.827 454.772 374.827L480.475 396.007L478.71 385.859L488.086 396.669L483.563 376.262L488.969 384.645L490.403 379.019L503.332 395.717L502.853 383.247L509.026 394.684L507.718 383.238L515.601 394.632L511.07 374.592L518.632 393.383L517.028 371.842L532.856 380.222L532.496 374.134L542.457 389.735C542.457 389.735 541.517 391.674 512.745 395.35C483.974 399.026 461.693 395.174 460.178 392.588Z" fill="#000000" fill-rule="nonzero" opacity="1" stroke="#000000" stroke-linecap="round" stroke-linejoin="round" stroke-width="2.31"/>
<path d="M490.06 349.25L485.8 359.976C485.585 360.518 485.078 360.887 484.497 360.925L444.942 363.527L490.06 349.25Z" fill="#000000" fill-rule="nonzero" opacity="0" stroke="#000000" stroke-linecap="round" stroke-linejoin="round" stroke-width="2.31"/>
<path d="M519.056 346.933L523.696 359.497L567.02 362.407L519.056 346.933Z" fill="#000000" fill-rule="nonzero" opacity="0" stroke="#000000" stroke-linecap="round" stroke-linejoin="round" stroke-width="2.31"/>
<path d="M471.993 333.176C471.993 328.907 484.083 325.446 498.996 325.446C513.91 325.446 526 328.907 526 333.176C526 337.445 513.91 340.906 498.996 340.906C484.083 340.906 471.993 337.445 471.993 333.176Z" fill="#c8c5c5" fill-rule="nonzero" opacity="1" stroke="#c8c5c5" stroke-linecap="round" stroke-linejoin="round" stroke-width="2.31"/>
<path d="M344.81 284.322C352.88 284.379 354.141 290.587 354.141 290.587L361.843 335.251C361.843 335.251 347.825 325.786 344.978 323.666C325.009 308.798 328.41 284.206 344.81 284.322Z" fill="#a59595" fill-rule="nonzero" opacity="1" stroke="#000000" stroke-linecap="round" stroke-linejoin="round" stroke-width="2.31"/>
<path d="M653.432 272.157C644.416 272.214 643.007 278.422 643.007 278.422L635.142 325.605C635.142 325.605 650.063 313.622 653.244 311.501C675.552 296.633 671.752 272.041 653.432 272.157Z" fill="#a59595" fill-rule="nonzero" opacity="1" stroke="#000000" stroke-linecap="round" stroke-linejoin="round" stroke-width="2.31"/>
<path d="M482.596 369.127C487.012 368.696 526.839 368.091 526 367.877" fill="none" opacity="1" stroke="#000000" stroke-linecap="butt" stroke-linejoin="round" stroke-width="2.31"/>
</g>
<g opacity="1">
<path d="M335.047 266.72C334.07 279.081 343.316 295.096 352.557 306.206C372.037 329.625 407.366 347.119 429.662 345.433C438.044 344.799 461.931 333.857 461.931 333.857C461.931 333.857 495.2 309.361 495.236 309.379C500.317 311.927 528.159 329.649 528.159 329.649C528.159 329.649 542.455 336.596 560.09 338.263C599.802 342.017 666.92 283.591 653.377 224.329C653.377 224.329 512.606 269.005 496.89 272.22C481.174 275.436 387.387 267.411 387.387 267.411C387.387 267.411 335.047 266.72 335.047 266.72Z" fill="#000000" fill-rule="nonzero" opacity="1" stroke="#000000" stroke-linecap="round" stroke-linejoin="round" stroke-width="2.31"/>
<path d="M508.804 296.824C516.416 295.48 615.369 274.947 615.304 275.239C607.305 311.258 576.56 325.208 557.11 323.704C516.942 320.597 507.145 297.117 508.804 296.824Z" fill="#ffffff" fill-rule="nonzero" opacity="1" stroke="#000000" stroke-linecap="round" stroke-linejoin="round" stroke-width="2.31"/>
<path d="M536.233 292.348C540.673 331.721 590.547 338.089 587.394 281.889" fill="#3e714e" fill-rule="nonzero" opacity="1" stroke="#000000" stroke-linecap="round" stroke-linejoin="round" stroke-width="2.31"/>
<path d="M550.821 289.443C551.066 320.008 577.015 321.173 574.772 284.547" fill="#ffffff" fill-rule="nonzero" opacity="1" stroke="#000000" stroke-linecap="round" stroke-linejoin="round" stroke-width="2.31"/>
</g>
<g opacity="1">
<path d="M325.542 152.628C325.501 152.628 325.469 152.661 325.469 152.701L325.469 241.086C325.469 241.126 325.501 241.159 325.542 241.159L481.771 241.159C481.811 241.159 481.844 241.126 481.844 241.086L481.844 152.701C481.844 152.661 481.811 152.628 481.771 152.628L325.542 152.628ZM658.469 154.44L637.281 155.128C637.281 155.128 637.387 154.894 636.188 155.472C636.188 155.472 632.522 167.629 640.75 167.534C648.978 167.439 652.838 167.408 655.094 165.378C657.35 163.347 658.469 154.44 658.469 154.44Z" fill="#000000" fill-rule="nonzero" opacity="1" stroke="#000000" stroke-linecap="butt" stroke-linejoin="round" stroke-width="2.31"/>
<path d="M646.544 167.937C673.679 149.962 628.141 161.872 628.941 161.517C637.365 157.771 686.951 147.878 691.045 153.659C706.777 175.873 678.929 206.592 669.041 214.406C603.689 266.053 462.502 297.91 385.132 282.924C213.484 249.679 230.054 153.245 316.077 151.203C321.913 151.065 358.166 151.293 331.456 154.375C304.746 157.457 413.256 322.479 646.544 167.937Z" fill="#262222" fill-rule="nonzero" opacity="1" stroke="#000000" stroke-linecap="round" stroke-linejoin="round" stroke-width="2.31"/>
<path d="M524.784 121.05C518.63 112.286 525.199 108.45 535.996 103.773C546.794 99.0967 571.413 85.8552 571.413 85.8552L592.867 96.2035C592.897 96.218 592.914 96.2509 592.907 96.2835L587.463 123.853C587.46 123.869 587.452 123.883 587.44 123.893L571.821 138.02C571.809 138.031 571.793 138.037 571.777 138.039L541.647 140.405C541.647 140.405 527.721 124.554 526.025 123.669" fill="#000000" fill-rule="nonzero" opacity="1" stroke="#000000" stroke-linecap="round" stroke-linejoin="round" stroke-width="2.31"/>
<path d="M349.812 143.945C349.053 131.988 430.689 72.7436 438.902 67.6327C441.972 65.722 455.307 69.7198 458.596 71.0475C474.654 77.5307 495.271 91.0529 503.414 95.8258C521.375 106.354 572.413 134.92 566.935 127.492C560.939 119.36 568.179 103.473 565.691 98.3968C563.204 93.3209 548.555 100.43 542.459 106.49C534.873 114.032 510.368 99.9346 518.775 104.627C523.008 106.99 531.179 107.194 538.791 102.248C546.403 97.3011 548.954 77.655 588.506 78.0705C594.292 78.1313 627.629 116.559 632.074 130.187L620.898 157.968C620.893 157.981 620.885 157.992 620.873 158L586.509 182.859C586.509 182.859 535.028 198.342 531.22 199.248C527.411 200.155 441.297 204.405 441.297 204.405L394.459 197.42C394.447 197.419 394.436 197.414 394.426 197.407L361.143 172.7C361.138 172.696 361.134 172.692 361.13 172.687L346.694 155.017C346.679 154.998 346.673 154.973 346.68 154.95L349.812 143.945Z" fill="#262222" fill-rule="nonzero" opacity="1" stroke="#000000" stroke-linecap="round" stroke-linejoin="round" stroke-width="2.31"/>
<path d="M406.706 221.561C349.65 203.213 333.394 154.828 336.156 155.534C336.156 155.534 348.848 132.773 353.444 150.091C358.039 167.409 412.728 181.28 412.728 181.28" fill="#262222" fill-rule="nonzero" opacity="1" stroke="#000000" stroke-linecap="round" stroke-linejoin="round" stroke-width="2.31"/>
<path d="M632.02 129.949C598.909 168.926 515.768 194.644 413.375 180.722C408.176 183.726 404.345 189.161 402.406 193.565C395.16 210.024 403.552 218.66 408.5 222.409C414.948 227.295 424.018 231.859 467.646 231.885C545.963 231.933 645.428 176.019 649.307 160.868C651.894 150.761 632.029 129.939 632.02 129.949Z" fill="#262222" fill-rule="nonzero" opacity="1" stroke="#000000" stroke-linecap="round" stroke-linejoin="round" stroke-width="2.31"/>
<path d="M474.876 174.655C486.148 173.773 555.933 162.436 556.23 163.324C563.385 184.782 559.908 227.561 558.616 227.723C551.269 228.645 505.163 237.085 485.4 239.212C469.575 240.915 467.019 230.473 467.999 230.087C470.516 229.095 537.129 224.95 546.73 215.366C548.139 213.96 547.578 174.897 545.421 175.208C537.661 176.328 478.769 183.98 473.772 185.099C455.424 189.21 469.955 175.039 474.876 174.655Z" fill="#d2d2d2" fill-rule="nonzero" opacity="1" stroke="#000000" stroke-linecap="round" stroke-linejoin="round" stroke-width="2.31"/>
<path d="M469.055 186.118C468.663 192.098 467.173 216.109 469.153 228.459C469.434 230.211 472.275 229.449 473.572 229.327C475.719 229.124 477.866 228.454 477.866 228.454C477.193 227.407 477.306 211.274 477.347 211.283C478.458 211.523 540.073 200.443 559.355 195.741C563.269 194.787 560.388 190.977 560.388 190.977C560.388 190.977 477.565 200.539 477.232 200.195C476.052 198.977 476.814 187.588 477.121 185.223L472.555 185.296C472.55 185.296 472.545 185.297 472.54 185.298L469.055 186.118Z" fill="#d2d2d2" fill-rule="nonzero" opacity="1" stroke="#000000" stroke-linecap="round" stroke-linejoin="round" stroke-width="2.31"/>
<path d="M688.132 358.23C738.265 349.57 795.901 293.185 801.692 280.386C807.483 267.586 799.897 241.068 790.412 231.029C769.396 208.787 742.765 215.977 742.765 215.977L753.702 203.321C753.756 203.258 753.68 203.168 753.609 203.211L738.485 212.275C738.438 212.303 738.378 212.271 738.374 212.217L737.038 190.173C737.038 190.173 758.132 190.127 765.611 181.201C773.09 172.276 744.327 133.399 759.871 152.434C773.396 168.997 814.874 221.476 811.144 273.572C809.388 298.091 773.232 338.465 766.54 348.539C745.631 380.018 688.132 358.23 688.132 358.23Z" fill="#702429" fill-rule="nonzero" opacity="1" stroke="#000000" stroke-linecap="butt" stroke-linejoin="round" stroke-width="2.31"/>
<path d="M786.5 190.003C804.355 219.725 814.696 255.227 798.562 287.347C787.963 308.448 715.5 329.69 715.5 329.69C715.5 329.69 735.444 338.072 731.344 341.065C721.586 348.189 701.75 331.878 701.75 331.878L654.781 367.378C654.85 367.415 675.485 378.774 720.312 376.565C750.378 375.084 777.938 382.222 777.938 382.222C777.938 382.222 785.98 363.054 772.25 357.597C771.977 357.488 788.19 356.226 788.406 373.472C788.411 373.859 811.456 353.114 818.875 307.409C825.831 264.557 808.32 223.087 786.5 190.003Z" fill="#c34848" fill-rule="nonzero" opacity="1" stroke="#000000" stroke-linecap="round" stroke-linejoin="round" stroke-width="2.31"/>
<path d="M631.89 129.737C631.89 129.737 715.445 93.0603 757.231 149.281C778.493 177.887 831.79 255.312 817.992 303.285C800.517 364.043 710.6 370.333 656.264 367.461" fill="none" opacity="1" stroke="#000000" stroke-linecap="round" stroke-linejoin="round" stroke-width="2.31"/>
</g>
<path d="M268.956 700.37C266.003 714.837 276.931 736.385 276.931 736.385C276.931 736.385 330.901 723.919 324.684 737.083C318.467 750.247 331.233 690.676 331.233 690.676L270.289 698.901" fill="#a59595" fill-rule="nonzero" opacity="1" stroke="#000000" stroke-linecap="round" stroke-linejoin="round" stroke-width="2.31"/>
<path d="M731.788 709.772C734.74 724.239 723.812 745.787 723.812 745.787C723.812 745.787 669.842 733.321 676.059 746.485C682.277 759.65 669.51 700.079 669.51 700.079L730.454 708.304" fill="#a59595" fill-rule="nonzero" opacity="1" stroke="#000000" stroke-linecap="round" stroke-linejoin="round" stroke-width="2.31"/>
<g opacity="1">
<path d="M402.676 391.175C352.909 428.722 309.539 431.067 309.539 431.067L243.554 709.847L377.716 693.224" fill="#262222" fill-rule="nonzero" opacity="1" stroke="#000000" stroke-linecap="butt" stroke-linejoin="round" stroke-width="2.31"/>
<path d="M592.993 396.304C642.76 433.851 686.129 436.196 686.129 436.196L752.115 714.976L617.953 698.353" fill="#262222" fill-rule="nonzero" opacity="1" stroke="#000000" stroke-linecap="butt" stroke-linejoin="round" stroke-width="2.31"/>
<path d="M490.825 451.669C490.825 451.669 490.067 609.902 470.574 723.193C464.905 756.14 455.656 761.731 437.324 780.518C345.446 874.676 255.428 888.046 255.428 888.046C255.428 888.046 317.041 738.722 343.971 626.175C370.901 513.628 344.177 427.176 344.177 427.176C344.78 430.496 426.427 411.787 426.427 411.787L496.679 431.71L490.825 451.669Z" fill="#262222" fill-rule="nonzero" opacity="1" stroke="#000000" stroke-linecap="round" stroke-linejoin="round" stroke-width="2.31"/>
<path d="M505.036 452.598C505.036 452.598 505.793 610.831 525.287 724.122C530.955 757.069 540.204 762.66 558.536 781.447C650.414 875.605 740.433 888.975 740.433 888.975C740.433 888.975 678.82 739.651 651.89 627.104C624.96 514.557 651.684 428.105 651.684 428.105C651.08 431.425 569.433 412.716 569.433 412.716L499.182 432.64L505.036 452.598Z" fill="#262222" fill-rule="nonzero" opacity="1" stroke="#000000" stroke-linecap="round" stroke-linejoin="round" stroke-width="2.31"/>
<path d="M329.662 427.878C350.271 417.204 386.636 382.497 386.636 382.497C386.636 382.497 466.98 416.695 498.813 432.656C490.799 432.722 462.256 415.592 442.992 438.165C427.264 456.593 418.724 493.795 411.164 516.813C390.184 457.094 351.397 443.274 329.662 427.878Z" fill="#262222" fill-rule="nonzero" opacity="1" stroke="#000000" stroke-linecap="round" stroke-linejoin="round" stroke-width="2.31"/>
<path d="M658.93 433.772C639.229 426.34 610.406 383.302 610.406 383.302C610.406 383.302 531.11 417.014 499.843 432.975C507.715 433.042 535.672 415.475 554.594 438.048C570.041 456.477 578.43 493.678 585.855 516.696C606.461 456.977 637.582 449.168 658.93 433.772Z" fill="#262222" fill-rule="nonzero" opacity="1" stroke="#000000" stroke-linecap="round" stroke-linejoin="round" stroke-width="2.31"/>
<path d="M498.79 433.058L399.765 532.771C399.765 532.771 444.073 556.908 450.464 573.343C456.855 589.779 406.525 620.483 406.525 620.483C406.525 620.483 475.259 660.558 473.398 701.534C471.537 742.51 498.79 433.058 498.79 433.058Z" fill="#262222" fill-rule="nonzero" opacity="1" stroke="#000000" stroke-linecap="butt" stroke-linejoin="round" stroke-width="2.31"/>
<path d="M499.415 432.854L588.991 535.305C588.991 535.305 547.709 558.172 541.528 574.416C535.347 590.66 581.224 622.768 581.224 622.768C581.224 622.768 520.664 655.377 521.664 696.379C522.665 737.381 499.415 432.854 499.415 432.854Z" fill="#262222" fill-rule="nonzero" opacity="1" stroke="#000000" stroke-linecap="butt" stroke-linejoin="round" stroke-width="2.31"/>
</g>
<g opacity="1">
<path d="M419.181 383.972L498.832 434.877L582.997 376.621C581.86 376.954 530.014 399.406 497.412 401.282C464.81 403.158 419.181 383.972 419.181 383.972Z" fill="#882751" fill-rule="nonzero" opacity="1" stroke="#000000" stroke-linecap="round" stroke-linejoin="round" stroke-width="2.31"/>
<path d="M584.514 376.365C584.514 376.365 567.271 389.826 566.559 390.1L499.551 435.033L418.926 384.565L352.52 419.908L411.801 426.971L542.051 514.127L592.395 387.471L584.514 376.365Z" fill="#c34848" fill-rule="nonzero" opacity="1" stroke="#000000" stroke-linecap="round" stroke-linejoin="round" stroke-width="2.31"/>
<path d="M353.055 419.895L425.056 406.009L493.593 481.917L411.774 426.885L353.055 419.895Z" fill="#882751" fill-rule="nonzero" opacity="1" stroke="#000000" stroke-linecap="round" stroke-linejoin="round" stroke-width="2.31"/>
<path d="M477.209 397.15C476.707 397.104 476.422 397.711 476.777 398.068L499.934 421.322C500.15 421.538 500.503 421.532 500.711 421.308L524.898 395.307C525.251 394.928 524.918 394.317 524.407 394.409L498.466 399.073C498.418 399.081 498.37 399.083 498.322 399.079L477.209 397.15Z" fill="#000000" fill-rule="nonzero" opacity="1" stroke="#000000" stroke-linecap="round" stroke-linejoin="round" stroke-width="2.31"/>
</g>
</g>
</svg>
