<?xml version="1.0" encoding="UTF-8" standalone="no"?>
<!DOCTYPE svg PUBLIC "-//W3C//DTD SVG 1.1//EN" "http://www.w3.org/Graphics/SVG/1.1/DTD/svg11.dtd">
<!-- Created with Vectornator (http://vectornator.io/) -->
<svg height="100%" stroke-miterlimit="10" style="fill-rule:nonzero;clip-rule:evenodd;stroke-linecap:round;stroke-linejoin:round;" version="1.1" viewBox="242.182 73.7381 579.395 819.895" width="100%" xml:space="preserve" xmlns="http://www.w3.org/2000/svg" xmlns:xlink="http://www.w3.org/1999/xlink">
<defs/>
<g id="Front3">
<g opacity="1">
<path d="M386.43 384.666L516.564 348.938L610.135 385.444L526 475.401L395.049 418.954L386.43 384.666Z" fill="#171717" fill-rule="nonzero" opacity="1" stroke="#000000" stroke-linecap="butt" stroke-linejoin="round" stroke-width="2.31"/>
<path d="M347.256 687.166L651.062 722.61L739.878 891.431L500.532 765.047L255.65 890.079L347.256 687.166Z" fill="#171717" fill-rule="nonzero" opacity="1" stroke="#000000" stroke-linecap="round" stroke-linejoin="round" stroke-width="2.31"/>
<path d="M363.523 434.999L635.524 434.999L635.524 658.439L363.523 658.439L363.523 434.999Z" fill="#324e4a" fill-rule="nonzero" opacity="1" stroke="#000000" stroke-linecap="round" stroke-linejoin="round" stroke-width="2.31"/>
<path d="M458.522 585.824L526 588.944L523.906 616.573L458.938 620.115L458.522 585.824Z" fill="#070707" fill-rule="nonzero" opacity="1" stroke="#000000" stroke-linecap="round" stroke-linejoin="round" stroke-width="2.31"/>
<path d="M482.897 814.587L497.941 794.608L498.629 748.862L500.668 698.536C500.67 698.489 500.638 698.447 500.592 698.437L500.592 698.437C500.45 698.405 500.455 698.201 500.599 698.176L501.113 698.087C501.201 698.072 501.282 698.139 501.284 698.228L502.475 749.59C502.475 749.591 502.475 749.592 502.475 749.593L502.643 798.856C502.644 798.902 502.665 798.945 502.701 798.972L510.728 805.051C510.73 805.052 510.731 805.054 510.733 805.055L561.44 840.086C561.498 840.127 561.578 840.119 561.628 840.069L616.166 784.472C616.207 784.431 616.219 784.369 616.198 784.315L549.437 617.185C549.415 617.13 549.362 617.094 549.302 617.093L443.787 616.674C443.723 616.674 443.666 616.715 443.647 616.776L381.279 812.345C381.254 812.423 381.298 812.506 381.376 812.53L457.803 835.614L482.897 814.587Z" fill="#262222" fill-rule="nonzero" opacity="1" stroke="#000000" stroke-linecap="round" stroke-linejoin="round" stroke-width="2.31"/>
<path d="M471.208 632.949C481.916 634.056 538.778 636.641 531.947 625.379" fill="#262222" fill-rule="nonzero" opacity="1" stroke="#000000" stroke-linecap="round" stroke-linejoin="round" stroke-width="2.31"/>
<path d="M407.076 789.722L469.542 805.754L496.444 802.975L492.334 855.222L430.752 846.928C430.752 846.928 398.134 857.945 388.413 851.896C378.692 845.848 366.595 813.229 366.595 813.229L407.076 789.722Z" fill="#262222" fill-rule="nonzero" opacity="1" stroke="#000000" stroke-linecap="round" stroke-linejoin="round" stroke-width="2.31"/>
<path d="M583.921 789.444L526.983 811.571L501.036 802.865L509.95 852.428L570.654 847.185C570.654 847.185 603.273 858.202 612.994 852.154C622.714 846.105 634.811 813.487 634.811 813.487L583.921 789.444Z" fill="#262222" fill-rule="nonzero" opacity="1" stroke="#000000" stroke-linecap="round" stroke-linejoin="round" stroke-width="2.31"/>
<g opacity="1">
<path d="M476.989 600.94C484.253 601.682 517.884 601.933 517.884 601.933L517.923 606.724L470.943 606.196C470.943 606.196 469.726 600.198 476.989 600.94Z" fill="#d2d2d2" fill-rule="nonzero" opacity="1" stroke="#000000" stroke-linecap="butt" stroke-linejoin="round" stroke-width="2.31"/>
<path d="M474.618 584.657L520.892 583.087L517.725 622.42L470.701 622.164L474.395 614.995L516.042 616.248L514.341 590.739L477.412 591.588C477.412 591.588 473.559 622.986 476.405 623.11" fill="#d2d2d2" fill-rule="nonzero" opacity="1" stroke="#000000" stroke-linecap="butt" stroke-linejoin="round" stroke-width="2.31"/>
</g>
</g>
<g opacity="1">
<path d="M381.985 863.878C385.488 838.94 403.145 825.676 436.215 825.676C469.284 825.676 476.51 837.006 484.681 858.582C487.861 866.977 488.909 885.626 483.984 887.772C473.447 892.363 390.924 895.443 383.18 887.983C379.588 884.523 380.911 871.523 381.985 863.878Z" fill="#000000" fill-rule="nonzero" opacity="1" stroke="#000000" stroke-linecap="round" stroke-linejoin="round" stroke-width="2.31"/>
<path d="M517.426 861.695C520.929 836.757 538.586 823.493 571.656 823.493C604.725 823.493 611.951 834.823 620.122 856.399C623.302 864.794 624.35 883.443 619.425 885.589C608.888 890.18 526.365 893.26 518.621 885.8C515.029 882.34 516.352 869.339 517.426 861.695Z" fill="#000000" fill-rule="nonzero" opacity="1" stroke="#000000" stroke-linecap="round" stroke-linejoin="round" stroke-width="2.31"/>
</g>
<g opacity="1">
<path d="M378.851 156.109C449.202 125.362 392.251 141.208 506.389 141.208C573.422 141.208 593.524 135.578 629.881 164.944C655.43 185.581 657.637 242.375 655.066 271.349C640.564 434.797 369.559 437.117 342.603 300.048C334.557 259.136 352.473 167.638 378.851 156.109Z" fill="#a59595" fill-rule="nonzero" opacity="1" stroke="#000000" stroke-linecap="butt" stroke-linejoin="round" stroke-width="2.31"/>
<path d="M338.916 279.725C338.916 237.082 364.457 239.711 408.575 239.711C452.692 239.711 480.615 335.88 414.562 301.046C348.51 266.211 370.108 352.843 370.108 352.843C370.108 352.843 338.916 322.367 338.916 279.725Z" fill="#5e5656" fill-rule="nonzero" opacity="1" stroke="#000000" stroke-linecap="round" stroke-linejoin="round" stroke-width="2.31"/>
<path d="M657.448 257.578C657.448 255.2 657.413 252.911 657.344 250.709C655.656 197.034 633.502 194.76 595.823 194.76C556.598 194.76 537.223 303.079 595.921 284.251C654.62 265.423 625.671 343.742 625.671 343.742C625.671 343.742 657.448 317.932 657.448 257.578Z" fill="#5e5656" fill-rule="nonzero" opacity="1" stroke="#000000" stroke-linecap="round" stroke-linejoin="round" stroke-width="2.31"/>
<path d="M460.178 395.206C458.662 392.619 454.772 377.446 454.772 377.446L480.475 398.626L478.71 388.477L488.086 399.287L483.563 378.88L488.969 387.264L490.403 381.638L503.332 398.335L502.853 385.865L509.026 397.302L507.718 385.857L515.601 397.25L511.07 377.21L518.632 396.002L517.028 374.46L532.856 382.84L532.496 376.752L542.457 392.353C542.457 392.353 541.517 394.292 512.745 397.969C483.974 401.645 461.693 397.792 460.178 395.206Z" fill="#000000" fill-rule="nonzero" opacity="1" stroke="#000000" stroke-linecap="round" stroke-linejoin="round" stroke-width="2.31"/>
<path d="M490.06 351.869L485.8 362.595C485.585 363.136 485.078 363.505 484.497 363.543L444.942 366.146L490.06 351.869Z" fill="#000000" fill-rule="nonzero" opacity="0" stroke="#000000" stroke-linecap="round" stroke-linejoin="round" stroke-width="2.31"/>
<path d="M519.056 349.551L523.696 362.115L567.02 365.026L519.056 349.551Z" fill="#000000" fill-rule="nonzero" opacity="0" stroke="#000000" stroke-linecap="round" stroke-linejoin="round" stroke-width="2.31"/>
<path d="M471.993 335.794C471.993 331.525 484.083 328.064 498.996 328.064C513.91 328.064 526 331.525 526 335.794C526 340.064 513.91 343.525 498.996 343.525C484.083 343.525 471.993 340.064 471.993 335.794Z" fill="#c8c5c5" fill-rule="nonzero" opacity="1" stroke="#c8c5c5" stroke-linecap="round" stroke-linejoin="round" stroke-width="2.31"/>
<path d="M344.81 286.94C352.88 286.997 354.141 293.205 354.141 293.205L361.843 337.87C361.843 337.87 347.825 328.405 344.978 326.284C325.009 311.416 328.41 286.824 344.81 286.94Z" fill="#a59595" fill-rule="nonzero" opacity="1" stroke="#000000" stroke-linecap="round" stroke-linejoin="round" stroke-width="2.31"/>
<path d="M653.432 274.775C644.416 274.832 643.007 281.041 643.007 281.041L635.142 328.223C635.142 328.223 650.063 316.24 653.244 314.12C675.552 299.251 671.752 274.66 653.432 274.775Z" fill="#a59595" fill-rule="nonzero" opacity="1" stroke="#000000" stroke-linecap="round" stroke-linejoin="round" stroke-width="2.31"/>
<path d="M482.596 371.746C487.012 371.315 526.839 370.709 526 370.496" fill="none" opacity="1" stroke="#000000" stroke-linecap="butt" stroke-linejoin="round" stroke-width="2.31"/>
</g>
<g opacity="1">
<path d="M334.83 268.455C333.854 280.817 343.099 296.831 352.34 307.941C371.82 331.36 407.149 348.854 429.445 347.168C437.827 346.535 461.714 335.592 461.714 335.592C461.714 335.592 494.983 311.096 495.02 311.115C500.1 313.662 527.942 331.385 527.942 331.385C527.942 331.385 542.238 338.332 559.873 339.999C599.586 343.752 666.703 285.326 653.16 226.064C653.16 226.064 512.389 270.74 496.673 273.956C480.957 277.171 387.17 269.147 387.17 269.147C387.17 269.147 334.83 268.455 334.83 268.455Z" fill="#000000" fill-rule="nonzero" opacity="1" stroke="#000000" stroke-linecap="round" stroke-linejoin="round" stroke-width="2.31"/>
<path d="M508.588 298.56C516.199 297.216 615.152 276.682 615.087 276.974C607.088 312.994 576.343 326.943 556.893 325.439C516.725 322.332 506.928 298.853 508.588 298.56Z" fill="#ffffff" fill-rule="nonzero" opacity="1" stroke="#000000" stroke-linecap="round" stroke-linejoin="round" stroke-width="2.31"/>
<path d="M536.016 294.083C540.456 333.456 590.33 339.824 587.177 283.625" fill="#3e714e" fill-rule="nonzero" opacity="1" stroke="#000000" stroke-linecap="round" stroke-linejoin="round" stroke-width="2.31"/>
<path d="M550.604 291.179C550.849 321.743 576.799 322.908 574.555 286.283" fill="#ffffff" fill-rule="nonzero" opacity="1" stroke="#000000" stroke-linecap="round" stroke-linejoin="round" stroke-width="2.31"/>
</g>
<g opacity="1">
<path d="M325.542 160.396C325.501 160.396 325.469 160.429 325.469 160.469L325.469 248.854C325.469 248.895 325.501 248.928 325.542 248.928L481.771 248.928C481.811 248.928 481.844 248.895 481.844 248.854L481.844 160.469C481.844 160.429 481.811 160.396 481.771 160.396L325.542 160.396ZM658.469 162.209L637.281 162.896C637.281 162.896 637.387 162.663 636.188 163.24C636.188 163.24 632.522 175.397 640.75 175.303C648.978 175.208 652.838 175.177 655.094 173.146C657.35 171.116 658.469 162.209 658.469 162.209Z" fill="#000000" fill-rule="nonzero" opacity="1" stroke="#000000" stroke-linecap="butt" stroke-linejoin="round" stroke-width="2.31"/>
<path d="M646.544 175.706C673.679 157.731 628.141 169.64 628.941 169.285C637.365 165.54 686.951 155.646 691.045 161.427C706.777 183.642 678.929 214.361 669.041 222.175C603.689 273.822 462.502 305.678 385.132 290.693C213.484 257.447 230.054 161.013 316.077 158.972C321.913 158.833 358.166 159.062 331.456 162.143C304.746 165.225 413.256 330.248 646.544 175.706Z" fill="#262222" fill-rule="nonzero" opacity="1" stroke="#000000" stroke-linecap="round" stroke-linejoin="round" stroke-width="2.31"/>
<path d="M524.784 128.818C518.63 120.055 525.199 116.218 535.996 111.542C546.794 106.865 571.413 93.6238 571.413 93.6238L592.867 103.972C592.897 103.987 592.914 104.019 592.907 104.052L587.463 131.622C587.46 131.637 587.452 131.651 587.44 131.662L571.821 145.788C571.809 145.799 571.793 145.806 571.777 145.807L541.647 148.174C541.647 148.174 527.721 132.322 526.025 131.437" fill="#000000" fill-rule="nonzero" opacity="1" stroke="#000000" stroke-linecap="round" stroke-linejoin="round" stroke-width="2.31"/>
<path d="M349.812 151.714C349.053 139.756 430.689 80.5121 438.902 75.4013C441.972 73.4905 455.307 77.4884 458.596 78.816C474.654 85.2992 495.271 98.8214 503.414 103.594C521.375 114.123 572.413 142.689 566.935 135.26C560.939 127.129 568.179 111.241 565.691 106.165C563.204 101.089 548.555 108.198 542.459 114.259C534.873 121.801 510.368 107.703 518.775 112.396C523.008 114.759 531.179 114.963 538.791 110.016C546.403 105.07 548.954 85.4235 588.506 85.8391C594.292 85.8999 627.629 124.328 632.074 137.955L620.898 165.737C620.893 165.749 620.885 165.76 620.873 165.768L586.509 190.627C586.509 190.627 535.028 206.11 531.22 207.017C527.411 207.923 441.297 212.174 441.297 212.174L394.459 205.189C394.447 205.187 394.436 205.182 394.426 205.175L361.143 180.468C361.138 180.464 361.134 180.46 361.13 180.456L346.694 162.785C346.679 162.767 346.673 162.742 346.68 162.719L349.812 151.714Z" fill="#262222" fill-rule="nonzero" opacity="1" stroke="#000000" stroke-linecap="round" stroke-linejoin="round" stroke-width="2.31"/>
<path d="M406.706 229.329C349.65 210.981 333.394 162.597 336.156 163.303C336.156 163.303 348.848 140.541 353.444 157.86C358.039 175.178 412.728 189.049 412.728 189.049" fill="#262222" fill-rule="nonzero" opacity="1" stroke="#000000" stroke-linecap="round" stroke-linejoin="round" stroke-width="2.31"/>
<path d="M632.02 137.717C598.909 176.694 515.768 202.413 413.375 188.49C408.176 191.495 404.345 196.929 402.406 201.334C395.16 217.793 403.552 226.428 408.5 230.178C414.948 235.063 424.018 239.627 467.646 239.654C545.963 239.702 645.428 183.788 649.307 168.636C651.894 158.53 632.029 137.708 632.02 137.717Z" fill="#262222" fill-rule="nonzero" opacity="1" stroke="#000000" stroke-linecap="round" stroke-linejoin="round" stroke-width="2.31"/>
<path d="M474.876 182.423C486.148 181.542 555.933 170.205 556.23 171.093C563.385 192.55 559.908 235.33 558.616 235.492C551.269 236.413 505.163 244.853 485.4 246.981C469.575 248.684 467.019 238.242 467.999 237.855C470.516 236.864 537.129 232.718 546.73 223.135C548.139 221.729 547.578 182.665 545.421 182.977C537.661 184.097 478.769 191.749 473.772 192.868C455.424 196.978 469.955 182.808 474.876 182.423Z" fill="#d2d2d2" fill-rule="nonzero" opacity="1" stroke="#000000" stroke-linecap="round" stroke-linejoin="round" stroke-width="2.31"/>
<path d="M469.055 193.887C468.663 199.866 467.173 223.877 469.153 236.227C469.434 237.979 472.275 237.217 473.572 237.095C475.719 236.893 477.866 236.223 477.866 236.223C477.193 235.175 477.306 219.042 477.347 219.051C478.458 219.292 540.073 208.212 559.355 203.51C563.269 202.556 560.388 198.745 560.388 198.745C560.388 198.745 477.565 208.308 477.232 207.963C476.052 206.746 476.814 195.357 477.121 192.991L472.555 193.065C472.55 193.065 472.545 193.066 472.54 193.067L469.055 193.887Z" fill="#d2d2d2" fill-rule="nonzero" opacity="1" stroke="#000000" stroke-linecap="round" stroke-linejoin="round" stroke-width="2.31"/>
<path d="M688.132 365.999C738.265 357.338 795.901 300.954 801.692 288.154C807.483 275.355 799.897 248.837 790.412 238.798C769.396 216.556 742.765 223.746 742.765 223.746L753.702 211.09C753.756 211.027 753.68 210.936 753.609 210.979L738.485 220.044C738.438 220.072 738.378 220.04 738.374 219.985L737.038 197.941C737.038 197.941 758.132 197.895 765.611 188.97C773.09 180.045 744.327 141.167 759.871 160.203C773.396 176.766 814.874 229.244 811.144 281.341C809.388 305.859 773.232 346.233 766.54 356.307C745.631 387.786 688.132 365.999 688.132 365.999Z" fill="#702429" fill-rule="nonzero" opacity="1" stroke="#000000" stroke-linecap="butt" stroke-linejoin="round" stroke-width="2.31"/>
<path d="M786.5 197.771C804.355 227.493 814.696 262.995 798.562 295.115C787.963 316.217 715.5 337.459 715.5 337.459C715.5 337.459 735.444 345.841 731.344 348.834C721.586 355.957 701.75 339.646 701.75 339.646L654.781 375.146C654.85 375.184 675.485 386.542 720.312 384.334C750.378 382.853 777.938 389.99 777.938 389.99C777.938 389.99 785.98 370.822 772.25 365.365C771.977 365.256 788.19 363.995 788.406 381.24C788.411 381.628 811.456 360.882 818.875 315.178C825.831 272.325 808.32 230.856 786.5 197.771Z" fill="#c34848" fill-rule="nonzero" opacity="1" stroke="#000000" stroke-linecap="round" stroke-linejoin="round" stroke-width="2.31"/>
<path d="M631.89 137.506C631.89 137.506 715.445 100.829 757.231 157.049C778.493 185.655 831.79 263.08 817.992 311.054C800.517 371.812 710.6 378.102 656.264 375.229" fill="none" opacity="1" stroke="#000000" stroke-linecap="round" stroke-linejoin="round" stroke-width="2.31"/>
</g>
<path d="M268.956 700.37C266.003 714.837 276.931 736.385 276.931 736.385C276.931 736.385 330.901 723.919 324.684 737.083C318.467 750.247 331.233 690.676 331.233 690.676L270.289 698.901" fill="#a59595" fill-rule="nonzero" opacity="1" stroke="#000000" stroke-linecap="round" stroke-linejoin="round" stroke-width="2.31"/>
<path d="M731.788 709.772C734.74 724.239 723.812 745.787 723.812 745.787C723.812 745.787 669.842 733.321 676.059 746.485C682.277 759.65 669.51 700.079 669.51 700.079L730.454 708.304" fill="#a59595" fill-rule="nonzero" opacity="1" stroke="#000000" stroke-linecap="round" stroke-linejoin="round" stroke-width="2.31"/>
<g opacity="1">
<path d="M402.459 393.426C352.692 430.972 309.323 433.317 309.323 433.317L243.337 712.098L377.499 695.475" fill="#262222" fill-rule="nonzero" opacity="1" stroke="#000000" stroke-linecap="butt" stroke-linejoin="round" stroke-width="2.31"/>
<path d="M592.776 398.555C642.543 436.102 685.912 438.447 685.912 438.447L751.898 717.227L617.736 700.604" fill="#262222" fill-rule="nonzero" opacity="1" stroke="#000000" stroke-linecap="butt" stroke-linejoin="round" stroke-width="2.31"/>
<path d="M490.608 453.919C490.608 453.919 489.85 612.152 470.357 725.444C464.688 758.39 455.439 763.982 437.107 782.769C345.23 876.926 255.211 890.296 255.211 890.296C255.211 890.296 316.824 740.973 343.754 628.426C370.684 515.879 343.96 429.426 343.96 429.426C344.564 432.746 426.21 414.038 426.21 414.038L496.462 433.961L490.608 453.919Z" fill="#262222" fill-rule="nonzero" opacity="1" stroke="#000000" stroke-linecap="round" stroke-linejoin="round" stroke-width="2.31"/>
<path d="M504.819 454.848C504.819 454.848 505.576 613.082 525.07 726.373C530.738 759.32 539.987 764.911 558.319 783.698C650.197 877.856 740.216 891.226 740.216 891.226C740.216 891.226 678.603 741.902 651.673 629.355C624.743 516.808 651.467 430.355 651.467 430.355C650.863 433.676 569.217 414.967 569.217 414.967L498.965 434.89L504.819 454.848Z" fill="#262222" fill-rule="nonzero" opacity="1" stroke="#000000" stroke-linecap="round" stroke-linejoin="round" stroke-width="2.31"/>
<path d="M329.445 430.128C350.054 419.455 386.419 384.748 386.419 384.748C386.419 384.748 466.763 418.945 498.596 434.906C490.582 434.973 462.039 417.842 442.775 440.415C427.047 458.844 418.507 496.045 410.947 519.063C389.968 459.345 351.18 445.525 329.445 430.128Z" fill="#262222" fill-rule="nonzero" opacity="1" stroke="#000000" stroke-linecap="round" stroke-linejoin="round" stroke-width="2.31"/>
<path d="M658.713 436.022C639.012 428.59 610.189 385.553 610.189 385.553C610.189 385.553 530.893 419.265 499.626 435.226C507.498 435.293 535.456 417.726 554.377 440.299C569.824 458.727 578.213 495.929 585.638 518.947C606.245 459.228 637.365 451.419 658.713 436.022Z" fill="#262222" fill-rule="nonzero" opacity="1" stroke="#000000" stroke-linecap="round" stroke-linejoin="round" stroke-width="2.31"/>
<path d="M498.573 435.308L399.548 535.022C399.548 535.022 443.856 559.158 450.247 575.594C456.639 592.03 406.308 622.734 406.308 622.734C406.308 622.734 475.043 662.809 473.181 703.784C471.32 744.76 498.573 435.308 498.573 435.308Z" fill="#262222" fill-rule="nonzero" opacity="1" stroke="#000000" stroke-linecap="butt" stroke-linejoin="round" stroke-width="2.31"/>
<path d="M499.198 435.105L588.774 537.555C588.774 537.555 547.492 560.423 541.311 576.667C535.13 592.911 581.007 625.019 581.007 625.019C581.007 625.019 520.447 657.628 521.447 698.63C522.448 739.632 499.198 435.105 499.198 435.105Z" fill="#262222" fill-rule="nonzero" opacity="1" stroke="#000000" stroke-linecap="butt" stroke-linejoin="round" stroke-width="2.31"/>
</g>
<g opacity="1">
<path d="M419.284 384.969L498.935 435.874L583.1 377.618C581.963 377.951 530.117 400.403 497.515 402.279C464.913 404.155 419.284 384.969 419.284 384.969Z" fill="#882751" fill-rule="nonzero" opacity="1" stroke="#000000" stroke-linecap="round" stroke-linejoin="round" stroke-width="2.31"/>
<path d="M584.617 377.362C584.617 377.362 567.374 390.823 566.662 391.097L499.654 436.03L419.029 385.562L352.623 420.905L411.904 427.968L542.154 515.124L592.498 388.468L584.617 377.362Z" fill="#c34848" fill-rule="nonzero" opacity="1" stroke="#000000" stroke-linecap="round" stroke-linejoin="round" stroke-width="2.31"/>
<path d="M353.159 420.892L425.159 407.006L493.696 482.914L411.877 427.882L353.159 420.892Z" fill="#882751" fill-rule="nonzero" opacity="1" stroke="#000000" stroke-linecap="round" stroke-linejoin="round" stroke-width="2.31"/>
<path d="M477.312 398.147C476.81 398.101 476.525 398.708 476.88 399.065L500.037 422.318C500.253 422.535 500.606 422.529 500.814 422.305L525.001 396.304C525.354 395.924 525.021 395.314 524.511 395.406L498.569 400.07C498.521 400.078 498.473 400.08 498.425 400.076L477.312 398.147Z" fill="#000000" fill-rule="nonzero" opacity="1" stroke="#000000" stroke-linecap="round" stroke-linejoin="round" stroke-width="2.31"/>
</g>
</g>
</svg>
