<?xml version="1.0" encoding="UTF-8" standalone="no"?>
<!DOCTYPE svg PUBLIC "-//W3C//DTD SVG 1.1//EN" "http://www.w3.org/Graphics/SVG/1.1/DTD/svg11.dtd">
<!-- Created with Vectornator (http://vectornator.io/) -->
<svg height="100%" stroke-miterlimit="10" style="fill-rule:nonzero;clip-rule:evenodd;stroke-linecap:round;stroke-linejoin:round;" version="1.1" viewBox="242.204 61.248 579.373 832.385" width="100%" xml:space="preserve" xmlns="http://www.w3.org/2000/svg" xmlns:xlink="http://www.w3.org/1999/xlink">
<defs/>
<g id="Front">
<g opacity="1">
<path d="M386.43 380.72L516.564 344.993L610.135 381.499L526 471.455L395.049 415.008L386.43 380.72Z" fill="#171717" fill-rule="nonzero" opacity="1" stroke="#000000" stroke-linecap="butt" stroke-linejoin="round" stroke-width="2.31"/>
<path d="M347.256 683.22L651.062 718.664L739.878 887.485L500.532 761.102L255.65 886.133L347.256 683.22Z" fill="#171717" fill-rule="nonzero" opacity="1" stroke="#000000" stroke-linecap="round" stroke-linejoin="round" stroke-width="2.31"/>
<path d="M363.523 431.054L635.524 431.054L635.524 654.493L363.523 654.493L363.523 431.054Z" fill="#324e4a" fill-rule="nonzero" opacity="1" stroke="#000000" stroke-linecap="round" stroke-linejoin="round" stroke-width="2.31"/>
<path d="M458.522 581.879L526 584.999L523.906 612.627L458.938 616.169L458.522 581.879Z" fill="#070707" fill-rule="nonzero" opacity="1" stroke="#000000" stroke-linecap="round" stroke-linejoin="round" stroke-width="2.31"/>
<path d="M482.897 810.642L497.941 790.663L498.629 744.916L500.668 694.591C500.67 694.544 500.638 694.502 500.592 694.491L500.592 694.491C500.45 694.46 500.455 694.256 500.599 694.231L501.113 694.142C501.201 694.126 501.282 694.193 501.284 694.282L502.475 745.645C502.475 745.646 502.475 745.647 502.475 745.648L502.643 794.911C502.644 794.956 502.665 794.999 502.701 795.027L510.728 801.106C510.73 801.107 510.731 801.108 510.733 801.109L561.44 836.141C561.498 836.182 561.578 836.174 561.628 836.123L616.166 780.527C616.207 780.485 616.219 780.424 616.198 780.37L549.437 613.24C549.415 613.185 549.362 613.148 549.302 613.148L443.787 612.729C443.723 612.728 443.666 612.77 443.647 612.83L381.279 808.4C381.254 808.478 381.298 808.561 381.376 808.584L457.803 831.668L482.897 810.642Z" fill="#262222" fill-rule="nonzero" opacity="1" stroke="#000000" stroke-linecap="round" stroke-linejoin="round" stroke-width="2.31"/>
<path d="M471.208 629.003C481.916 630.111 538.778 632.695 531.947 621.434" fill="#262222" fill-rule="nonzero" opacity="1" stroke="#000000" stroke-linecap="round" stroke-linejoin="round" stroke-width="2.31"/>
<path d="M407.076 785.777L469.542 801.808L496.444 799.03L492.334 851.277L430.752 842.982C430.752 842.982 398.134 853.999 388.413 847.951C378.692 841.902 366.595 809.284 366.595 809.284L407.076 785.777Z" fill="#262222" fill-rule="nonzero" opacity="1" stroke="#000000" stroke-linecap="round" stroke-linejoin="round" stroke-width="2.31"/>
<path d="M583.921 785.499L526.983 807.625L501.036 798.92L509.95 848.482L570.654 843.24C570.654 843.24 603.273 854.257 612.994 848.208C622.714 842.16 634.811 809.541 634.811 809.541L583.921 785.499Z" fill="#262222" fill-rule="nonzero" opacity="1" stroke="#000000" stroke-linecap="round" stroke-linejoin="round" stroke-width="2.31"/>
<g opacity="1">
<path d="M476.989 596.994C484.253 597.736 517.884 597.988 517.884 597.988L517.923 602.778L470.943 602.251C470.943 602.251 469.726 596.253 476.989 596.994Z" fill="#d2d2d2" fill-rule="nonzero" opacity="1" stroke="#000000" stroke-linecap="butt" stroke-linejoin="round" stroke-width="2.31"/>
<path d="M474.618 580.712L520.892 579.142L517.725 618.475L470.701 618.218L474.395 611.049L516.042 612.302L514.341 586.794L477.412 587.643C477.412 587.643 473.559 619.04 476.405 619.164" fill="#d2d2d2" fill-rule="nonzero" opacity="1" stroke="#000000" stroke-linecap="butt" stroke-linejoin="round" stroke-width="2.31"/>
</g>
</g>
<g opacity="1">
<path d="M381.985 863.878C385.488 838.94 403.145 825.676 436.215 825.676C469.284 825.676 476.51 837.006 484.681 858.582C487.861 866.977 488.909 885.626 483.984 887.772C473.447 892.363 390.924 895.443 383.18 887.983C379.588 884.523 380.911 871.523 381.985 863.878Z" fill="#000000" fill-rule="nonzero" opacity="1" stroke="#000000" stroke-linecap="round" stroke-linejoin="round" stroke-width="2.31"/>
<path d="M517.426 861.695C520.929 836.757 538.586 823.493 571.656 823.493C604.725 823.493 611.951 834.823 620.122 856.399C623.302 864.794 624.35 883.443 619.425 885.589C608.888 890.18 526.365 893.26 518.621 885.8C515.029 882.34 516.352 869.339 517.426 861.695Z" fill="#000000" fill-rule="nonzero" opacity="1" stroke="#000000" stroke-linecap="round" stroke-linejoin="round" stroke-width="2.31"/>
</g>
<g opacity="1">
<path d="M378.851 150.26C449.202 119.513 392.251 135.359 506.389 135.359C573.422 135.359 593.524 129.729 629.881 159.095C655.43 179.732 657.637 236.526 655.066 265.5C640.564 428.948 369.559 431.268 342.603 294.199C334.557 253.287 352.473 161.789 378.851 150.26Z" fill="#a59595" fill-rule="nonzero" opacity="1" stroke="#000000" stroke-linecap="butt" stroke-linejoin="round" stroke-width="2.31"/>
<path d="M338.916 273.876C338.916 231.233 364.457 233.862 408.575 233.862C452.692 233.862 480.615 330.031 414.562 295.197C348.51 260.363 370.108 346.994 370.108 346.994C370.108 346.994 338.916 316.518 338.916 273.876Z" fill="#5e5656" fill-rule="nonzero" opacity="1" stroke="#000000" stroke-linecap="round" stroke-linejoin="round" stroke-width="2.31"/>
<path d="M657.448 251.729C657.448 249.351 657.413 247.062 657.344 244.86C655.656 191.186 633.502 188.911 595.823 188.911C556.598 188.911 537.223 297.23 595.921 278.402C654.62 259.575 625.671 337.893 625.671 337.893C625.671 337.893 657.448 312.083 657.448 251.729Z" fill="#5e5656" fill-rule="nonzero" opacity="1" stroke="#000000" stroke-linecap="round" stroke-linejoin="round" stroke-width="2.31"/>
<path d="M460.178 389.357C458.662 386.771 454.772 371.597 454.772 371.597L480.475 392.777L478.71 382.628L488.086 393.438L483.563 373.031L488.969 381.415L490.403 375.789L503.332 392.486L502.853 380.016L509.026 391.453L507.718 380.008L515.601 391.402L511.07 371.361L518.632 390.153L517.028 368.611L532.856 376.991L532.496 370.903L542.457 386.504C542.457 386.504 541.517 388.444 512.745 392.12C483.974 395.796 461.693 391.943 460.178 389.357Z" fill="#000000" fill-rule="nonzero" opacity="1" stroke="#000000" stroke-linecap="round" stroke-linejoin="round" stroke-width="2.31"/>
<path d="M490.06 346.02L485.8 356.746C485.585 357.287 485.078 357.656 484.497 357.694L444.942 360.297L490.06 346.02Z" fill="#000000" fill-rule="nonzero" opacity="0" stroke="#000000" stroke-linecap="round" stroke-linejoin="round" stroke-width="2.31"/>
<path d="M519.056 343.703L523.696 356.266L567.02 359.177L519.056 343.703Z" fill="#000000" fill-rule="nonzero" opacity="0" stroke="#000000" stroke-linecap="round" stroke-linejoin="round" stroke-width="2.31"/>
<path d="M471.993 329.946C471.993 325.676 484.083 322.216 498.996 322.216C513.91 322.216 526 325.676 526 329.946C526 334.215 513.91 337.676 498.996 337.676C484.083 337.676 471.993 334.215 471.993 329.946Z" fill="#c8c5c5" fill-rule="nonzero" opacity="1" stroke="#c8c5c5" stroke-linecap="round" stroke-linejoin="round" stroke-width="2.31"/>
<path d="M344.81 281.091C352.88 281.148 354.141 287.357 354.141 287.357L361.843 332.021C361.843 332.021 347.825 322.556 344.978 320.436C325.009 305.567 328.41 280.975 344.81 281.091Z" fill="#a59595" fill-rule="nonzero" opacity="1" stroke="#000000" stroke-linecap="round" stroke-linejoin="round" stroke-width="2.31"/>
<path d="M653.432 268.926C644.416 268.983 643.007 275.192 643.007 275.192L635.142 322.374C635.142 322.374 650.063 310.391 653.244 308.271C675.552 293.402 671.752 268.811 653.432 268.926Z" fill="#a59595" fill-rule="nonzero" opacity="1" stroke="#000000" stroke-linecap="round" stroke-linejoin="round" stroke-width="2.31"/>
<path d="M482.596 365.897C487.012 365.466 526.839 364.86 526 364.647" fill="none" opacity="1" stroke="#000000" stroke-linecap="butt" stroke-linejoin="round" stroke-width="2.31"/>
</g>
<g opacity="1">
<path d="M335.047 261.004C334.07 273.366 343.316 289.381 352.557 300.491C372.037 323.909 407.366 341.403 429.662 339.718C438.044 339.084 461.931 328.141 461.931 328.141C461.931 328.141 495.2 303.645 495.236 303.664C500.317 306.211 528.159 323.934 528.159 323.934C528.159 323.934 542.455 330.881 560.09 332.548C599.802 336.302 666.92 277.875 653.377 218.613C653.377 218.613 512.606 263.289 496.89 266.505C481.174 269.72 387.387 261.696 387.387 261.696C387.387 261.696 335.047 261.004 335.047 261.004Z" fill="#000000" fill-rule="nonzero" opacity="1" stroke="#000000" stroke-linecap="round" stroke-linejoin="round" stroke-width="2.31"/>
<path d="M508.804 291.109C516.416 289.765 615.369 269.231 615.304 269.523C607.305 305.543 576.56 319.492 557.11 317.988C516.942 314.882 507.145 291.402 508.804 291.109Z" fill="#ffffff" fill-rule="nonzero" opacity="1" stroke="#000000" stroke-linecap="round" stroke-linejoin="round" stroke-width="2.31"/>
<path d="M536.233 286.632C540.673 326.005 590.547 332.373 587.394 276.174" fill="#3e714e" fill-rule="nonzero" opacity="1" stroke="#000000" stroke-linecap="round" stroke-linejoin="round" stroke-width="2.31"/>
<path d="M550.821 283.728C551.066 314.292 577.015 315.457 574.772 278.832" fill="#ffffff" fill-rule="nonzero" opacity="1" stroke="#000000" stroke-linecap="round" stroke-linejoin="round" stroke-width="2.31"/>
</g>
<g opacity="1">
<path d="M325.542 147.906C325.501 147.906 325.469 147.939 325.469 147.979L325.469 236.364C325.469 236.405 325.501 236.438 325.542 236.438L481.771 236.438C481.811 236.438 481.844 236.405 481.844 236.364L481.844 147.979C481.844 147.939 481.811 147.906 481.771 147.906L325.542 147.906ZM658.469 149.719L637.281 150.406C637.281 150.406 637.387 150.173 636.188 150.75C636.188 150.75 632.522 162.907 640.75 162.812C648.978 162.718 652.838 162.687 655.094 160.656C657.35 158.626 658.469 149.719 658.469 149.719Z" fill="#000000" fill-rule="nonzero" opacity="1" stroke="#000000" stroke-linecap="butt" stroke-linejoin="round" stroke-width="2.31"/>
<path d="M646.544 163.216C673.679 145.24 628.141 157.15 628.941 156.795C637.365 153.05 686.951 143.156 691.045 148.937C706.777 171.152 678.929 201.871 669.041 209.685C603.689 261.332 462.502 293.188 385.132 278.203C213.484 244.957 230.054 148.523 316.077 146.482C321.913 146.343 358.166 146.572 331.456 149.653C304.746 152.735 413.256 317.758 646.544 163.216Z" fill="#262222" fill-rule="nonzero" opacity="1" stroke="#000000" stroke-linecap="round" stroke-linejoin="round" stroke-width="2.31"/>
<path d="M524.784 116.328C518.63 107.565 525.199 103.728 535.996 99.0517C546.794 94.3752 571.413 81.1337 571.413 81.1337L592.867 91.482C592.897 91.4964 592.914 91.5294 592.907 91.562L587.463 119.132C587.46 119.147 587.452 119.161 587.44 119.172L571.821 133.298C571.809 133.309 571.793 133.316 571.777 133.317L541.647 135.684C541.647 135.684 527.721 119.832 526.025 118.947" fill="#000000" fill-rule="nonzero" opacity="1" stroke="#000000" stroke-linecap="round" stroke-linejoin="round" stroke-width="2.31"/>
<path d="M349.812 139.224C349.053 127.266 430.689 68.022 438.902 62.9112C441.972 61.0005 455.307 64.9983 458.596 66.326C474.654 72.8092 495.271 86.3314 503.414 91.1043C521.375 101.633 572.413 130.199 566.935 122.77C560.939 114.639 568.179 98.7513 565.691 93.6753C563.204 88.5993 548.555 95.7082 542.459 101.769C534.873 109.311 510.368 95.2131 518.775 99.9059C523.008 102.269 531.179 102.472 538.791 97.526C546.403 92.5796 548.954 72.9335 588.506 73.349C594.292 73.4098 627.629 111.838 632.074 125.465L620.898 153.246C620.893 153.259 620.885 153.27 620.873 153.278L586.509 178.137C586.509 178.137 535.028 193.62 531.22 194.527C527.411 195.433 441.297 199.684 441.297 199.684L394.459 192.699C394.447 192.697 394.436 192.692 394.426 192.685L361.143 167.978C361.138 167.974 361.134 167.97 361.13 167.966L346.694 150.295C346.679 150.277 346.673 150.252 346.68 150.229L349.812 139.224Z" fill="#262222" fill-rule="nonzero" opacity="1" stroke="#000000" stroke-linecap="round" stroke-linejoin="round" stroke-width="2.31"/>
<path d="M406.706 216.839C349.65 198.491 333.394 150.107 336.156 150.813C336.156 150.813 348.848 128.051 353.444 145.369C358.039 162.688 412.728 176.559 412.728 176.559" fill="#262222" fill-rule="nonzero" opacity="1" stroke="#000000" stroke-linecap="round" stroke-linejoin="round" stroke-width="2.31"/>
<path d="M632.02 125.227C598.909 164.204 515.768 189.923 413.375 176C408.176 179.005 404.345 184.439 402.406 188.844C395.16 205.303 403.552 213.938 408.5 217.688C414.948 222.573 424.018 227.137 467.646 227.164C545.963 227.212 645.428 171.298 649.307 156.146C651.894 146.04 632.029 125.218 632.02 125.227Z" fill="#262222" fill-rule="nonzero" opacity="1" stroke="#000000" stroke-linecap="round" stroke-linejoin="round" stroke-width="2.31"/>
<path d="M474.876 169.933C486.148 169.052 555.933 157.714 556.23 158.603C563.385 180.06 559.908 222.84 558.616 223.002C551.269 223.923 505.163 232.363 485.4 234.491C469.575 236.194 467.019 225.752 467.999 225.365C470.516 224.373 537.129 220.228 546.73 210.645C548.139 209.238 547.578 170.175 545.421 170.487C537.661 171.607 478.769 179.258 473.772 180.378C455.424 184.488 469.955 170.318 474.876 169.933Z" fill="#d2d2d2" fill-rule="nonzero" opacity="1" stroke="#000000" stroke-linecap="round" stroke-linejoin="round" stroke-width="2.31"/>
<path d="M469.055 181.397C468.663 187.376 467.173 211.387 469.153 223.737C469.434 225.489 472.275 224.727 473.572 224.605C475.719 224.403 477.866 223.733 477.866 223.733C477.193 222.685 477.306 206.552 477.347 206.561C478.458 206.802 540.073 195.721 559.355 191.02C563.269 190.066 560.388 186.255 560.388 186.255C560.388 186.255 477.565 195.817 477.232 195.473C476.052 194.256 476.814 182.867 477.121 180.501L472.555 180.575C472.55 180.575 472.545 180.575 472.54 180.577L469.055 181.397Z" fill="#d2d2d2" fill-rule="nonzero" opacity="1" stroke="#000000" stroke-linecap="round" stroke-linejoin="round" stroke-width="2.31"/>
<path d="M688.132 353.508C738.265 344.848 795.901 288.464 801.692 275.664C807.483 262.865 799.897 236.347 790.412 226.308C769.396 204.066 742.765 211.256 742.765 211.256L753.702 198.6C753.756 198.537 753.68 198.446 753.609 198.489L738.485 207.553C738.438 207.582 738.378 207.55 738.374 207.495L737.038 185.451C737.038 185.451 758.132 185.405 765.611 176.48C773.09 167.555 744.327 128.677 759.871 147.713C773.396 164.276 814.874 216.754 811.144 268.851C809.388 293.369 773.232 333.743 766.54 343.817C745.631 375.296 688.132 353.508 688.132 353.508Z" fill="#702429" fill-rule="nonzero" opacity="1" stroke="#000000" stroke-linecap="butt" stroke-linejoin="round" stroke-width="2.31"/>
<path d="M786.5 185.281C804.355 215.003 814.696 250.505 798.562 282.625C787.963 303.727 715.5 324.969 715.5 324.969C715.5 324.969 735.444 333.351 731.344 336.344C721.586 343.467 701.75 327.156 701.75 327.156L654.781 362.656C654.85 362.694 675.485 374.052 720.312 371.844C750.378 370.363 777.938 377.5 777.938 377.5C777.938 377.5 785.98 358.332 772.25 352.875C771.977 352.766 788.19 351.505 788.406 368.75C788.411 369.138 811.456 348.392 818.875 302.688C825.831 259.835 808.32 218.366 786.5 185.281Z" fill="#c34848" fill-rule="nonzero" opacity="1" stroke="#000000" stroke-linecap="round" stroke-linejoin="round" stroke-width="2.31"/>
<path d="M631.89 125.016C631.89 125.016 715.445 88.3388 757.231 144.559C778.493 173.165 831.79 250.59 817.992 298.564C800.517 359.322 710.6 365.611 656.264 362.739" fill="none" opacity="1" stroke="#000000" stroke-linecap="round" stroke-linejoin="round" stroke-width="2.31"/>
</g>
<path d="M268.956 700.37C266.003 714.837 276.931 736.385 276.931 736.385C276.931 736.385 330.901 723.919 324.684 737.083C318.467 750.247 331.233 690.676 331.233 690.676L270.289 698.901" fill="#a59595" fill-rule="nonzero" opacity="1" stroke="#000000" stroke-linecap="round" stroke-linejoin="round" stroke-width="2.31"/>
<path d="M731.788 709.772C734.74 724.239 723.812 745.787 723.812 745.787C723.812 745.787 669.842 733.321 676.059 746.485C682.277 759.65 669.51 700.079 669.51 700.079L730.454 708.304" fill="#a59595" fill-rule="nonzero" opacity="1" stroke="#000000" stroke-linecap="round" stroke-linejoin="round" stroke-width="2.31"/>
<g opacity="1">
<path d="M402.481 389.462C352.714 427.009 309.345 429.354 309.345 429.354L243.359 708.134L377.521 691.511" fill="#262222" fill-rule="nonzero" opacity="1" stroke="#000000" stroke-linecap="butt" stroke-linejoin="round" stroke-width="2.31"/>
<path d="M592.798 394.591C642.565 432.138 685.935 434.483 685.935 434.483L751.92 713.263L617.758 696.64" fill="#262222" fill-rule="nonzero" opacity="1" stroke="#000000" stroke-linecap="butt" stroke-linejoin="round" stroke-width="2.31"/>
<path d="M490.63 449.956C490.63 449.956 489.872 608.189 470.379 721.48C464.71 754.427 455.461 760.018 437.129 778.805C345.252 872.963 255.233 886.333 255.233 886.333C255.233 886.333 316.846 737.009 343.776 624.462C370.706 511.915 343.982 425.463 343.982 425.463C344.586 428.783 426.232 410.074 426.232 410.074L496.484 429.998L490.63 449.956Z" fill="#262222" fill-rule="nonzero" opacity="1" stroke="#000000" stroke-linecap="round" stroke-linejoin="round" stroke-width="2.31"/>
<path d="M504.841 450.885C504.841 450.885 505.598 609.118 525.092 722.41C530.76 755.356 540.009 760.948 558.341 779.734C650.219 873.892 740.238 887.262 740.238 887.262C740.238 887.262 678.625 737.938 651.695 625.391C624.765 512.844 651.489 426.392 651.489 426.392C650.885 429.712 569.239 411.003 569.239 411.003L498.987 430.927L504.841 450.885Z" fill="#262222" fill-rule="nonzero" opacity="1" stroke="#000000" stroke-linecap="round" stroke-linejoin="round" stroke-width="2.31"/>
<path d="M329.467 426.165C350.076 415.491 386.442 380.784 386.442 380.784C386.442 380.784 466.785 414.982 498.618 430.943C490.604 431.009 462.061 413.879 442.797 436.452C427.069 454.88 418.529 492.082 410.969 515.1C389.99 455.381 351.202 441.561 329.467 426.165Z" fill="#262222" fill-rule="nonzero" opacity="1" stroke="#000000" stroke-linecap="round" stroke-linejoin="round" stroke-width="2.31"/>
<path d="M658.735 432.059C639.034 424.627 610.211 381.589 610.211 381.589C610.211 381.589 530.915 415.301 499.648 431.262C507.52 431.329 535.478 413.762 554.399 436.335C569.846 454.764 578.235 491.965 585.66 514.983C606.267 455.265 637.387 447.455 658.735 432.059Z" fill="#262222" fill-rule="nonzero" opacity="1" stroke="#000000" stroke-linecap="round" stroke-linejoin="round" stroke-width="2.31"/>
<path d="M498.595 431.345L399.57 531.058C399.57 531.058 443.878 555.195 450.269 571.63C456.661 588.066 406.33 618.77 406.33 618.77C406.33 618.77 475.065 658.845 473.203 699.821C471.342 740.797 498.595 431.345 498.595 431.345Z" fill="#262222" fill-rule="nonzero" opacity="1" stroke="#000000" stroke-linecap="butt" stroke-linejoin="round" stroke-width="2.31"/>
<path d="M499.22 431.141L588.796 533.592C588.796 533.592 547.514 556.459 541.333 572.703C535.152 588.947 581.029 621.055 581.029 621.055C581.029 621.055 520.469 653.664 521.469 694.666C522.47 735.668 499.22 431.141 499.22 431.141Z" fill="#262222" fill-rule="nonzero" opacity="1" stroke="#000000" stroke-linecap="butt" stroke-linejoin="round" stroke-width="2.31"/>
</g>
<g opacity="1">
<path d="M419.181 379.25L498.832 430.156L582.997 371.9C581.86 372.233 530.014 394.685 497.412 396.561C464.81 398.437 419.181 379.25 419.181 379.25Z" fill="#882751" fill-rule="nonzero" opacity="1" stroke="#000000" stroke-linecap="round" stroke-linejoin="round" stroke-width="2.31"/>
<path d="M584.514 371.643C584.514 371.643 567.271 385.105 566.559 385.379L499.551 430.312L418.926 379.843L352.52 415.187L411.801 422.249L542.051 509.406L592.395 382.749L584.514 371.643Z" fill="#c34848" fill-rule="nonzero" opacity="1" stroke="#000000" stroke-linecap="round" stroke-linejoin="round" stroke-width="2.31"/>
<path d="M353.055 415.174L425.056 401.287L493.593 477.195L411.774 422.163L353.055 415.174Z" fill="#882751" fill-rule="nonzero" opacity="1" stroke="#000000" stroke-linecap="round" stroke-linejoin="round" stroke-width="2.31"/>
<path d="M477.209 392.429C476.707 392.383 476.422 392.989 476.777 393.347L499.934 416.6C500.15 416.817 500.503 416.811 500.711 416.587L524.898 390.586C525.251 390.206 524.918 389.595 524.407 389.687L498.466 394.351C498.418 394.36 498.37 394.362 498.322 394.357L477.209 392.429Z" fill="#000000" fill-rule="nonzero" opacity="1" stroke="#000000" stroke-linecap="round" stroke-linejoin="round" stroke-width="2.31"/>
</g>
</g>
</svg>
