<?xml version="1.0" encoding="UTF-8" standalone="no"?>
<!DOCTYPE svg PUBLIC "-//W3C//DTD SVG 1.1//EN" "http://www.w3.org/Graphics/SVG/1.1/DTD/svg11.dtd">
<!-- Created with Vectornator (http://vectornator.io/) -->
<svg height="100%" stroke-miterlimit="10" style="fill-rule:nonzero;clip-rule:evenodd;stroke-linecap:round;stroke-linejoin:round;" version="1.1" viewBox="59.5362 81.5982 834.245 898.571" width="100%" xml:space="preserve" xmlns="http://www.w3.org/2000/svg" xmlns:xlink="http://www.w3.org/1999/xlink">
<defs/>
<g id="Layer-2-copy-copy-copy">
<g opacity="1">
<path d="M659.655 158.364C608.305 164.43 590.078 118.493 497.895 141.828C428.021 174.882 431.994 308.794 503.252 344.275C515.721 360.472 544.689 394.461 544.689 394.461L660.967 433.257C660.967 433.257 684.443 405.768 696.129 372.576C700.885 359.069 703.688 344.617 702.162 330.689C698.155 294.101 712.709 274.347 707.547 264.513C692.931 236.663 723.649 150.805 659.655 158.364Z" fill="#a59595" fill-rule="nonzero" opacity="1" stroke="#000000" stroke-linecap="butt" stroke-linejoin="round" stroke-width="2.31"/>
<path d="M642.451 427.027L644.892 404.743L660.515 431.879L663.995 417.513L668.325 423.943L660.266 432.292L642.451 427.027Z" fill="#000002" fill-rule="nonzero" opacity="1" stroke="#000000" stroke-linecap="butt" stroke-linejoin="round" stroke-width="2.31"/>
<path d="M674.524 335.864C676.315 327.917 683.53 322.773 690.638 324.375C697.747 325.977 702.058 333.718 700.267 341.665C698.477 349.613 691.262 354.757 684.153 353.155C677.044 351.553 672.733 343.812 674.524 335.864Z" fill="#c8c5c5" fill-rule="nonzero" opacity="1" stroke="#c8c5c5" stroke-linecap="butt" stroke-linejoin="round" stroke-width="2.31"/>
<path d="M685.501 396.393L667.216 392.177" fill="#000002" fill-rule="nonzero" opacity="1" stroke="#000000" stroke-linecap="butt" stroke-linejoin="round" stroke-width="2.31"/>
<path d="M565.047 269.789C571.764 263.35 545.922 312.875 544.013 342.854C543.305 353.975 601.092 413.062 601.092 413.062C601.092 413.062 529.649 390.159 529.568 390.173C526.234 390.744 512.444 372.43 504.03 360.507C499.146 353.587 440.742 341.022 421.359 304.804C401.975 268.585 425 208.026 425 208.026L536.621 192.324L565.047 269.789Z" fill="#5e5656" fill-rule="nonzero" opacity="1" stroke="#000000" stroke-linecap="butt" stroke-linejoin="round" stroke-width="2.31"/>
</g>
<g opacity="1">
<path d="M526.565 278.831C526.565 278.831 585.434 334.035 629.28 349.467C677.614 366.479 706.416 326.766 706.416 326.766L710.491 257.985L687.227 242.653L526.565 278.831Z" fill="#070707" fill-rule="nonzero" opacity="1" stroke="#000000" stroke-linecap="butt" stroke-linejoin="round" stroke-width="2.31"/>
<path d="M700.421 298.637C700.421 298.637 689.492 337.683 666.487 329.652C643.481 321.621 636.512 280.064 636.512 280.064L700.421 298.637Z" fill="#ffffff" fill-rule="nonzero" opacity="0" stroke="#000000" stroke-linecap="butt" stroke-linejoin="round" stroke-width="2.31"/>
</g>
<g opacity="1">
<path d="M475.983 680.627L529.051 686.872C531.621 687.174 534.22 687.108 536.772 686.676L553.914 683.772C561.668 682.459 568.474 677.853 572.577 671.143L579.037 660.576L594.913 634.608C594.913 634.608 521.431 588.735 508.855 586.195C496.278 583.656 475.983 680.627 475.983 680.627Z" fill="#000000" fill-rule="nonzero" opacity="1" stroke="#000000" stroke-linecap="butt" stroke-linejoin="round" stroke-width="2.31"/>
<path d="M496.969 347.945L471.209 370.06L447.015 372.429L321.232 538.02L413.382 671.504L496.573 684.167L572.073 589.06L484.881 528.072L607.764 451.366L496.969 347.945Z" fill="#000000" fill-rule="nonzero" opacity="1" stroke="#000000" stroke-linecap="butt" stroke-linejoin="round" stroke-width="2.31"/>
</g>
<g opacity="1">
<path d="M623.714 170.39C666.949 167.982 718.03 154.28 739.272 147C760.515 139.719 761.914 206.197 720.562 244.396C679.209 282.595 600.234 300.857 600.234 300.857C600.234 300.857 545.391 326.796 481.223 308.395C417.054 289.995 411.929 274.16 401.217 265.745C390.506 257.331 357.195 185.679 427.234 171.463C497.272 157.246 580.479 172.798 623.714 170.39Z" fill="#262222" fill-rule="nonzero" opacity="1" stroke="#000000" stroke-linecap="butt" stroke-linejoin="round" stroke-width="2.31"/>
<path d="M596.235 130.158L614.85 105.903L636.568 116.338L637.978 164.286L596.235 130.158Z" fill="#000002" fill-rule="nonzero" opacity="1" stroke="#000000" stroke-linecap="butt" stroke-linejoin="round" stroke-width="2.31"/>
<path d="M454.344 189.208C456.477 172.034 459.243 148.986 493.779 107.422C518.969 77.1076 543.382 83.2676 543.382 83.2676C543.382 83.2676 580.891 92.4733 589.013 101.748C604.397 119.315 618.012 131.412 625.396 138.822C633.404 146.859 634.39 149.069 630.649 138.403C623.976 119.375 627.601 112.594 620.451 113.736C608.372 115.667 610.742 124.316 610.742 124.316L601.432 115.412C601.432 115.412 599.929 112.581 609.809 104.738C619.69 96.8945 629.168 100.766 629.168 100.766C629.168 100.766 672.045 141.722 686.521 162.723C692.442 171.314 696.1 194.357 628.181 215.117C553.667 237.892 453.929 192.548 454.344 189.208Z" fill="#262222" fill-rule="nonzero" opacity="1" stroke="#000000" stroke-linecap="butt" stroke-linejoin="round" stroke-width="2.31"/>
<path d="M439.227 185.61C427.36 182.944 448.359 245.387 544.866 243.944C641.374 242.502 709.158 187.393 706.613 179.395C703.121 168.426 688.495 155.583 685.843 156.142C682.095 156.932 681.161 154.61 683.386 158.799C689.985 171.223 598.44 209.248 548.667 212.256C498.894 215.264 458.703 191.618 458.804 173.258C458.905 154.899 451.093 188.275 439.227 185.61Z" fill="#262222" fill-rule="nonzero" opacity="1" stroke="#000000" stroke-linecap="butt" stroke-linejoin="round" stroke-width="2.31"/>
<path d="M527.741 315.912C469.146 314.847 417.107 287.577 398.276 262.369C389.463 250.571 443.25 304.914 480.662 252.555C490.252 239.134 524.885 288.461 574.221 297.32C623.557 306.179 701.951 258.863 694.511 263.563C687.071 268.262 630.839 317.786 527.741 315.912Z" fill="#070707" fill-rule="nonzero" opacity="1" stroke="#000000" stroke-linecap="butt" stroke-linejoin="round" stroke-width="2.31"/>
</g>
<g opacity="1">
<path d="M494.985 789.987C494.985 789.987 460.942 777.451 401.675 807.372C342.408 837.292 115.295 873.914 115.295 873.914C115.295 873.914 381.091 691.531 292.985 663.562C204.879 635.592 507.972 583.652 507.972 583.652L567.251 606.357L494.985 789.987Z" fill="#070707" fill-rule="nonzero" opacity="1" stroke="#000000" stroke-linecap="butt" stroke-linejoin="round" stroke-width="2.31"/>
<path d="M605.237 495.265L580.356 566.034L542.343 646.19C542.083 647.015 541.857 647.813 541.514 648.685C540.368 651.595 538.75 654.566 537.248 656.914L499.674 736.102C499.674 736.102 518.528 696.772 535.839 679.018C553.149 661.264 563.115 658.191 563.115 658.191C563.115 658.191 562.559 629.598 567.417 608.759C572.274 587.919 592.181 580.536 592.181 580.536L605.237 495.265Z" fill="#070707" fill-rule="nonzero" opacity="1" stroke="#000000" stroke-linecap="butt" stroke-linejoin="round" stroke-width="2.31"/>
<g opacity="1">
<path d="M281.253 930.531L298.111 878.697C298.111 878.697 338.873 883.026 349.12 887.85C363.513 894.626 363.746 922.731 375.74 934.62C385.635 944.428 408.881 937.759 407.762 946.717C405.8 962.436 405.874 978.324 405.874 978.324L339.816 979.014L281.253 930.531Z" fill="#000002" fill-rule="nonzero" opacity="1" stroke="#000000" stroke-linecap="butt" stroke-linejoin="round" stroke-width="2.31"/>
<path d="M330.895 821.503L372.416 866.278L410.655 867.226L379.366 939.171L343.12 885.24C343.12 885.24 301.609 880.373 301.609 880.373C301.609 880.373 290.751 863.083 294.785 853.702C302.072 836.758 322.288 814.089 322.288 814.089L330.895 821.503Z" fill="#000002" fill-rule="nonzero" opacity="1" stroke="#000000" stroke-linecap="butt" stroke-linejoin="round" stroke-width="2.31"/>
<path d="M349.394 695.902L507.672 627.079L463.853 767.855L368.284 904.586L309.145 876.797L331.148 775.915C331.148 775.915 331.862 624.085 331.295 622.22C330.264 618.827 354.47 647.884 354.47 647.884" fill="#000002" fill-rule="nonzero" opacity="1" stroke="#000000" stroke-linecap="butt" stroke-linejoin="round" stroke-width="2.31"/>
</g>
<path d="M472.807 492.233L602.693 485.377L610.053 484.84L596.036 541.054L546.877 645.022L437.194 679.965L472.807 492.233Z" fill="#324e4a" fill-rule="nonzero" opacity="1" stroke="#000000" stroke-linecap="butt" stroke-linejoin="round" stroke-width="2.31"/>
<path d="M516.203 640.12L555.53 636.379L538.319 666.653L484.249 669.08L369.878 610.89L304.577 573.323L338.572 555.77L516.203 640.12Z" fill="#262222" fill-rule="nonzero" opacity="1" stroke="#000000" stroke-linecap="butt" stroke-linejoin="round" stroke-width="2.31"/>
<path d="M599.183 478.328L604.019 493.911L593.085 550.981C593.085 550.981 601.073 511.91 605.038 513.052C609.004 514.194 622.912 542.109 622.912 542.109L614.395 489.02L599.183 478.328Z" fill="#262222" fill-rule="nonzero" opacity="1" stroke="#000000" stroke-linecap="butt" stroke-linejoin="round" stroke-width="2.31"/>
<g opacity="1">
<path d="M491.94 619.08L539.511 677.472L493.978 670.519L332.638 789.654L628 717.149L640.786 749.403L617.483 804.366L745.748 857.184L791.212 771.232L688.842 594.771L491.94 619.08Z" fill="#262222" fill-rule="nonzero" opacity="1" stroke="#000000" stroke-linecap="butt" stroke-linejoin="round" stroke-width="2.31"/>
<path d="M724.794 941.583L690.209 860.202C690.209 860.202 703.479 852.067 716.63 837.876C750.341 801.496 782.123 801.806 812.967 813.689C819.338 816.143 892.626 869.09 892.626 869.09L796.961 914.181L724.794 941.583Z" fill="#000002" fill-rule="nonzero" opacity="1" stroke="#000000" stroke-linecap="butt" stroke-linejoin="round" stroke-width="2.31"/>
<path d="M678.589 811.264L742.642 788.273L767.955 763.575L806.884 822.68L742.681 837.165C742.681 837.165 712.877 871.364 712.877 871.364C712.877 871.364 690.861 871.062 685.008 862.048C674.438 845.769 666.724 814.657 666.724 814.657L678.589 811.264Z" fill="#262222" fill-rule="nonzero" opacity="1" stroke="#000000" stroke-linecap="butt" stroke-linejoin="round" stroke-width="2.31"/>
</g>
<path d="M611.176 482.108L447.718 423.637C447.718 423.637 365.327 549.996 343.951 558.636C330.58 564.04 339.798 560.49 325.45 603.654C316.858 629.5 210.907 662.216 210.907 662.216C210.907 662.216 210.389 722.926 200.886 728.089C142.355 759.891 60.6912 799.298 60.6912 799.298C60.6912 799.298 305.576 829.323 365.847 804.424C426.118 779.526 467.406 741.338 472.474 734.223C473.927 732.182 492.228 698.866 511.741 668.576C513.832 665.331 528.605 669.433 530.379 666.111C530.286 665.671 530.145 665.236 530.131 664.772C530.085 663.211 530.464 661.664 531.069 660.239C531.368 659.535 531.755 658.925 532.129 658.305C531.951 657.684 531.874 657.008 531.964 656.327C532.143 654.963 532.605 653.79 533.307 652.558C533.487 652.243 534.244 651.037 534.334 650.879C534.494 650.599 534.53 650.5 534.924 649.801C536.932 646.244 538.001 644.613 539.71 642.816C540.56 641.921 541.581 641.334 542.561 640.678C542.784 640.352 542.965 639.988 543.274 639.715C543.691 639.347 544.275 639.157 544.847 638.956C550.451 628.428 546.233 603.209 546.233 603.209C546.233 603.209 611.176 482.108 611.176 482.108Z" fill="#262222" fill-rule="nonzero" opacity="1" stroke="#000000" stroke-linecap="butt" stroke-linejoin="round" stroke-width="2.31"/>
<path d="M550.376 601.622L562.767 603.98L564.684 605.117L543.979 638.811L529.101 639.829L550.376 601.622Z" fill="#000002" fill-rule="nonzero" opacity="1" stroke="#000000" stroke-linecap="butt" stroke-linejoin="round" stroke-width="2.31"/>
<path d="M540.876 599.6C535.558 602.793 517.81 640.749 517.81 640.749C517.81 640.749 540.038 647.081 548.496 639.642C556.955 632.204 572.289 605.355 566.645 601.766C566.413 601.619 555.112 599.094 551.608 599.439C540.397 600.543 543.997 597.726 540.876 599.6ZM562.604 605.911C563.591 607.049 556.891 619.433 556.891 619.433C556.891 619.433 549.474 631.285 546.213 633.454C542.176 636.14 534.854 635.578 534.809 634.042C534.763 632.481 549.697 605.934 550.006 605.661C551.126 604.674 561.862 605.055 562.604 605.911Z" fill="#dddddd" fill-rule="nonzero" opacity="1" stroke="#000000" stroke-linecap="butt" stroke-linejoin="round" stroke-width="2.31"/>
<path d="M615.332 478.34L468.785 543.707C468.785 543.707 516.313 567.299 522.117 577.294C544.135 615.212 440.167 607.545 440.167 607.545C440.167 607.545 486.252 633.232 493.791 659.88C501.33 686.527 478.133 727.22 478.133 727.22L615.332 478.34Z" fill="#262222" fill-rule="nonzero" opacity="1" stroke="#000000" stroke-linecap="butt" stroke-linejoin="round" stroke-width="2.31"/>
<path d="M543.249 617.596L561.39 620.896L562.426 623.096L560.603 624.874L540.137 624.356L543.249 617.596Z" fill="#dddddd" fill-rule="nonzero" opacity="1" stroke="#000000" stroke-linecap="butt" stroke-linejoin="round" stroke-width="2.31"/>
<g opacity="1">
<path d="M466.001 682.789L518.851 674.907C521.41 674.526 523.902 673.781 526.251 672.695L542.033 665.4C549.172 662.101 554.533 655.872 556.734 648.322L560.199 636.43L568.714 607.209C568.714 607.209 485.779 582.197 472.976 583.043C460.174 583.888 466.001 682.789 466.001 682.789Z" fill="#a59595" fill-rule="nonzero" opacity="1" stroke="#000000" stroke-linecap="butt" stroke-linejoin="round" stroke-width="2.31"/>
<path d="M399.984 365.408L380.003 384.328L357.275 392.955L279.286 585.722L403.198 690.39L486.799 680.809L534.736 569.24L434.608 533.234L533.094 427.005L479.866 349.539L399.984 365.408Z" fill="#262222" fill-rule="nonzero" opacity="1" stroke="#000000" stroke-linecap="butt" stroke-linejoin="round" stroke-width="2.31"/>
</g>
<path d="M474.575 350.862L517.756 365.443L487.244 364.109L597.893 477.642C597.893 477.642 563.929 462.989 530.417 502.78C510.122 526.876 506.261 538.275 507.019 534.479C507.019 534.479 489.579 471.006 449.422 443.124C409.266 415.243 379.2 406.546 379.2 406.546L474.575 350.862Z" fill="#262222" fill-rule="nonzero" opacity="1" stroke="#000000" stroke-linecap="butt" stroke-linejoin="round" stroke-width="2.31"/>
</g>
<g opacity="1">
<path d="M575.612 396.661C584.072 402.756 615.511 421.188 615.511 421.188L602.677 447.037C602.677 447.037 567.152 390.566 575.612 396.661Z" fill="#070707" fill-rule="nonzero" opacity="1" stroke="#000000" stroke-linecap="butt" stroke-linejoin="round" stroke-width="2.31"/>
<path d="M530.097 367.89C528.911 367.152 527.492 368.412 528.085 369.677L552.664 422.136C552.756 422.332 552.892 422.505 553.062 422.64L600.485 460.247C601.234 460.841 602.345 460.528 602.674 459.63L615.982 423.365C615.924 421.672 605.697 414.569 605.42 416.24C605.42 416.24 603.556 440.193 602.867 439.039L585.921 402.903C585.806 402.657 585.622 402.45 585.392 402.307L530.097 367.89Z" fill="#702429" fill-rule="nonzero" opacity="1" stroke="#000000" stroke-linecap="butt" stroke-linejoin="round" stroke-width="2.31"/>
<path d="M432.46 404.213L484.681 332.419L497.865 322.25L513.441 331.572L528.797 366.95L591.257 437.572L601.396 460.627L615.94 422.851L617.592 493.916L555.436 464.364L506.637 413.799L432.46 404.213Z" fill="#c34848" fill-rule="nonzero" opacity="1" stroke="#000000" stroke-linecap="butt" stroke-linejoin="round" stroke-width="2.31"/>
<path d="M432.857 404.596L522.12 397.551L616.707 493.409L552.545 463.381L504.175 427.493L432.857 404.596Z" fill="#702429" fill-rule="nonzero" opacity="1" stroke="#000000" stroke-linecap="butt" stroke-linejoin="round" stroke-width="2.31"/>
</g>
<path d="M521.237 282.708C521.237 282.708 519.824 275.849 511.129 274.437C497.84 272.28 482.817 284.508 485.071 301.852C488.799 330.545 516.813 339.01 516.813 339.01L521.237 282.708Z" fill="#a59595" fill-rule="nonzero" opacity="1" stroke="#000000" stroke-linecap="butt" stroke-linejoin="round" stroke-width="2.31"/>
</g>
</svg>
