<?xml version="1.0" encoding="UTF-8" standalone="no"?>
<!DOCTYPE svg PUBLIC "-//W3C//DTD SVG 1.1//EN" "http://www.w3.org/Graphics/SVG/1.1/DTD/svg11.dtd">
<!-- Created with Vectornator (http://vectornator.io/) -->
<svg height="100%" stroke-miterlimit="10" style="fill-rule:nonzero;clip-rule:evenodd;stroke-linecap:round;stroke-linejoin:round;" version="1.1" viewBox="39.8962 60.555 731.053 890.539" width="100%" xml:space="preserve" xmlns="http://www.w3.org/2000/svg" xmlns:xlink="http://www.w3.org/1999/xlink">
<defs/>
<g id="Layer-2-copy">
<g opacity="1">
<path d="M656.205 136.887C604.855 142.953 586.628 97.0152 494.445 120.35C424.571 153.405 428.544 287.316 499.802 322.798C512.271 338.995 541.239 372.984 541.239 372.984L657.517 411.779C657.517 411.779 680.993 384.291 692.679 351.098C697.435 337.591 700.238 323.139 698.712 309.211C694.705 272.623 709.259 252.87 704.097 243.036C689.481 215.186 720.199 129.327 656.205 136.887Z" fill="#a59595" fill-rule="nonzero" opacity="1" stroke="#000000" stroke-linecap="butt" stroke-linejoin="round" stroke-width="2.31"/>
<path d="M639.001 405.549L641.442 383.266L657.065 410.402L660.545 396.035L664.875 402.465L656.816 410.815L639.001 405.549Z" fill="#000002" fill-rule="nonzero" opacity="1" stroke="#000000" stroke-linecap="butt" stroke-linejoin="round" stroke-width="2.31"/>
<path d="M671.074 314.387C672.865 306.439 680.08 301.295 687.189 302.897C694.297 304.499 698.608 312.24 696.818 320.188C695.027 328.135 687.812 333.279 680.703 331.677C673.595 330.075 669.284 322.334 671.074 314.387Z" fill="#c8c5c5" fill-rule="nonzero" opacity="1" stroke="#c8c5c5" stroke-linecap="butt" stroke-linejoin="round" stroke-width="2.31"/>
<path d="M682.051 374.915L663.766 370.699" fill="#000002" fill-rule="nonzero" opacity="1" stroke="#000000" stroke-linecap="butt" stroke-linejoin="round" stroke-width="2.31"/>
<path d="M561.597 248.311C568.314 241.872 542.472 291.398 540.563 321.377C539.855 332.498 597.642 391.585 597.642 391.585C597.642 391.585 526.199 368.682 526.118 368.695C522.785 369.266 508.994 350.953 500.58 339.03C495.696 332.11 437.293 319.545 417.909 283.326C398.525 247.108 421.55 186.548 421.55 186.548L533.171 170.847L561.597 248.311Z" fill="#5e5656" fill-rule="nonzero" opacity="1" stroke="#000000" stroke-linecap="butt" stroke-linejoin="round" stroke-width="2.31"/>
</g>
<g opacity="1">
<path d="M523.115 257.354C523.115 257.354 581.985 312.558 625.83 327.99C674.164 345.002 702.966 305.289 702.966 305.289L707.041 236.508L683.778 221.176L523.115 257.354Z" fill="#070707" fill-rule="nonzero" opacity="1" stroke="#000000" stroke-linecap="butt" stroke-linejoin="round" stroke-width="2.31"/>
<path d="M696.971 277.16C696.971 277.16 686.042 316.206 663.037 308.175C640.032 300.144 633.062 258.587 633.062 258.587L696.971 277.16Z" fill="#ffffff" fill-rule="nonzero" opacity="0" stroke="#000000" stroke-linecap="butt" stroke-linejoin="round" stroke-width="2.31"/>
</g>
<g opacity="1">
<path d="M142.817 636.862L195.88 643.151C198.449 643.455 201.049 643.391 203.6 642.961L220.745 640.071C228.501 638.764 235.31 634.164 239.418 627.458L245.887 616.895L261.784 590.94C261.784 590.94 188.34 545.007 175.765 542.458C163.191 539.908 142.817 636.862 142.817 636.862Z" fill="#000000" fill-rule="nonzero" opacity="1" stroke="#000000" stroke-linecap="butt" stroke-linejoin="round" stroke-width="2.31"/>
<path d="M463.223 355.766L429.679 361.005L413.616 348.362L256.573 396.703L168.1 533.133L226.725 628.646L306.145 578.561L312.716 490.393L502.964 502.027L463.223 355.766Z" fill="#000000" fill-rule="nonzero" opacity="1" stroke="#000000" stroke-linecap="butt" stroke-linejoin="round" stroke-width="2.31"/>
</g>
<g opacity="1">
<path d="M620.264 149.347C663.499 146.939 714.58 133.237 735.822 125.956C757.065 118.676 758.464 185.154 717.112 223.353C675.759 261.552 596.785 279.813 596.785 279.813C596.785 279.813 541.941 305.753 477.773 287.352C413.605 268.952 408.479 253.116 397.767 244.702C387.056 236.287 353.745 164.636 423.784 150.419C493.822 136.203 577.029 151.755 620.264 149.347Z" fill="#262222" fill-rule="nonzero" opacity="1" stroke="#000000" stroke-linecap="butt" stroke-linejoin="round" stroke-width="2.31"/>
<path d="M592.785 109.115L611.4 84.8594L633.118 95.2951L634.528 143.243L592.785 109.115Z" fill="#000002" fill-rule="nonzero" opacity="1" stroke="#000000" stroke-linecap="butt" stroke-linejoin="round" stroke-width="2.31"/>
<path d="M450.894 168.165C453.027 150.991 455.793 127.943 490.329 86.3793C515.519 56.0644 539.932 62.2244 539.932 62.2244C539.932 62.2244 577.441 71.43 585.563 80.7045C600.947 98.2713 614.563 110.369 621.946 117.779C629.954 125.815 630.94 128.026 627.2 117.36C620.526 98.3317 624.151 91.5503 617.001 92.6931C604.922 94.624 607.292 103.273 607.292 103.273L597.982 94.3689C597.982 94.3689 596.479 91.5377 606.359 83.6945C616.24 75.8513 625.718 79.7227 625.718 79.7227C625.718 79.7227 668.596 120.679 683.071 141.68C688.992 150.27 692.65 173.313 624.731 194.073C550.217 216.849 450.479 171.505 450.894 168.165Z" fill="#262222" fill-rule="nonzero" opacity="1" stroke="#000000" stroke-linecap="butt" stroke-linejoin="round" stroke-width="2.31"/>
<path d="M435.777 164.566C423.911 161.901 444.909 224.343 541.416 222.901C637.924 221.459 705.708 166.35 703.163 158.352C699.671 147.383 685.045 134.54 682.393 135.099C678.646 135.889 677.711 133.567 679.936 137.756C686.535 150.18 594.99 188.205 545.217 191.213C495.445 194.221 455.253 170.574 455.354 152.215C455.455 133.856 447.643 167.232 435.777 164.566Z" fill="#262222" fill-rule="nonzero" opacity="1" stroke="#000000" stroke-linecap="butt" stroke-linejoin="round" stroke-width="2.31"/>
<path d="M524.291 294.869C465.696 293.804 413.657 266.534 394.826 241.326C386.013 229.528 439.8 283.87 477.212 231.512C486.803 218.091 521.435 267.418 570.771 276.277C620.107 285.135 698.501 237.82 691.061 242.52C683.622 247.219 627.389 296.743 524.291 294.869Z" fill="#070707" fill-rule="nonzero" opacity="1" stroke="#000000" stroke-linecap="butt" stroke-linejoin="round" stroke-width="2.31"/>
</g>
<g opacity="1">
<path d="M489.552 734.502C489.552 734.502 446.746 745.755 387.479 775.676C328.211 805.596 67.4103 818.822 67.4103 818.822C67.4103 818.822 378.076 675.7 289.969 647.73C201.863 619.76 504.957 567.82 504.957 567.82L564.235 590.526L489.552 734.502Z" fill="#070707" fill-rule="nonzero" opacity="1" stroke="#000000" stroke-linecap="butt" stroke-linejoin="round" stroke-width="2.31"/>
<path d="M602.222 479.433L577.34 550.202L539.327 630.358C539.068 631.183 538.841 631.982 538.498 632.853C537.353 635.764 535.735 638.734 534.233 641.083L496.659 720.27C496.659 720.27 515.512 680.94 532.823 663.186C550.134 645.432 560.099 642.359 560.099 642.359C560.099 642.359 559.544 613.766 564.401 592.927C569.258 572.087 589.165 564.704 589.165 564.704L602.222 479.433Z" fill="#070707" fill-rule="nonzero" opacity="1" stroke="#000000" stroke-linecap="butt" stroke-linejoin="round" stroke-width="2.31"/>
<g opacity="1">
<path d="M651.23 867.06L624.984 814.596L627.799 820.924C627.799 820.924 662.296 794.254 673.912 789.509C703.687 777.344 731.931 786.126 745.657 798.276C756.545 807.914 769.794 830.516 769.794 830.516L651.23 867.06Z" fill="#000002" fill-rule="nonzero" opacity="1" stroke="#000000" stroke-linecap="butt" stroke-linejoin="round" stroke-width="2.31"/>
<path d="M619.376 768.014L680.322 771.818L708.672 746.14L735.612 819.824L672.175 805.751C672.175 805.751 638.753 830.846 638.753 830.846C638.753 830.846 618.967 825.81 615.421 816.233C609.016 798.937 608.03 768.578 608.03 768.578L619.376 768.014Z" fill="#000002" fill-rule="nonzero" opacity="1" stroke="#000000" stroke-linecap="butt" stroke-linejoin="round" stroke-width="2.31"/>
<path d="M529.545 676.771L490.838 611.182L672.43 664.606L707.376 756.729L615.767 804.603L597.899 720.429C597.899 720.429 459.192 773.842 457.334 772.949C453.954 771.325 498.437 639.19 498.437 639.19" fill="#000002" fill-rule="nonzero" opacity="1" stroke="#000000" stroke-linecap="butt" stroke-linejoin="round" stroke-width="2.31"/>
</g>
<path d="M469.792 476.401L599.677 469.545L607.038 469.008L593.021 525.222L543.861 629.19L434.178 664.133L469.792 476.401Z" fill="#324e4a" fill-rule="nonzero" opacity="1" stroke="#000000" stroke-linecap="butt" stroke-linejoin="round" stroke-width="2.31"/>
<path d="M517.002 625.783L552.515 620.548L535.842 651.033L487.123 655.557L386.572 602.783L329.333 568.375L360.596 549.751L517.002 625.783Z" fill="#262222" fill-rule="nonzero" opacity="1" stroke="#000000" stroke-linecap="butt" stroke-linejoin="round" stroke-width="2.31"/>
<path d="M596.167 462.496L601.003 478.079L590.07 535.149C590.07 535.149 598.057 496.078 602.023 497.22C605.988 498.362 619.896 526.277 619.896 526.277L611.379 473.188L596.167 462.496Z" fill="#262222" fill-rule="nonzero" opacity="1" stroke="#000000" stroke-linecap="butt" stroke-linejoin="round" stroke-width="2.31"/>
<g opacity="1">
<path d="M546.978 674.061L490.371 706.135L547.493 651.492L376.778 660.42L414.456 755.074L266.594 794.754L285.16 865.403L410.09 845.849L526.498 831.555L496.179 712.541L546.978 674.061Z" fill="#262222" fill-rule="nonzero" opacity="1" stroke="#000000" stroke-linecap="butt" stroke-linejoin="round" stroke-width="2.31"/>
<path d="M195.971 802.432L258.558 797.16C258.558 797.16 287.057 808.043 302.638 815.809C342.578 835.716 313.951 899.712 312.489 903.865C304.764 925.813 254.074 949.939 254.074 949.939L195.971 802.432Z" fill="#000002" fill-rule="nonzero" opacity="1" stroke="#000000" stroke-linecap="butt" stroke-linejoin="round" stroke-width="2.31"/>
<path d="M308.334 777.442L343.159 837.598L374.013 859.713L296.728 891.461L289.639 842.833C289.639 842.833 247.708 817.339 247.708 817.339C247.708 817.339 244.72 795.79 253.705 789.112C269.934 777.052 302.831 766.206 302.831 766.206L308.334 777.442Z" fill="#262222" fill-rule="nonzero" opacity="1" stroke="#000000" stroke-linecap="butt" stroke-linejoin="round" stroke-width="2.31"/>
</g>
<path d="M610.448 456.474L385.84 387.105C385.84 387.105 368.173 499.814 353.636 543.459C344.931 569.594 192.025 639.975 192.025 639.975C192.025 639.975 191.271 701.286 181.735 706.537C122.992 738.879 41.0512 778.992 41.0512 778.992C41.0512 778.992 280.808 791.02 341.267 765.643C401.726 740.265 475.132 702.46 480.235 695.255C481.855 692.967 493.48 677.406 511.966 642.672C511.875 642.227 511.736 641.789 511.724 641.321C511.684 639.745 512.069 638.181 512.68 636.739C512.982 636.027 513.372 635.409 513.749 634.782C513.574 634.156 513.5 633.474 513.592 632.786C513.777 631.407 514.244 630.221 514.952 628.973C515.133 628.654 515.896 627.435 515.987 627.274C516.148 626.991 516.185 626.89 516.582 626.184C518.606 622.584 519.683 620.932 521.401 619.111C522.257 618.204 523.281 617.607 524.266 616.94C524.49 616.611 524.673 616.242 524.984 615.966C525.403 615.592 525.988 615.398 526.562 615.192C564.876 542.985 610.448 456.474 610.448 456.474Z" fill="#262222" fill-rule="nonzero" opacity="1" stroke="#000000" stroke-linecap="butt" stroke-linejoin="round" stroke-width="2.31"/>
<path d="M547.361 585.79L559.751 588.149L561.669 589.285L540.963 622.979L526.085 623.997L547.361 585.79Z" fill="#000002" fill-rule="nonzero" opacity="1" stroke="#000000" stroke-linecap="butt" stroke-linejoin="round" stroke-width="2.31"/>
<path d="M537.861 583.768C532.542 586.961 514.795 624.917 514.795 624.917C514.795 624.917 537.022 631.249 545.481 623.811C553.939 616.372 569.273 589.523 563.63 585.935C563.398 585.787 552.096 583.262 548.593 583.607C537.381 584.711 540.982 581.894 537.861 583.768ZM559.588 590.079C560.575 591.218 553.875 603.601 553.875 603.601C553.875 603.601 546.458 615.453 543.198 617.622C539.16 620.308 531.839 619.747 531.793 618.21C531.747 616.649 546.681 590.102 546.991 589.829C548.11 588.842 558.846 589.223 559.588 590.079Z" fill="#dddddd" fill-rule="nonzero" opacity="1" stroke="#000000" stroke-linecap="butt" stroke-linejoin="round" stroke-width="2.31"/>
<path d="M612.316 462.508L465.769 527.875C465.769 527.875 513.298 551.467 519.102 561.462C541.119 599.381 437.151 591.713 437.151 591.713C437.151 591.713 483.237 617.401 490.775 644.048C498.314 670.695 475.118 711.388 475.118 711.388L612.316 462.508Z" fill="#262222" fill-rule="nonzero" opacity="1" stroke="#000000" stroke-linecap="butt" stroke-linejoin="round" stroke-width="2.31"/>
<path d="M540.233 601.765L558.374 605.065L559.411 607.264L557.587 609.042L537.121 608.524L540.233 601.765Z" fill="#dddddd" fill-rule="nonzero" opacity="1" stroke="#000000" stroke-linecap="butt" stroke-linejoin="round" stroke-width="2.31"/>
<g opacity="1">
<path d="M607.61 602.905L652.99 574.693C655.187 573.327 657.179 571.654 658.903 569.726L670.494 556.765C675.736 550.903 678.185 543.059 677.207 535.255L675.668 522.965L671.885 492.764C671.885 492.764 585.835 502.727 574.419 508.585C563.004 514.442 607.61 602.905 607.61 602.905Z" fill="#a59595" fill-rule="nonzero" opacity="1" stroke="#000000" stroke-linecap="butt" stroke-linejoin="round" stroke-width="2.31"/>
<path d="M465.424 347.045L400.624 347.378L316.256 399.568L372.95 647.615L588.021 664.603L625.255 610.577L603.996 487.807L474.152 532.877L491.147 361.033L465.334 342.85L465.424 347.045Z" fill="#262222" fill-rule="nonzero" opacity="1" stroke="#000000" stroke-linecap="butt" stroke-linejoin="round" stroke-width="2.31"/>
</g>
<path d="M471.56 335.03L514.74 349.611L484.228 348.277L594.878 461.81C594.878 461.81 560.913 447.157 527.401 486.948C507.106 511.045 503.245 522.443 504.004 518.648C504.004 518.648 486.563 455.174 446.407 427.293C406.25 399.411 376.184 390.714 376.184 390.714L471.56 335.03Z" fill="#262222" fill-rule="nonzero" opacity="1" stroke="#000000" stroke-linecap="butt" stroke-linejoin="round" stroke-width="2.31"/>
</g>
<g opacity="1">
<path d="M572.162 375.183C580.622 381.278 612.061 399.711 612.061 399.711L599.228 425.56C599.228 425.56 563.702 369.089 572.162 375.183Z" fill="#070707" fill-rule="nonzero" opacity="1" stroke="#000000" stroke-linecap="butt" stroke-linejoin="round" stroke-width="2.31"/>
<path d="M526.647 346.412C525.461 345.674 524.042 346.934 524.635 348.199L549.214 400.658C549.306 400.855 549.442 401.027 549.613 401.162L597.035 438.769C597.784 439.363 598.895 439.05 599.224 438.153L612.532 401.887C612.474 400.194 602.247 393.091 601.97 394.763C601.97 394.763 600.106 418.715 599.417 417.562L582.471 381.425C582.356 381.18 582.172 380.973 581.942 380.83L526.647 346.412Z" fill="#702429" fill-rule="nonzero" opacity="1" stroke="#000000" stroke-linecap="butt" stroke-linejoin="round" stroke-width="2.31"/>
<path d="M429.01 382.735L481.231 310.942L494.415 300.772L509.991 310.094L525.347 345.472L587.807 416.094L597.946 439.15L612.49 401.374L614.143 472.439L551.986 442.887L503.188 392.322L429.01 382.735Z" fill="#c34848" fill-rule="nonzero" opacity="1" stroke="#000000" stroke-linecap="butt" stroke-linejoin="round" stroke-width="2.31"/>
<path d="M429.407 383.118L518.671 376.073L613.258 471.931L549.095 441.903L500.725 406.015L429.407 383.118Z" fill="#702429" fill-rule="nonzero" opacity="1" stroke="#000000" stroke-linecap="butt" stroke-linejoin="round" stroke-width="2.31"/>
</g>
<path d="M519.582 260.412C519.582 260.412 518.169 253.553 509.474 252.142C496.185 249.984 481.162 262.212 483.416 279.556C487.144 308.249 515.158 316.714 515.158 316.714L519.582 260.412Z" fill="#a59595" fill-rule="nonzero" opacity="1" stroke="#000000" stroke-linecap="butt" stroke-linejoin="round" stroke-width="2.31"/>
</g>
</svg>
