<?xml version="1.0" encoding="UTF-8" standalone="no"?>
<!DOCTYPE svg PUBLIC "-//W3C//DTD SVG 1.1//EN" "http://www.w3.org/Graphics/SVG/1.1/DTD/svg11.dtd">
<!-- Created with Vectornator (http://vectornator.io/) -->
<svg height="100%" stroke-miterlimit="10" style="fill-rule:nonzero;clip-rule:evenodd;stroke-linecap:round;stroke-linejoin:round;" version="1.1" viewBox="247.376 73.12 398.754 880.566" width="100%" xml:space="preserve" xmlns="http://www.w3.org/2000/svg" xmlns:xlink="http://www.w3.org/1999/xlink">
<defs/>
<g id="Layer-2">
<g opacity="1">
<path d="M538.507 146.726C489.747 163.931 461.868 123.124 377.069 166.152C316.17 213.759 349.484 343.521 426.798 362.471C442.523 375.53 478.254 402.32 478.254 402.32L600.216 414.605C600.216 414.605 617.075 382.629 621.179 347.68C622.849 333.457 622.406 318.743 617.856 305.491C605.904 270.679 615.759 248.209 608.562 239.75C588.181 215.794 599.274 125.284 538.507 146.726Z" fill="#a59595" fill-rule="nonzero" opacity="1" stroke="#000000" stroke-linecap="butt" stroke-linejoin="round" stroke-width="2.31"/>
<path d="M580.783 412.598L578.266 390.324L599.472 413.361L599.709 398.581L605.346 403.902L599.32 413.819L580.783 412.598Z" fill="#000002" fill-rule="nonzero" opacity="1" stroke="#000000" stroke-linecap="butt" stroke-linejoin="round" stroke-width="2.31"/>
<path d="M592.032 316.615C592.032 308.469 597.939 301.864 605.226 301.864C612.513 301.864 618.421 308.469 618.421 316.615C618.421 324.762 612.513 331.366 605.226 331.366C597.939 331.366 592.032 324.762 592.032 316.615Z" fill="#c8c5c5" fill-rule="nonzero" opacity="1" stroke="#c8c5c5" stroke-linecap="butt" stroke-linejoin="round" stroke-width="2.31"/>
<path d="M616.045 373.25L597.281 373.157" fill="#000002" fill-rule="nonzero" opacity="1" stroke="#000000" stroke-linecap="butt" stroke-linejoin="round" stroke-width="2.31"/>
<path d="M470.708 276.222C475.845 268.464 461.522 322.458 466.249 352.124C468.003 363.129 537.366 408.067 537.366 408.067C537.366 408.067 462.636 401.429 462.56 401.461C459.433 402.75 441.954 387.916 431.125 378.134C424.84 372.457 365.103 373.038 338.231 341.967C311.36 310.895 320.509 246.756 320.509 246.756L425.948 206.901L470.708 276.222Z" fill="#5e5656" fill-rule="nonzero" opacity="1" stroke="#000000" stroke-linecap="butt" stroke-linejoin="round" stroke-width="2.31"/>
</g>
<g opacity="1">
<path d="M435.155 293.503C435.155 293.503 504.719 334.415 550.885 339.831C601.776 345.802 621.144 300.729 621.144 300.729L610 232.735L583.934 222.892L435.155 293.503Z" fill="#070707" fill-rule="nonzero" opacity="1" stroke="#000000" stroke-linecap="butt" stroke-linejoin="round" stroke-width="2.31"/>
<path d="M609.112 274.606C609.112 274.606 607.034 315.099 582.826 312.322C558.618 309.545 542.683 270.536 542.683 270.536L609.112 274.606Z" fill="#ffffff" fill-rule="nonzero" opacity="0" stroke="#000000" stroke-linecap="butt" stroke-linejoin="round" stroke-width="2.31"/>
</g>
<g opacity="1">
<path d="M514.842 161.912C558.077 159.504 609.158 145.802 630.4 138.521C651.643 131.241 653.042 197.719 611.69 235.918C570.338 274.117 491.363 292.378 491.363 292.378C491.363 292.378 436.52 318.318 372.351 299.917C308.183 281.517 303.057 265.681 292.345 257.267C281.634 248.852 248.324 177.201 318.362 162.984C388.4 148.768 471.607 164.32 514.842 161.912Z" fill="#262222" fill-rule="nonzero" opacity="1" stroke="#000000" stroke-linecap="butt" stroke-linejoin="round" stroke-width="2.31"/>
<path d="M487.363 121.68L505.978 97.4244L527.696 107.86L529.106 155.808L487.363 121.68Z" fill="#000002" fill-rule="nonzero" opacity="1" stroke="#000000" stroke-linecap="butt" stroke-linejoin="round" stroke-width="2.31"/>
<path d="M345.472 180.73C347.605 163.556 350.371 140.508 384.907 98.9443C410.097 68.6294 434.51 74.7894 434.51 74.7894C434.51 74.7894 472.019 83.995 480.141 93.2695C495.525 110.836 509.141 122.934 516.524 130.344C524.532 138.38 525.518 140.591 521.778 129.925C515.104 110.897 518.729 104.115 511.579 105.258C499.5 107.189 501.87 115.838 501.87 115.838L492.56 106.934C492.56 106.934 491.057 104.103 500.937 96.2595C510.818 88.4163 520.296 92.2877 520.296 92.2877C520.296 92.2877 563.174 133.244 577.649 154.245C583.57 162.835 587.228 185.878 519.309 206.638C444.795 229.414 345.057 184.07 345.472 180.73Z" fill="#262222" fill-rule="nonzero" opacity="1" stroke="#000000" stroke-linecap="butt" stroke-linejoin="round" stroke-width="2.31"/>
<path d="M330.355 177.131C318.489 174.466 339.487 236.908 435.995 235.466C532.502 234.024 600.286 178.915 597.741 170.917C594.249 159.948 579.623 147.105 576.971 147.664C573.224 148.454 572.289 146.132 574.514 150.321C581.113 162.745 489.568 200.77 439.796 203.778C390.023 206.786 349.832 183.139 349.932 164.78C350.033 146.421 342.221 179.797 330.355 177.131Z" fill="#262222" fill-rule="nonzero" opacity="1" stroke="#000000" stroke-linecap="butt" stroke-linejoin="round" stroke-width="2.31"/>
<path d="M418.87 307.434C360.274 306.369 308.235 279.099 289.404 253.891C280.591 242.093 334.378 296.435 371.79 244.077C381.381 230.656 416.013 279.983 465.349 288.842C514.685 297.7 593.079 250.385 585.64 255.085C578.2 259.784 521.967 309.308 418.87 307.434Z" fill="#070707" fill-rule="nonzero" opacity="1" stroke="#000000" stroke-linecap="butt" stroke-linejoin="round" stroke-width="2.31"/>
</g>
<g opacity="1">
<path d="M538.456 807.671C538.456 807.671 509.961 799.753 466.628 841.893C423.294 884.033 413.88 924.542 413.88 924.542C413.88 924.542 388.652 789.069 315.446 773.415C242.24 757.761 523.723 582.528 523.723 582.528L573.448 597.261L538.456 807.671Z" fill="#070707" fill-rule="nonzero" opacity="1" stroke="#000000" stroke-linecap="butt" stroke-linejoin="round" stroke-width="2.31"/>
<path d="M569.781 476.375L572.781 551.344L565.844 639.844C565.911 640.706 566.001 641.532 566 642.469C565.995 645.597 565.518 648.953 564.906 651.688L558.031 739.125C558.031 739.125 561.648 695.628 572.531 672.781C583.415 649.935 592.625 643.437 592.625 643.438C592.625 643.438 580.261 617.019 576.781 595.844C573.302 574.669 591.187 560.531 591.188 560.531L569.781 476.375Z" fill="#070707" fill-rule="nonzero" opacity="1" stroke="#000000" stroke-linecap="butt" stroke-linejoin="round" stroke-width="2.31"/>
<g opacity="1">
<path d="M526.095 909.56L529.632 852.482C529.632 852.482 544.692 846.064 555.857 844.16C584.477 839.28 606.058 869.638 615.363 887.308C622.744 901.325 618.666 912.226 618.666 912.226L526.095 909.56Z" fill="#000002" fill-rule="nonzero" opacity="1" stroke="#000000" stroke-linecap="butt" stroke-linejoin="round" stroke-width="2.31"/>
<path d="M507.784 794.72L567.976 811.831L600.065 806.456L597.786 873.67L542.005 849.863C542.005 849.863 501.501 860.172 501.501 860.172C501.501 860.172 485.175 847.912 485.585 837.708C486.327 819.279 497.094 790.877 497.094 790.877L507.784 794.72Z" fill="#000002" fill-rule="nonzero" opacity="1" stroke="#000000" stroke-linecap="butt" stroke-linejoin="round" stroke-width="2.31"/>
<path d="M525.647 711.231L567.948 635.649L605.896 794.464L577.434 826.363L520.165 856.322C520.165 856.322 437.379 775.031 435.202 772.232C433.025 769.433 513.205 664.576 513.205 664.576" fill="#000002" fill-rule="nonzero" opacity="1" stroke="#000000" stroke-linecap="butt" stroke-linejoin="round" stroke-width="2.31"/>
</g>
<path d="M444.032 521.874L562.46 468.097L569.117 464.912L576.579 522.365L568.746 637.102L479.375 709.657L444.032 521.874Z" fill="#324e4a" fill-rule="nonzero" opacity="1" stroke="#000000" stroke-linecap="butt" stroke-linejoin="round" stroke-width="2.31"/>
<path d="M569.092 685.846L553.887 698.791L569.265 651.77L451.274 681.94L408.45 825.116L476.516 869.407L560.382 810.806L555.642 706.711L569.092 685.846Z" fill="#262222" fill-rule="nonzero" opacity="1" stroke="#000000" stroke-linecap="butt" stroke-linejoin="round" stroke-width="2.31"/>
<path d="M538.398 643.73L573.649 625.897L568.671 660.364L519.214 682.353L391.496 669.908L316.989 658.758L342.235 630.011L538.398 643.73Z" fill="#262222" fill-rule="nonzero" opacity="1" stroke="#000000" stroke-linecap="butt" stroke-linejoin="round" stroke-width="2.31"/>
<path d="M556.62 462.815L567.885 475.559L579.654 532.684C579.654 532.684 572.113 493.392 576.656 493.008C581.199 492.624 606.777 513.54 606.777 513.54L576.593 467.219L556.62 462.815Z" fill="#262222" fill-rule="nonzero" opacity="1" stroke="#000000" stroke-linecap="butt" stroke-linejoin="round" stroke-width="2.31"/>
<path d="M446.794 941.895L451.416 867.905C451.416 867.905 471.052 859.583 485.61 857.114C522.927 850.783 551.062 890.132 563.191 913.036C572.813 931.205 567.495 945.337 567.495 945.337L446.794 941.895Z" fill="#000002" fill-rule="nonzero" opacity="1" stroke="#000000" stroke-linecap="butt" stroke-linejoin="round" stroke-width="2.31"/>
<path d="M456.362 811.166L516.899 828.277L548.88 822.901L547.956 890.115L491.696 866.309C491.696 866.309 451.399 876.618 451.399 876.618C451.399 876.618 434.826 864.358 435.031 854.154C435.401 835.724 445.595 807.323 445.595 807.323L456.362 811.166Z" fill="#262222" fill-rule="nonzero" opacity="1" stroke="#000000" stroke-linecap="butt" stroke-linejoin="round" stroke-width="2.31"/>
<path d="M567.719 457.719L378.531 469.062C378.531 469.062 341.093 668.281 324.344 684.125C307.594 699.969 279.312 768.344 279.312 768.344C279.312 768.344 318.568 799.387 329.75 845.438C340.932 891.488 324.031 952.531 324.031 952.531C324.031 952.531 394.22 898.642 441.25 853.469C488.28 808.295 532.784 746.38 534.906 737.906C535.58 735.216 539.431 703.3 543.969 664.656C543.722 664.28 543.432 663.927 543.25 663.5C542.638 662.064 542.426 660.485 542.469 658.938C542.49 658.172 542.628 657.463 542.75 656.75C542.358 656.237 542.04 655.636 541.875 654.969C541.544 653.633 541.546 652.373 541.75 650.969C541.802 650.61 542.068 649.212 542.094 649.031C542.14 648.712 542.138 648.607 542.25 647.812C542.821 643.768 543.221 641.859 544.156 639.562C544.622 638.42 545.358 637.501 546.031 636.531C546.12 636.147 546.155 635.742 546.344 635.375C546.598 634.88 547.072 634.49 547.531 634.094C556.856 553.799 567.719 457.719 567.719 457.719Z" fill="#262222" fill-rule="nonzero" opacity="1" stroke="#000000" stroke-linecap="butt" stroke-linejoin="round" stroke-width="2.31"/>
<path d="M288.557 689.516L303.26 744.934L320.692 773.736L345.091 777.982L375.077 783.199C375.077 783.199 390.722 697.998 388.46 685.369C386.198 672.74 288.557 689.516 288.557 689.516Z" fill="#a59595" fill-rule="nonzero" opacity="1" stroke="#000000" stroke-linecap="butt" stroke-linejoin="round" stroke-width="2.31"/>
<path d="M380.139 408.956L352.842 429.143L317.156 437.8L286.439 585.159L248.531 667.033L329.603 749.465L422.078 700.839L419.335 606.743L456.639 456.037L380.139 408.956Z" fill="#262222" fill-rule="nonzero" opacity="1" stroke="#000000" stroke-linecap="butt" stroke-linejoin="round" stroke-width="2.31"/>
<path d="M394.093 389.605L439.617 387.425L410.722 397.317L555.169 462.647C555.169 462.647 518.2 461.398 501.518 510.673C491.415 540.514 491.979 552.535 491.3 548.724C491.3 548.724 451.901 495.991 404.34 484.685C356.779 473.378 325.612 476.251 325.612 476.251L394.093 389.605Z" fill="#262222" fill-rule="nonzero" opacity="1" stroke="#000000" stroke-linecap="butt" stroke-linejoin="round" stroke-width="2.31"/>
<path d="M556.167 595.417L568.564 593.092L570.764 593.45L563.781 632.376L550.3 638.753L556.167 595.417Z" fill="#000002" fill-rule="nonzero" opacity="1" stroke="#000000" stroke-linecap="butt" stroke-linejoin="round" stroke-width="2.31"/>
<path d="M546.584 597.001C542.798 601.915 540.124 643.729 540.124 643.729C540.124 643.729 563.129 641.514 568.29 631.502C573.451 621.49 577.931 590.897 571.368 589.615C571.097 589.562 559.654 591.335 556.518 592.935C546.482 598.054 548.807 594.118 546.584 597.001ZM569.117 594.949C570.451 595.649 568.732 609.623 568.732 609.623C568.732 609.623 566.151 623.364 563.907 626.574C561.128 630.547 554.106 632.696 553.503 631.282C552.891 629.846 557.108 599.679 557.297 599.313C557.979 597.985 568.113 594.422 569.117 594.949Z" fill="#dddddd" fill-rule="nonzero" opacity="1" stroke="#000000" stroke-linecap="butt" stroke-linejoin="round" stroke-width="2.31"/>
<path d="M571.66 456.934L488.745 562.934C488.745 562.934 511.929 575.89 520.98 583.078C555.315 610.348 484.008 644.396 484.008 644.396C484.008 644.396 507.999 648.246 524.741 670.305C541.484 692.365 534.735 738.716 534.735 738.716L571.66 456.934Z" fill="#262222" fill-rule="nonzero" opacity="1" stroke="#000000" stroke-linecap="butt" stroke-linejoin="round" stroke-width="2.31"/>
<path d="M555.36 612.891L573.454 609.344L575.222 611.014L574.173 613.334L554.929 620.319L555.36 612.891Z" fill="#dddddd" fill-rule="nonzero" opacity="1" stroke="#000000" stroke-linecap="butt" stroke-linejoin="round" stroke-width="2.31"/>
</g>
<g opacity="1">
<path d="M514.406 406.323C524.686 408.065 561.031 410.753 561.031 410.753L560.905 439.612C560.905 439.612 504.126 404.581 514.406 406.323Z" fill="#070707" fill-rule="nonzero" opacity="1" stroke="#000000" stroke-linecap="butt" stroke-linejoin="round" stroke-width="2.31"/>
<path d="M460.869 400.56C459.479 400.42 458.76 402.177 459.85 403.051L505.036 439.305C505.205 439.441 505.404 439.535 505.616 439.581L564.759 452.435C565.694 452.638 566.553 451.868 566.453 450.917L562.413 412.499C561.615 411.004 549.304 409.137 549.792 410.759C549.792 410.759 558.677 433.081 557.55 432.349L526.41 407.382C526.199 407.212 525.943 407.107 525.673 407.08L460.869 400.56Z" fill="#702429" fill-rule="nonzero" opacity="1" stroke="#000000" stroke-linecap="butt" stroke-linejoin="round" stroke-width="2.31"/>
<path d="M389.239 476.201L404.468 388.74L411.819 373.8L429.91 375.302L459.287 400.289L546.482 436.149L565.745 452.375L562.149 412.056L594.956 475.117L526.138 475.988L460.047 452.11L389.239 476.201Z" fill="#c34848" fill-rule="nonzero" opacity="1" stroke="#000000" stroke-linecap="butt" stroke-linejoin="round" stroke-width="2.31"/>
<path d="M389.764 476.369L466.783 430.7L593.938 475.051L523.109 476.379L463.873 465.486L389.764 476.369Z" fill="#702429" fill-rule="nonzero" opacity="1" stroke="#000000" stroke-linecap="butt" stroke-linejoin="round" stroke-width="2.31"/>
</g>
<path d="M451.726 298.455C451.726 298.455 448.84 292.075 440.046 292.609C426.609 293.426 414.641 308.657 420.652 325.081C430.597 352.253 459.786 354.353 459.786 354.353L451.726 298.455Z" fill="#a59595" fill-rule="nonzero" opacity="1" stroke="#000000" stroke-linecap="butt" stroke-linejoin="round" stroke-width="2.31"/>
</g>
</svg>
