<?xml version="1.0" encoding="UTF-8" standalone="no"?>
<!DOCTYPE svg PUBLIC "-//W3C//DTD SVG 1.1//EN" "http://www.w3.org/Graphics/SVG/1.1/DTD/svg11.dtd">
<!-- Created with Vectornator (http://vectornator.io/) -->
<svg height="100%" stroke-miterlimit="10" style="fill-rule:nonzero;clip-rule:evenodd;stroke-linecap:round;stroke-linejoin:round;" version="1.1" viewBox="41.404 60.4892 841.286 931.775" width="100%" xml:space="preserve" xmlns="http://www.w3.org/2000/svg" xmlns:xlink="http://www.w3.org/1999/xlink">
<defs/>
<g id="Sidewalk4">
<g opacity="1">
<path d="M657.511 131.281C606.162 137.347 587.934 91.4095 495.751 114.744C425.877 147.799 429.85 281.71 501.108 317.192C513.578 333.389 542.545 367.378 542.545 367.378L658.823 406.173C658.823 406.173 682.299 378.685 693.985 345.493C698.741 331.985 701.544 317.534 700.018 303.606C696.011 267.018 710.565 247.264 705.403 237.43C690.787 209.58 721.505 123.722 657.511 131.281Z" fill="#a59595" fill-rule="nonzero" opacity="1" stroke="#000000" stroke-linecap="butt" stroke-linejoin="round" stroke-width="2.31"/>
<path d="M640.307 399.943L642.748 377.66L658.371 404.796L661.851 390.429L666.181 396.859L658.122 405.209L640.307 399.943Z" fill="#000002" fill-rule="nonzero" opacity="1" stroke="#000000" stroke-linecap="butt" stroke-linejoin="round" stroke-width="2.31"/>
<path d="M672.38 308.781C674.171 300.834 681.386 295.69 688.495 297.292C695.603 298.893 699.914 306.635 698.124 314.582C696.333 322.529 689.118 327.673 682.009 326.072C674.901 324.47 670.59 316.729 672.38 308.781Z" fill="#c8c5c5" fill-rule="nonzero" opacity="1" stroke="#c8c5c5" stroke-linecap="butt" stroke-linejoin="round" stroke-width="2.31"/>
<path d="M683.357 369.309L665.072 365.094" fill="#000002" fill-rule="nonzero" opacity="1" stroke="#000000" stroke-linecap="butt" stroke-linejoin="round" stroke-width="2.31"/>
<path d="M562.904 242.706C569.62 236.267 543.778 285.792 541.869 315.771C541.161 326.892 598.948 385.979 598.948 385.979C598.948 385.979 527.505 363.076 527.424 363.09C524.091 363.661 510.3 345.347 501.886 333.424C497.003 326.504 438.599 313.939 419.215 277.721C399.831 241.502 422.856 180.943 422.856 180.943L534.477 165.241L562.904 242.706Z" fill="#5e5656" fill-rule="nonzero" opacity="1" stroke="#000000" stroke-linecap="butt" stroke-linejoin="round" stroke-width="2.31"/>
</g>
<g opacity="1">
<path d="M524.421 251.748C524.421 251.748 583.291 306.952 627.136 322.384C675.47 339.396 704.272 299.683 704.272 299.683L708.348 230.902L685.084 215.57L524.421 251.748Z" fill="#070707" fill-rule="nonzero" opacity="1" stroke="#000000" stroke-linecap="butt" stroke-linejoin="round" stroke-width="2.31"/>
<path d="M698.277 271.554C698.277 271.554 687.348 310.6 664.343 302.569C641.338 294.538 634.368 252.981 634.368 252.981L698.277 271.554Z" fill="#ffffff" fill-rule="nonzero" opacity="0" stroke="#000000" stroke-linecap="butt" stroke-linejoin="round" stroke-width="2.31"/>
</g>
<g opacity="1">
<path d="M827.437 546.515L847.428 496.961C848.396 494.561 849.016 492.036 849.271 489.461L850.981 472.158C851.755 464.332 849.102 456.554 843.709 450.83L835.214 441.816L814.339 419.666C814.339 419.666 750.745 478.485 744.985 489.95C739.226 501.414 827.437 546.515 827.437 546.515Z" fill="#000000" fill-rule="nonzero" opacity="1" stroke="#000000" stroke-linecap="butt" stroke-linejoin="round" stroke-width="2.31"/>
<path d="M487.656 470.944L522.471 522.599L520.795 542.972L692.258 660.802L810.353 612.749L881.535 516.451L747.495 463.345L706.593 551.642L626.492 412.395L487.656 470.944Z" fill="#000000" fill-rule="nonzero" opacity="1" stroke="#000000" stroke-linecap="butt" stroke-linejoin="round" stroke-width="2.31"/>
</g>
<g opacity="1">
<path d="M622.206 149.281C665.441 146.873 716.522 133.171 737.764 125.891C759.007 118.61 760.406 185.088 719.054 223.287C677.702 261.486 598.727 279.748 598.727 279.748C598.727 279.748 543.884 305.687 479.715 287.286C415.547 268.886 410.421 253.05 399.709 244.636C388.998 236.222 355.688 164.57 425.726 150.354C495.764 136.137 578.971 151.689 622.206 149.281Z" fill="#262222" fill-rule="nonzero" opacity="1" stroke="#000000" stroke-linecap="butt" stroke-linejoin="round" stroke-width="2.31"/>
<path d="M594.727 109.049L613.342 84.7936L635.06 95.2293L636.47 143.177L594.727 109.049Z" fill="#000002" fill-rule="nonzero" opacity="1" stroke="#000000" stroke-linecap="butt" stroke-linejoin="round" stroke-width="2.31"/>
<path d="M452.836 168.099C454.969 150.925 457.735 127.877 492.272 86.3135C517.461 55.9986 541.874 62.1586 541.874 62.1586C541.874 62.1586 579.383 71.3642 587.505 80.6387C602.889 98.2055 616.505 110.303 623.888 117.713C631.896 125.75 632.882 127.96 629.142 117.294C622.468 98.2659 626.093 91.4845 618.943 92.6273C606.864 94.5582 609.234 103.207 609.234 103.207L599.924 94.3031C599.924 94.3031 598.421 91.4719 608.301 83.6287C618.182 75.7855 627.66 79.6569 627.66 79.6569C627.66 79.6569 670.538 120.613 685.013 141.614C690.934 150.205 694.592 173.248 626.673 194.008C552.159 216.783 452.421 171.439 452.836 168.099Z" fill="#262222" fill-rule="nonzero" opacity="1" stroke="#000000" stroke-linecap="butt" stroke-linejoin="round" stroke-width="2.31"/>
<path d="M437.719 164.501C425.853 161.835 446.851 224.278 543.359 222.835C639.866 221.393 707.65 166.284 705.105 158.286C701.613 147.317 686.987 134.474 684.335 135.033C680.588 135.823 679.653 133.501 681.878 137.69C688.477 150.114 596.932 188.139 547.16 191.147C497.387 194.155 457.196 170.509 457.296 152.149C457.397 133.79 449.585 167.166 437.719 164.501Z" fill="#262222" fill-rule="nonzero" opacity="1" stroke="#000000" stroke-linecap="butt" stroke-linejoin="round" stroke-width="2.31"/>
<path d="M526.234 294.803C467.638 293.738 415.599 266.468 396.768 241.26C387.955 229.462 441.742 283.805 479.154 231.446C488.745 218.025 523.377 267.352 572.713 276.211C622.049 285.07 700.444 237.754 693.004 242.454C685.564 247.153 629.331 296.677 526.234 294.803Z" fill="#070707" fill-rule="nonzero" opacity="1" stroke="#000000" stroke-linecap="butt" stroke-linejoin="round" stroke-width="2.31"/>
</g>
<g opacity="1">
<path d="M491.059 729.225C491.059 729.225 441.941 754.532 382.674 784.453C323.407 814.374 62.5134 818.422 62.5134 818.422C62.5134 818.422 379.583 670.422 291.477 642.453C203.371 614.483 506.464 562.543 506.464 562.543L565.743 585.248L491.059 729.225Z" fill="#070707" fill-rule="nonzero" opacity="1" stroke="#000000" stroke-linecap="butt" stroke-linejoin="round" stroke-width="2.31"/>
<path d="M603.73 474.156L578.848 544.925L540.835 625.081C540.575 625.906 540.349 626.704 540.006 627.576C538.861 630.486 537.243 633.457 535.74 635.805L498.167 714.992C498.167 714.992 517.02 675.663 534.331 657.909C551.641 640.155 561.607 637.082 561.607 637.082C561.607 637.082 561.052 608.489 565.909 587.649C570.766 566.81 590.673 559.427 590.673 559.427L603.73 474.156Z" fill="#070707" fill-rule="nonzero" opacity="1" stroke="#000000" stroke-linecap="butt" stroke-linejoin="round" stroke-width="2.31"/>
<g opacity="1">
<path d="M158.286 804.097L216.888 801.43L209.962 801.431C209.962 801.431 220.317 843.788 219.934 856.33C218.952 888.479 199.453 910.719 182.775 918.325C169.544 924.359 143.509 927.283 143.509 927.283L158.286 804.097Z" fill="#000002" fill-rule="nonzero" opacity="1" stroke="#000000" stroke-linecap="butt" stroke-linejoin="round" stroke-width="2.31"/>
<path d="M261.731 815.23L233.495 869.374L245.44 905.711L167.166 900.393L205.798 848.145C205.798 848.145 196.445 807.409 196.445 807.409C196.445 807.409 209.086 791.376 219.278 792.027C237.684 793.201 265.825 804.634 265.825 804.634L261.731 815.23Z" fill="#000002" fill-rule="nonzero" opacity="1" stroke="#000000" stroke-linecap="butt" stroke-linejoin="round" stroke-width="2.31"/>
<path d="M381.601 770.216L457.258 761.495L334.667 905.72L236.291 900.225L229.764 797.068L313.937 814.939C313.937 814.939 321.484 666.494 323.055 665.159C325.912 662.73 428.578 757.06 428.578 757.06" fill="#000002" fill-rule="nonzero" opacity="1" stroke="#000000" stroke-linecap="butt" stroke-linejoin="round" stroke-width="2.31"/>
</g>
<path d="M471.299 471.124L601.185 464.268L608.545 463.731L594.528 519.945L545.369 623.913L435.686 658.856L471.299 471.124Z" fill="#324e4a" fill-rule="nonzero" opacity="1" stroke="#000000" stroke-linecap="butt" stroke-linejoin="round" stroke-width="2.31"/>
<path d="M518.51 620.506L554.022 615.27L537.35 645.755L488.631 650.279L388.08 597.506L330.841 563.098L362.104 544.474L518.51 620.506Z" fill="#262222" fill-rule="nonzero" opacity="1" stroke="#000000" stroke-linecap="butt" stroke-linejoin="round" stroke-width="2.31"/>
<path d="M597.675 457.219L602.511 472.802L591.578 529.872C591.578 529.872 599.565 490.801 603.53 491.943C607.496 493.084 621.404 521 621.404 521L612.887 467.911L597.675 457.219Z" fill="#262222" fill-rule="nonzero" opacity="1" stroke="#000000" stroke-linecap="butt" stroke-linejoin="round" stroke-width="2.31"/>
<g opacity="1">
<path d="M563.965 602.031L489.328 647.623L534.987 610.832L307.907 776.144L582.289 746.691L584.313 867.558L678.194 898.618L730.196 813.756L665.128 637.089L548.714 623.114L563.965 602.031Z" fill="#262222" fill-rule="nonzero" opacity="1" stroke="#000000" stroke-linecap="butt" stroke-linejoin="round" stroke-width="2.31"/>
<path d="M657.078 991.109L656.255 924.077C656.255 924.077 670.964 896.326 681.068 881.532C706.968 843.61 777.278 887.115 781.873 889.521C806.16 902.238 829.374 960.668 829.374 960.668L657.078 991.109Z" fill="#000002" fill-rule="nonzero" opacity="1" stroke="#000000" stroke-linecap="butt" stroke-linejoin="round" stroke-width="2.31"/>
<path d="M637.332 882.115L695.976 859.274L719.583 835.307L739.675 905.766L694.66 906.062C694.66 906.062 666.723 939.18 666.723 939.18C666.723 939.18 646.793 939.179 641.742 930.63C632.619 915.19 626.492 885.517 626.492 885.517L637.332 882.115Z" fill="#262222" fill-rule="nonzero" opacity="1" stroke="#000000" stroke-linecap="butt" stroke-linejoin="round" stroke-width="2.31"/>
</g>
<path d="M611.956 451.197L387.348 381.828C387.348 381.828 371.475 483.173 356.938 526.818C348.233 552.953 198.359 637.111 198.359 637.111C198.359 637.111 195.795 703.247 186.258 708.498C127.516 740.841 42.559 773.715 42.559 773.714C42.559 773.714 284.08 789.213 344.538 763.836C404.997 738.459 472.901 710.269 478.004 703.064C479.624 700.776 494.988 672.128 513.474 637.395C513.383 636.95 513.243 636.512 513.232 636.043C513.191 634.468 513.576 632.904 514.188 631.462C514.49 630.75 514.88 630.132 515.257 629.505C515.082 628.879 515.007 628.196 515.1 627.508C515.284 626.13 515.751 624.944 516.46 623.696C516.64 623.377 517.404 622.157 517.495 621.997C517.656 621.714 517.692 621.613 518.09 620.906C520.114 617.306 521.191 615.654 522.909 613.833C523.764 612.927 524.789 612.33 525.774 611.663C525.998 611.334 526.181 610.965 526.491 610.688C526.911 610.315 527.496 610.121 528.07 609.915C566.384 537.708 611.956 451.197 611.956 451.197Z" fill="#262222" fill-rule="nonzero" opacity="1" stroke="#000000" stroke-linecap="butt" stroke-linejoin="round" stroke-width="2.31"/>
<path d="M548.869 580.513L561.259 582.871L563.177 584.008L542.471 617.702L527.593 618.72L548.869 580.513Z" fill="#000002" fill-rule="nonzero" opacity="1" stroke="#000000" stroke-linecap="butt" stroke-linejoin="round" stroke-width="2.31"/>
<path d="M539.368 578.491C534.05 581.684 516.303 619.64 516.303 619.64C516.303 619.64 538.53 625.972 546.988 618.533C555.447 611.095 570.781 584.246 565.138 580.657C564.905 580.51 553.604 577.985 550.101 578.33C538.889 579.434 542.49 576.617 539.368 578.491ZM561.096 584.802C562.083 585.94 555.383 598.324 555.383 598.324C555.383 598.324 547.966 610.176 544.705 612.345C540.668 615.031 533.347 614.469 533.301 612.933C533.255 611.372 548.189 584.825 548.498 584.552C549.618 583.565 560.354 583.946 561.096 584.802Z" fill="#dddddd" fill-rule="nonzero" opacity="1" stroke="#000000" stroke-linecap="butt" stroke-linejoin="round" stroke-width="2.31"/>
<path d="M613.824 457.231L467.277 522.598C467.277 522.598 514.806 546.19 520.609 556.185C542.627 594.103 438.659 586.436 438.659 586.436C438.659 586.436 484.744 612.123 492.283 638.771C499.822 665.418 476.626 706.111 476.626 706.111L613.824 457.231Z" fill="#262222" fill-rule="nonzero" opacity="1" stroke="#000000" stroke-linecap="butt" stroke-linejoin="round" stroke-width="2.31"/>
<path d="M541.741 596.487L559.882 599.787L560.919 601.987L559.095 603.765L538.629 603.247L541.741 596.487Z" fill="#dddddd" fill-rule="nonzero" opacity="1" stroke="#000000" stroke-linecap="butt" stroke-linejoin="round" stroke-width="2.31"/>
<g opacity="1">
<path d="M293.265 628.611L322.112 673.589C323.509 675.768 325.209 677.735 327.162 679.433L340.284 690.84C346.219 696 354.097 698.338 361.886 697.251L374.153 695.539L404.298 691.332C404.298 691.332 393.127 605.43 387.11 594.098C381.093 582.767 293.265 628.611 293.265 628.611Z" fill="#a59595" fill-rule="nonzero" opacity="1" stroke="#000000" stroke-linecap="butt" stroke-linejoin="round" stroke-width="2.31"/>
<path d="M529.859 454.642L518.255 390.889L452.179 316.89L245.792 401.342L238.481 630.631L298.162 657.894L404.048 623.674L363.463 488.574L520.561 482.406L533.974 453.823L529.859 454.642Z" fill="#262222" fill-rule="nonzero" opacity="1" stroke="#000000" stroke-linecap="butt" stroke-linejoin="round" stroke-width="2.31"/>
</g>
<path d="M473.067 329.753L516.248 344.334L485.736 343L596.385 456.533C596.385 456.533 562.421 441.88 528.909 481.67C508.614 505.767 504.753 517.166 505.511 513.37C505.511 513.37 488.071 449.897 447.915 422.015C407.758 394.134 377.692 385.437 377.692 385.437L473.067 329.753Z" fill="#262222" fill-rule="nonzero" opacity="1" stroke="#000000" stroke-linecap="butt" stroke-linejoin="round" stroke-width="2.31"/>
</g>
<g opacity="1">
<path d="M573.468 369.578C581.928 375.673 613.367 394.105 613.367 394.105L600.534 419.954C600.534 419.954 565.008 363.483 573.468 369.578Z" fill="#070707" fill-rule="nonzero" opacity="1" stroke="#000000" stroke-linecap="butt" stroke-linejoin="round" stroke-width="2.31"/>
<path d="M527.953 340.807C526.767 340.068 525.348 341.328 525.941 342.594L550.52 395.052C550.612 395.249 550.748 395.422 550.919 395.556L598.341 433.163C599.09 433.757 600.201 433.445 600.53 432.547L613.838 396.282C613.78 394.588 603.553 387.486 603.276 389.157C603.276 389.157 601.412 413.11 600.723 411.956L583.777 375.819C583.662 375.574 583.478 375.367 583.248 375.224L527.953 340.807Z" fill="#702429" fill-rule="nonzero" opacity="1" stroke="#000000" stroke-linecap="butt" stroke-linejoin="round" stroke-width="2.31"/>
<path d="M430.316 377.129L482.537 305.336L495.721 295.167L511.297 304.488L526.653 339.867L589.113 410.488L599.252 433.544L613.796 395.768L615.449 466.833L553.292 437.281L504.494 386.716L430.316 377.129Z" fill="#c34848" fill-rule="nonzero" opacity="1" stroke="#000000" stroke-linecap="butt" stroke-linejoin="round" stroke-width="2.31"/>
<path d="M430.713 377.512L519.977 370.468L614.564 466.326L550.401 436.297L502.031 400.41L430.713 377.512Z" fill="#702429" fill-rule="nonzero" opacity="1" stroke="#000000" stroke-linecap="butt" stroke-linejoin="round" stroke-width="2.31"/>
</g>
<path d="M519.093 255.625C519.093 255.625 517.68 248.766 508.985 247.354C495.696 245.196 480.673 257.425 482.927 274.768C486.655 303.461 514.669 311.927 514.669 311.927L519.093 255.625Z" fill="#a59595" fill-rule="nonzero" opacity="1" stroke="#000000" stroke-linecap="butt" stroke-linejoin="round" stroke-width="2.31"/>
</g>
</svg>
