<?xml version="1.0" encoding="UTF-8" standalone="no"?>
<!DOCTYPE svg PUBLIC "-//W3C//DTD SVG 1.1//EN" "http://www.w3.org/Graphics/SVG/1.1/DTD/svg11.dtd">
<!-- Created with Vectornator (http://vectornator.io/) -->
<svg height="100%" stroke-miterlimit="10" style="fill-rule:nonzero;clip-rule:evenodd;stroke-linecap:round;stroke-linejoin:round;" version="1.1" viewBox="42.9118 81.5982 712.09 938.067" width="100%" xml:space="preserve" xmlns="http://www.w3.org/2000/svg" xmlns:xlink="http://www.w3.org/1999/xlink">
<defs/>
<g id="SideWalk1">
<g opacity="1">
<path d="M659.655 158.364C608.305 164.43 590.078 118.493 497.895 141.828C428.021 174.882 431.994 308.794 503.252 344.275C515.721 360.472 544.689 394.461 544.689 394.461L660.967 433.257C660.967 433.257 684.443 405.768 696.129 372.576C700.885 359.069 703.688 344.617 702.162 330.689C698.155 294.101 712.709 274.347 707.547 264.513C692.931 236.663 723.649 150.805 659.655 158.364Z" fill="#a59595" fill-rule="nonzero" opacity="1" stroke="#000000" stroke-linecap="butt" stroke-linejoin="round" stroke-width="2.31"/>
<path d="M642.451 427.027L644.892 404.743L660.515 431.879L663.995 417.513L668.325 423.943L660.266 432.292L642.451 427.027Z" fill="#000002" fill-rule="nonzero" opacity="1" stroke="#000000" stroke-linecap="butt" stroke-linejoin="round" stroke-width="2.31"/>
<path d="M674.524 335.864C676.315 327.917 683.53 322.773 690.638 324.375C697.747 325.977 702.058 333.718 700.267 341.665C698.477 349.613 691.262 354.757 684.153 353.155C677.044 351.553 672.733 343.812 674.524 335.864Z" fill="#c8c5c5" fill-rule="nonzero" opacity="1" stroke="#c8c5c5" stroke-linecap="butt" stroke-linejoin="round" stroke-width="2.31"/>
<path d="M685.501 396.393L667.216 392.177" fill="#000002" fill-rule="nonzero" opacity="1" stroke="#000000" stroke-linecap="butt" stroke-linejoin="round" stroke-width="2.31"/>
<path d="M565.047 269.789C571.764 263.35 545.922 312.875 544.013 342.854C543.305 353.975 601.092 413.062 601.092 413.062C601.092 413.062 529.649 390.159 529.568 390.173C526.234 390.744 512.444 372.43 504.03 360.507C499.146 353.587 440.742 341.022 421.359 304.804C401.975 268.585 425 208.026 425 208.026L536.621 192.324L565.047 269.789Z" fill="#5e5656" fill-rule="nonzero" opacity="1" stroke="#000000" stroke-linecap="butt" stroke-linejoin="round" stroke-width="2.31"/>
</g>
<g opacity="1">
<path d="M526.565 278.831C526.565 278.831 585.434 334.035 629.28 349.467C677.614 366.479 706.416 326.766 706.416 326.766L710.491 257.985L687.227 242.653L526.565 278.831Z" fill="#070707" fill-rule="nonzero" opacity="1" stroke="#000000" stroke-linecap="butt" stroke-linejoin="round" stroke-width="2.31"/>
<path d="M700.421 298.637C700.421 298.637 689.492 337.683 666.487 329.652C643.481 321.621 636.512 280.064 636.512 280.064L700.421 298.637Z" fill="#ffffff" fill-rule="nonzero" opacity="0" stroke="#000000" stroke-linecap="butt" stroke-linejoin="round" stroke-width="2.31"/>
</g>
<g opacity="1">
<path d="M475.983 680.627L529.051 686.872C531.621 687.174 534.22 687.108 536.772 686.676L553.914 683.772C561.668 682.459 568.474 677.853 572.577 671.143L579.037 660.576L594.913 634.608C594.913 634.608 521.431 588.735 508.855 586.195C496.278 583.656 475.983 680.627 475.983 680.627Z" fill="#000000" fill-rule="nonzero" opacity="1" stroke="#000000" stroke-linecap="butt" stroke-linejoin="round" stroke-width="2.31"/>
<path d="M496.969 347.945L471.209 370.06L447.015 372.429L321.232 538.02L413.382 671.504L496.573 684.167L572.073 589.06L484.881 528.072L607.764 451.366L496.969 347.945Z" fill="#000000" fill-rule="nonzero" opacity="1" stroke="#000000" stroke-linecap="butt" stroke-linejoin="round" stroke-width="2.31"/>
</g>
<g opacity="1">
<path d="M623.714 170.39C666.949 167.982 718.03 154.28 739.272 147C760.515 139.719 761.914 206.197 720.562 244.396C679.209 282.595 600.234 300.857 600.234 300.857C600.234 300.857 545.391 326.796 481.223 308.395C417.054 289.995 411.929 274.16 401.217 265.745C390.506 257.331 357.195 185.679 427.234 171.463C497.272 157.246 580.479 172.798 623.714 170.39Z" fill="#262222" fill-rule="nonzero" opacity="1" stroke="#000000" stroke-linecap="butt" stroke-linejoin="round" stroke-width="2.31"/>
<path d="M596.235 130.158L614.85 105.903L636.568 116.338L637.978 164.286L596.235 130.158Z" fill="#000002" fill-rule="nonzero" opacity="1" stroke="#000000" stroke-linecap="butt" stroke-linejoin="round" stroke-width="2.31"/>
<path d="M454.344 189.208C456.477 172.034 459.243 148.986 493.779 107.422C518.969 77.1076 543.382 83.2676 543.382 83.2676C543.382 83.2676 580.891 92.4733 589.013 101.748C604.397 119.315 618.012 131.412 625.396 138.822C633.404 146.859 634.39 149.069 630.649 138.403C623.976 119.375 627.601 112.594 620.451 113.736C608.372 115.667 610.742 124.316 610.742 124.316L601.432 115.412C601.432 115.412 599.929 112.581 609.809 104.738C619.69 96.8945 629.168 100.766 629.168 100.766C629.168 100.766 672.045 141.722 686.521 162.723C692.442 171.314 696.1 194.357 628.181 215.117C553.667 237.892 453.929 192.548 454.344 189.208Z" fill="#262222" fill-rule="nonzero" opacity="1" stroke="#000000" stroke-linecap="butt" stroke-linejoin="round" stroke-width="2.31"/>
<path d="M439.227 185.61C427.36 182.944 448.359 245.387 544.866 243.944C641.374 242.502 709.158 187.393 706.613 179.395C703.121 168.426 688.495 155.583 685.843 156.142C682.095 156.932 681.161 154.61 683.386 158.799C689.985 171.223 598.44 209.248 548.667 212.256C498.894 215.264 458.703 191.618 458.804 173.258C458.905 154.899 451.093 188.275 439.227 185.61Z" fill="#262222" fill-rule="nonzero" opacity="1" stroke="#000000" stroke-linecap="butt" stroke-linejoin="round" stroke-width="2.31"/>
<path d="M527.741 315.912C469.146 314.847 417.107 287.577 398.276 262.369C389.463 250.571 443.25 304.914 480.662 252.555C490.252 239.134 524.885 288.461 574.221 297.32C623.557 306.179 701.951 258.863 694.511 263.563C687.071 268.262 630.839 317.786 527.741 315.912Z" fill="#070707" fill-rule="nonzero" opacity="1" stroke="#000000" stroke-linecap="butt" stroke-linejoin="round" stroke-width="2.31"/>
</g>
<g opacity="1">
<path d="M490.565 767.006C490.565 767.006 460.942 777.451 401.675 807.372C342.408 837.292 115.295 873.914 115.295 873.914C115.295 873.914 381.091 691.531 292.985 663.562C204.879 635.592 507.972 583.652 507.972 583.652L567.251 606.357L490.565 767.006Z" fill="#070707" fill-rule="nonzero" opacity="1" stroke="#000000" stroke-linecap="butt" stroke-linejoin="round" stroke-width="2.31"/>
<path d="M605.237 495.265L580.356 566.034L542.343 646.19C542.083 647.015 541.857 647.813 541.514 648.685C540.368 651.595 538.75 654.566 537.248 656.914L499.674 736.102C499.674 736.102 518.528 696.772 535.839 679.018C553.149 661.264 563.115 658.191 563.115 658.191C563.115 658.191 562.559 629.598 567.417 608.759C572.274 587.919 592.181 580.536 592.181 580.536L605.237 495.265Z" fill="#070707" fill-rule="nonzero" opacity="1" stroke="#000000" stroke-linecap="butt" stroke-linejoin="round" stroke-width="2.31"/>
<g opacity="1">
<path d="M631.906 915.048L608.378 865.88C608.378 865.88 640.887 840.912 651.636 837.34C679.188 828.186 702.63 850.821 714.501 866.88C723.918 879.618 723.815 903.678 723.815 903.678L631.906 915.048Z" fill="#000002" fill-rule="nonzero" opacity="1" stroke="#000000" stroke-linecap="butt" stroke-linejoin="round" stroke-width="2.31"/>
<path d="M592.69 801.85L653.636 805.654L681.986 779.976L708.927 853.66L645.49 839.587C645.49 839.587 612.068 864.682 612.068 864.682C612.068 864.682 592.282 859.646 588.736 850.069C582.331 832.772 581.345 802.414 581.345 802.414L592.69 801.85Z" fill="#000002" fill-rule="nonzero" opacity="1" stroke="#000000" stroke-linecap="butt" stroke-linejoin="round" stroke-width="2.31"/>
<path d="M519.492 698.121L482.02 632.018L647.656 670.75L683.839 821.657L615.061 856.896L572.267 760.345C572.267 760.345 441.95 795.096 440.253 794.135C437.167 792.389 490.061 659.842 490.061 659.842" fill="#000002" fill-rule="nonzero" opacity="1" stroke="#000000" stroke-linecap="butt" stroke-linejoin="round" stroke-width="2.31"/>
</g>
<path d="M472.807 492.233L602.693 485.377L610.053 484.84L596.036 541.054L546.877 645.022L437.194 679.965L472.807 492.233Z" fill="#324e4a" fill-rule="nonzero" opacity="1" stroke="#000000" stroke-linecap="butt" stroke-linejoin="round" stroke-width="2.31"/>
<path d="M516.203 640.12L555.53 636.379L538.319 666.653L484.249 669.08L369.878 610.89L304.577 573.323L338.572 555.77L516.203 640.12Z" fill="#262222" fill-rule="nonzero" opacity="1" stroke="#000000" stroke-linecap="butt" stroke-linejoin="round" stroke-width="2.31"/>
<path d="M599.183 478.328L604.019 493.911L593.085 550.981C593.085 550.981 601.073 511.91 605.038 513.052C609.004 514.194 622.912 542.109 622.912 542.109L614.395 489.02L599.183 478.328Z" fill="#262222" fill-rule="nonzero" opacity="1" stroke="#000000" stroke-linecap="butt" stroke-linejoin="round" stroke-width="2.31"/>
<g opacity="1">
<path d="M542.848 704.224L488.369 736.301L558.868 656.576L379.048 690.582L248.985 817.013L290.874 895.583L411.107 876.027L469.435 766.697L542.848 704.224Z" fill="#262222" fill-rule="nonzero" opacity="1" stroke="#000000" stroke-linecap="butt" stroke-linejoin="round" stroke-width="2.31"/>
<path d="M230.947 918.696L268.833 878.774C268.833 878.774 294.035 880.526 310.578 885.41C352.986 897.931 353.86 922.8 353.207 951.061C353.072 956.898 375.405 975.987 377.073 980.285C381.809 992.494 377.572 1018.51 377.572 1018.51L315.646 1015.88L277.638 964.279L230.947 918.696Z" fill="#000002" fill-rule="nonzero" opacity="1" stroke="#000000" stroke-linecap="butt" stroke-linejoin="round" stroke-width="2.31"/>
<path d="M305.043 828.75L357.396 873.997L392.969 884.777L355.12 945.517L310.805 896.271C310.805 896.271 264.042 885.906 264.042 885.906C264.042 885.906 253.869 866.622 259.68 857.433C270.177 840.836 296.171 819.974 296.171 819.974L305.043 828.75Z" fill="#262222" fill-rule="nonzero" opacity="1" stroke="#000000" stroke-linecap="butt" stroke-linejoin="round" stroke-width="2.31"/>
</g>
<path d="M611.376 477.633L431.093 419.162C431.093 419.162 348.702 545.521 327.326 554.161C313.956 559.565 325.779 571.649 311.431 614.813C302.84 640.659 194.283 657.741 194.283 657.741C194.283 657.741 193.764 718.451 184.262 723.614C125.731 755.416 44.0668 794.824 44.0668 794.823C44.0668 794.823 288.951 824.848 349.222 799.949C409.493 775.051 473.521 733.644 478.588 726.529C480.197 724.27 495.429 695.96 513.754 661.636C513.661 661.196 513.521 660.761 513.507 660.297C513.461 658.737 513.839 657.19 514.444 655.764C514.743 655.06 515.13 654.45 515.504 653.83C515.327 653.209 515.25 652.534 515.34 651.853C515.519 650.489 515.981 649.316 516.683 648.083C516.862 647.768 517.62 646.563 517.71 646.404C517.869 646.124 517.906 646.025 518.3 645.326C520.307 641.769 521.377 640.138 523.085 638.341C523.935 637.447 524.956 636.86 525.937 636.203C526.16 635.877 526.34 635.513 526.65 635.24C527.067 634.872 527.65 634.682 528.223 634.481C566.204 563.125 611.376 477.633 611.376 477.633Z" fill="#262222" fill-rule="nonzero" opacity="1" stroke="#000000" stroke-linecap="butt" stroke-linejoin="round" stroke-width="2.31"/>
<path d="M550.376 601.622L562.767 603.98L564.684 605.117L543.979 638.811L529.101 639.829L550.376 601.622Z" fill="#000002" fill-rule="nonzero" opacity="1" stroke="#000000" stroke-linecap="butt" stroke-linejoin="round" stroke-width="2.31"/>
<path d="M540.876 599.6C535.558 602.793 517.81 640.749 517.81 640.749C517.81 640.749 540.038 647.081 548.496 639.642C556.955 632.204 572.289 605.355 566.645 601.766C566.413 601.619 555.112 599.094 551.608 599.439C540.397 600.543 543.997 597.726 540.876 599.6ZM562.604 605.911C563.591 607.049 556.891 619.433 556.891 619.433C556.891 619.433 549.474 631.285 546.213 633.454C542.176 636.14 534.854 635.578 534.809 634.042C534.763 632.481 549.697 605.934 550.006 605.661C551.126 604.674 561.862 605.055 562.604 605.911Z" fill="#dddddd" fill-rule="nonzero" opacity="1" stroke="#000000" stroke-linecap="butt" stroke-linejoin="round" stroke-width="2.31"/>
<path d="M615.332 478.34L468.785 543.707C468.785 543.707 516.313 567.299 522.117 577.294C544.135 615.212 440.167 607.545 440.167 607.545C440.167 607.545 486.252 633.232 493.791 659.88C501.33 686.527 478.133 727.22 478.133 727.22L615.332 478.34Z" fill="#262222" fill-rule="nonzero" opacity="1" stroke="#000000" stroke-linecap="butt" stroke-linejoin="round" stroke-width="2.31"/>
<path d="M543.249 617.596L561.39 620.896L562.426 623.096L560.603 624.874L540.137 624.356L543.249 617.596Z" fill="#dddddd" fill-rule="nonzero" opacity="1" stroke="#000000" stroke-linecap="butt" stroke-linejoin="round" stroke-width="2.31"/>
<g opacity="1">
<path d="M466.001 682.789L518.851 674.907C521.41 674.526 523.902 673.781 526.251 672.695L542.033 665.4C549.172 662.101 554.533 655.872 556.734 648.322L560.199 636.43L568.714 607.209C568.714 607.209 485.779 582.197 472.976 583.043C460.174 583.888 466.001 682.789 466.001 682.789Z" fill="#a59595" fill-rule="nonzero" opacity="1" stroke="#000000" stroke-linecap="butt" stroke-linejoin="round" stroke-width="2.31"/>
<path d="M399.984 365.408L380.003 384.328L357.275 392.955L279.286 585.722L403.198 690.39L486.799 680.809L534.736 569.24L434.608 533.234L533.094 427.005L479.866 349.539L399.984 365.408Z" fill="#262222" fill-rule="nonzero" opacity="1" stroke="#000000" stroke-linecap="butt" stroke-linejoin="round" stroke-width="2.31"/>
</g>
<path d="M474.575 350.862L517.756 365.443L487.244 364.109L597.893 477.642C597.893 477.642 563.929 462.989 530.417 502.78C510.122 526.876 506.261 538.275 507.019 534.479C507.019 534.479 489.579 471.006 449.422 443.124C409.266 415.243 379.2 406.546 379.2 406.546L474.575 350.862Z" fill="#262222" fill-rule="nonzero" opacity="1" stroke="#000000" stroke-linecap="butt" stroke-linejoin="round" stroke-width="2.31"/>
</g>
<g opacity="1">
<path d="M575.612 396.661C584.072 402.756 615.511 421.188 615.511 421.188L602.677 447.037C602.677 447.037 567.152 390.566 575.612 396.661Z" fill="#070707" fill-rule="nonzero" opacity="1" stroke="#000000" stroke-linecap="butt" stroke-linejoin="round" stroke-width="2.31"/>
<path d="M530.097 367.89C528.911 367.152 527.492 368.412 528.085 369.677L552.664 422.136C552.756 422.332 552.892 422.505 553.062 422.64L600.485 460.247C601.234 460.841 602.345 460.528 602.674 459.63L615.982 423.365C615.924 421.672 605.697 414.569 605.42 416.24C605.42 416.24 603.556 440.193 602.867 439.039L585.921 402.903C585.806 402.657 585.622 402.45 585.392 402.307L530.097 367.89Z" fill="#702429" fill-rule="nonzero" opacity="1" stroke="#000000" stroke-linecap="butt" stroke-linejoin="round" stroke-width="2.31"/>
<path d="M432.46 404.213L484.681 332.419L497.865 322.25L513.441 331.572L528.797 366.95L591.257 437.572L601.396 460.627L615.94 422.851L617.592 493.916L555.436 464.364L506.637 413.799L432.46 404.213Z" fill="#c34848" fill-rule="nonzero" opacity="1" stroke="#000000" stroke-linecap="butt" stroke-linejoin="round" stroke-width="2.31"/>
<path d="M432.857 404.596L522.12 397.551L616.707 493.409L552.545 463.381L504.175 427.493L432.857 404.596Z" fill="#702429" fill-rule="nonzero" opacity="1" stroke="#000000" stroke-linecap="butt" stroke-linejoin="round" stroke-width="2.31"/>
</g>
<path d="M521.237 282.708C521.237 282.708 519.824 275.849 511.129 274.437C497.84 272.28 482.817 284.508 485.071 301.852C488.799 330.545 516.813 339.01 516.813 339.01L521.237 282.708Z" fill="#a59595" fill-rule="nonzero" opacity="1" stroke="#000000" stroke-linecap="butt" stroke-linejoin="round" stroke-width="2.31"/>
</g>
</svg>
