<?xml version="1.0" encoding="UTF-8" standalone="no"?>
<!DOCTYPE svg PUBLIC "-//W3C//DTD SVG 1.1//EN" "http://www.w3.org/Graphics/SVG/1.1/DTD/svg11.dtd">
<!-- Created with Vectornator (http://vectornator.io/) -->
<svg height="100%" stroke-miterlimit="10" style="fill-rule:nonzero;clip-rule:evenodd;stroke-linecap:round;stroke-linejoin:round;" version="1.1" viewBox="216.653 63.4765 590.59 879.564" width="100%" xml:space="preserve" xmlns="http://www.w3.org/2000/svg" xmlns:xlink="http://www.w3.org/1999/xlink">
<defs/>
<g id="Walk3">
<g opacity="1">
<g opacity="1">
<path d="M367.617 388.856L494.623 355.121L585.945 389.591L503.832 474.531L376.028 421.231L367.617 388.856Z" fill="#171717" fill-rule="nonzero" opacity="1" stroke="#000000" stroke-linecap="butt" stroke-linejoin="round" stroke-width="2.31"/>
<path d="M620.618 666.845L335.492 700.312L286.155 807.71L469.682 766.755L676.836 871.272L620.618 666.845Z" fill="#171717" fill-rule="nonzero" opacity="1" stroke="#000000" stroke-linecap="round" stroke-linejoin="round" stroke-width="2.31"/>
<path d="M345.26 436.382L610.724 436.382L610.724 647.361L345.26 647.361L345.26 436.382Z" fill="#324e4a" fill-rule="nonzero" opacity="1" stroke="#000000" stroke-linecap="round" stroke-linejoin="round" stroke-width="2.31"/>
<path d="M500.552 835.052C500.471 835.015 500.4 834.96 500.344 834.89L473.154 801.1C473.066 800.991 473.021 800.854 473.027 800.714L474.888 756.649L476.351 708.672C476.351 708.672 470.259 706.844 470.687 707.445C471.116 708.046 476.264 708.672 476.264 708.672L467.928 766.754C467.926 766.773 467.924 766.792 467.923 766.812L466.364 804.08C466.356 804.276 466.249 804.455 466.079 804.554L415.267 834.279C415.098 834.378 414.89 834.384 414.715 834.295L351.519 802.163C351.234 802.018 351.121 801.669 351.267 801.385L430.775 647.007C430.874 646.816 431.071 646.695 431.286 646.694L546.608 646.316C546.847 646.315 547.062 646.462 547.148 646.685L615.405 823.276C615.498 823.518 615.419 823.792 615.211 823.947L562.396 863.186C562.227 863.311 562.003 863.335 561.811 863.247L500.552 835.052Z" fill="#262222" fill-rule="nonzero" opacity="1" stroke="#000000" stroke-linecap="round" stroke-linejoin="round" stroke-width="2.31"/>
<path d="M415.743 653.813C424.192 655.816 443.423 663.825 476.6 663.405C497.582 663.139 540.842 660.525 537.434 647.643" fill="#262222" fill-rule="nonzero" opacity="1" stroke="#000000" stroke-linecap="round" stroke-linejoin="round" stroke-width="2.31"/>
<path d="M614.114 806.087L568.611 848.407L478.623 811.341L462.591 873.681L527.523 913.128C527.523 913.128 595.271 903.22 607.328 895.096C619.384 886.971 649.795 849.821 649.795 849.821L614.114 806.087Z" fill="#262222" fill-rule="nonzero" opacity="1" stroke="#000000" stroke-linecap="round" stroke-linejoin="round" stroke-width="2.31"/>
<g opacity="1">
<path d="M631.009 899.64C625.774 862.805 599.385 843.214 549.961 843.214C500.537 843.214 489.738 859.949 477.526 891.819C472.774 904.219 471.207 931.764 478.569 934.934C494.316 941.715 617.649 946.264 629.223 935.245C634.591 930.134 632.614 910.932 631.009 899.64Z" fill="#000000" fill-rule="nonzero" opacity="1" stroke="#000000" stroke-linecap="round" stroke-linejoin="round" stroke-width="2.31"/>
<path d="M452.951 890.674C449.381 862.2 435.98 835.422 402.275 835.422C368.57 835.422 353.25 856.266 344.922 880.902C341.682 890.488 367.114 929.028 397.119 927.364C426.737 925.722 454.046 899.403 452.951 890.674Z" fill="#000000" fill-rule="nonzero" opacity="1" stroke="#000000" stroke-linecap="round" stroke-linejoin="round" stroke-width="2.31"/>
</g>
<path d="M362.755 785.643L418.602 832.024L460.876 799.771L466.645 826.53L455.639 835.388L459.969 855.962L389.691 848.464C389.691 848.464 353.88 859.239 343.208 853.323C332.536 847.407 319.255 815.504 319.255 815.504L362.755 785.643Z" fill="#262222" fill-rule="nonzero" opacity="1" stroke="#000000" stroke-linecap="round" stroke-linejoin="round" stroke-width="2.31"/>
<path d="M418.347 601.785C418.347 601.785 429.577 620.642 468.983 623.801C508.39 626.961 555.508 605.218 555.508 605.218L540.111 654.952C540.111 654.952 510.457 662.234 485.22 662.644C459.983 663.053 432.359 659.028 432.359 659.028L418.347 601.785Z" fill="#070707" fill-rule="nonzero" opacity="1" stroke="#000000" stroke-linecap="round" stroke-linejoin="round" stroke-width="2.31"/>
<g opacity="1">
<path d="M458.877 642.333C465.966 643.034 508.71 641.377 508.71 641.377L507.443 647.921L457.414 647.423C457.414 647.423 451.788 641.633 458.877 642.333Z" fill="#d2d2d2" fill-rule="nonzero" opacity="1" stroke="#000000" stroke-linecap="butt" stroke-linejoin="round" stroke-width="2.31"/>
<path d="M450.671 620.776L512.325 618.736L508.435 658.257L457.535 659.945L458.922 656.029L458.693 652.961L502.863 653.506L504.724 631.452L457.999 632.378L458.081 660.383C458.081 660.383 451.384 664.225 450.916 654.295C450.447 644.365 450.671 620.776 450.671 620.776Z" fill="#d2d2d2" fill-rule="nonzero" opacity="1" stroke="#000000" stroke-linecap="butt" stroke-linejoin="round" stroke-width="2.31"/>
</g>
</g>
<path d="M217.808 670.664C217.808 670.664 229.363 679.676 235.264 691.469C241.165 703.261 245.173 712.083 245.173 712.083L282.316 707.73C282.316 707.73 309.419 702.643 306.266 709.083C300.052 721.772 280.509 596.356 280.509 596.356C280.509 596.356 271.937 626.544 253.256 638.181C234.576 649.818 217.808 670.664 217.808 670.664Z" fill="#a59595" fill-rule="nonzero" opacity="1" stroke="#000000" stroke-linecap="round" stroke-linejoin="round" stroke-width="2.31"/>
<path d="M373.101 372.079C334.026 420.6 333.927 403.993 333.927 403.993C333.927 403.993 326.519 440.365 307.162 491.035C287.805 541.705 236.588 619.464 236.588 619.464C236.588 619.464 254.424 644.344 264.81 668.243C273.59 688.446 277.967 711.188 277.967 711.188L306.192 711.744C306.192 711.744 359.085 621.421 377.03 549.55C403.726 442.628 396.47 343.062 373.101 372.079Z" fill="#262222" fill-rule="nonzero" opacity="1" stroke="#000000" stroke-linecap="butt" stroke-linejoin="round" stroke-width="2.31"/>
<path d="M490.057 442.257C490.057 442.257 507.522 629.622 550.299 732.463C566.524 771.47 596.012 803.707 615.497 820.648C717.91 909.694 691.549 871.985 691.549 871.985C691.549 871.985 658.038 824.449 710.812 802.326C733.511 792.811 703.639 809.706 686.36 779.303C663.511 739.102 645.997 647.448 636.822 610.465C609.908 501.98 636.616 418.647 636.616 418.647C636.012 421.848 554.415 403.814 554.415 403.814L484.206 423.019L490.057 442.257Z" fill="#262222" fill-rule="nonzero" opacity="1" stroke="#000000" stroke-linecap="round" stroke-linejoin="round" stroke-width="2.31"/>
<path d="M475.854 443.152C475.854 443.152 448.46 530.459 428.979 639.662C423.313 671.419 400.689 729.912 381.816 747.486C321.212 803.915 261.499 819.513 261.499 819.513C261.499 819.513 293.031 788.996 315.843 724.751C338.655 660.506 352.747 596.104 352.747 560.76C352.747 495.128 334.375 404.68 334.375 404.68C334.375 404.68 362.697 391.026 382.059 363.255C401.421 335.484 481.704 423.914 481.704 423.914L475.854 443.152Z" fill="#262222" fill-rule="nonzero" opacity="1" stroke="#000000" stroke-linecap="round" stroke-linejoin="round" stroke-width="2.31"/>
<path d="M697.838 713.282C700.789 727.227 664.203 803.083 664.203 803.083C664.203 803.083 610.95 792.56 605.267 801.137C601.512 806.805 611.468 775.783 600.927 757.294C596.674 749.835 575.878 760.581 574.428 752.154C573.824 748.646 595.654 724.188 595.13 721.196C593.521 712.021 593.667 712.306 593.667 712.306L697.838 713.282Z" fill="#a59595" fill-rule="nonzero" opacity="1" stroke="#000000" stroke-linecap="round" stroke-linejoin="round" stroke-width="2.31"/>
<path d="M578.152 383.946C560.168 353.514 607.62 391.846 642.791 412.836C667.958 427.856 701.797 425.72 701.797 425.72C701.797 425.72 705.006 503.926 710.407 580.759C715.808 657.593 724.509 733.409 724.509 733.409C724.509 733.409 711.238 713.23 676.95 738.636C642.663 764.041 642.271 768.93 642.271 768.93C642.271 768.93 613.82 713.387 556.624 709.682C548.858 709.179 556.624 708.717 556.624 708.717C556.624 708.717 646.967 500.388 578.152 383.946Z" fill="#262222" fill-rule="nonzero" opacity="1" stroke="#000000" stroke-linecap="butt" stroke-linejoin="round" stroke-width="2.31"/>
<path d="M466.64 445.34L577.098 542.601C577.098 542.601 541.139 571.217 534.752 587.06C528.364 602.902 571.927 614.152 571.927 614.152C571.927 614.152 563.687 626.759 556.624 654.234C551.953 672.403 547.154 703.311 547.894 719.033C549.755 758.53 466.64 445.34 466.64 445.34Z" fill="#262222" fill-rule="nonzero" opacity="1" stroke="#000000" stroke-linecap="butt" stroke-linejoin="round" stroke-width="2.31"/>
<path d="M483.49 451.77L386.297 528.715C386.297 528.715 418.672 549.2 424.849 564.858C431.026 580.515 400.116 611.465 400.116 611.465C400.116 611.465 421.052 635.28 411.189 694.101C401.327 752.923 483.49 451.77 483.49 451.77Z" fill="#262222" fill-rule="nonzero" opacity="1" stroke="#000000" stroke-linecap="butt" stroke-linejoin="round" stroke-width="2.31"/>
<path d="M675.911 431.705C655.315 421.417 600.428 384.13 600.428 384.13C600.428 384.13 538.676 420.925 506.862 436.311C514.871 436.375 512.35 434.658 530.05 457.61C544.554 476.415 535.666 536.528 539.368 567.916C581.04 510.844 654.19 446.546 675.911 431.705Z" fill="#262222" fill-rule="nonzero" opacity="1" stroke="#000000" stroke-linecap="round" stroke-linejoin="round" stroke-width="2.31"/>
<path d="M352.747 383.912C372.437 376.748 387.538 355.833 387.538 355.833C387.538 355.833 439.003 479.39 470.251 494.775C462.384 494.839 423.299 441.728 398.161 456.501C374.842 470.204 352.747 493.536 319.923 492.784C339.43 460.373 359.656 410.424 352.747 383.912Z" fill="#262222" fill-rule="nonzero" opacity="1" stroke="#000000" stroke-linecap="round" stroke-linejoin="round" stroke-width="2.31"/>
</g>
<g opacity="1">
<path d="M469.234 385L536.047 379.23L506.211 466.548L469.234 385Z" fill="#000000" fill-rule="nonzero" opacity="1" stroke="#000000" stroke-linecap="butt" stroke-linejoin="round" stroke-width="2.31"/>
<path d="M392.057 358.278L337.822 445.022L432.522 443.268L511.006 543.063L605.681 378.353L586.824 357.404L505.412 444.849L392.057 358.278Z" fill="#c34848" fill-rule="nonzero" opacity="1" stroke="#000000" stroke-linecap="butt" stroke-linejoin="round" stroke-width="2.31"/>
<path d="M338.465 445.331L432.937 442.409L510.852 542.725L424 469.868L338.465 445.331Z" fill="#702429" fill-rule="nonzero" opacity="1" stroke="#000000" stroke-linecap="butt" stroke-linejoin="round" stroke-width="2.31"/>
<path d="M476.115 389.167C476.115 389.167 453.708 387.136 432.886 379.35C412.065 371.564 392.829 358.022 392.829 358.022L505.048 444.654L583.573 362.941C583.573 362.941 564.347 373.256 550.924 378.917C537.502 384.579 529.884 385.587 529.884 385.587L504.693 443.857L476.115 389.167Z" fill="#702429" fill-rule="nonzero" opacity="1" stroke="#000000" stroke-linecap="butt" stroke-linejoin="round" stroke-width="2.31"/>
</g>
<g opacity="1">
<path d="M353.403 319.14C353.403 319.14 380.305 361.427 431.229 378.309C482.152 395.191 521.941 396.24 585.294 366.517C648.646 336.794 646.995 257.312 646.995 257.312L353.403 319.14Z" fill="#a59595" fill-rule="nonzero" opacity="1" stroke="#000000" stroke-linecap="round" stroke-linejoin="round" stroke-width="2.31"/>
<path d="M457.064 384.738C454.373 381.431 451.659 371.058 451.659 371.058L477.361 387.372L475.596 379.555L484.972 387.881L480.45 372.163L485.855 378.62L487.289 374.287L500.218 387.148L499.74 377.543L505.912 386.352L504.604 377.537L512.488 386.312L507.956 370.877L515.518 385.35L513.914 368.759L529.742 375.213L529.383 370.524L539.343 382.54C539.343 382.54 535.893 386.172 507.122 389.004C478.35 391.835 459.755 388.044 457.064 384.738Z" fill="#000000" fill-rule="nonzero" opacity="1" stroke="#000000" stroke-linecap="round" stroke-linejoin="round" stroke-width="2.31"/>
</g>
<path d="M351.852 316.888C349.629 319.478 356.23 334.969 376.744 345.441C398.578 356.586 435.808 362.762 482.475 366.197C534.754 370.045 596.059 352.665 628 326.987C651.36 308.207 653.221 279.313 653.221 279.313C653.221 279.313 356.917 311.693 351.852 316.888Z" fill="#000000" fill-rule="nonzero" opacity="1" stroke="#000000" stroke-linecap="butt" stroke-linejoin="round" stroke-width="2.31"/>
<g opacity="1">
<path d="M317.525 174.629C317.525 174.629 302.76 168.557 286.145 175.022C211.029 204.251 239.716 275.446 295.118 304.466C350.521 333.487 418.849 354.074 506.753 348.284C594.656 342.494 685.201 294.191 721.137 239.858C740.672 210.324 735.604 172.795 729.179 148.292C723.784 127.72 708.105 117.746 708.105 117.746C708.105 117.746 668.382 123.491 650.248 134.255C632.115 145.018 317.525 174.629 317.525 174.629Z" fill="#262222" fill-rule="nonzero" opacity="1" stroke="#000000" stroke-linecap="butt" stroke-linejoin="round" stroke-width="2.31"/>
<path d="M509.132 124.513L566.959 89.5551L599.957 166.985C599.957 166.985 568.593 192.468 566.633 191.815C564.672 191.161 503.905 171.232 503.905 171.232L506.192 124.84L509.786 127.126" fill="#000000" fill-rule="nonzero" opacity="1" stroke="#000000" stroke-linecap="butt" stroke-linejoin="round" stroke-width="2.31"/>
<path d="M462.341 64.7793C388.76 69.1705 339.778 145.852 339.778 145.852C339.778 145.852 321.941 181.471 336.801 207.121C342.171 216.39 376.643 210.067 382.782 220.426C410.685 267.509 440.765 265.514 448.912 266.354C463.81 267.89 656.959 181.73 656.959 181.73C656.959 181.73 660.991 170.457 645.855 129.104C630.718 87.7503 595.844 71.293 595.844 71.293C595.844 71.293 590.939 69.8564 588.241 69.4603C554.192 64.4603 532.45 85.6891 526.748 99.9664C516.979 124.429 505.802 113.111 505.802 113.111C505.802 113.111 521.575 147.227 539.731 130.885C555.396 116.787 563.331 110.401 567.975 114.862C570.021 116.827 573.115 117.047 571.281 124.434C565.285 148.591 578.172 174.298 578.172 174.298C578.172 174.298 532.418 160.792 509.406 121.138C499.44 103.965 490.395 83.7606 483.142 76.5553C476.226 69.6845 469.22 64.6519 469.22 64.6519C469.22 64.6519 466.08 64.5562 462.341 64.7793Z" fill="#262222" fill-rule="nonzero" opacity="1" stroke="#000000" stroke-linecap="butt" stroke-linejoin="round" stroke-width="2.31"/>
<path d="M339.312 153.788C339.312 153.788 329.71 158.707 324.321 165.317C318.931 171.927 316.482 179.983 316.482 179.983C316.482 179.983 313.136 254.286 428.562 280.833C462.116 288.55 554.561 268 600.642 243.807C647.357 219.28 668.034 191.701 668.034 191.701C668.034 191.701 669.653 172.306 666.151 161.068C664.043 154.306 651.031 136.378 651.031 136.378L651.277 143.541C651.277 143.541 644.768 153.642 616.79 171.261C574.666 197.789 482.842 232.478 417.856 224.567C321.302 212.814 334.363 165.881 336.57 160.918C340.022 153.154 339.312 153.788 339.312 153.788Z" fill="#262222" fill-rule="nonzero" opacity="1" stroke="#000000" stroke-linecap="butt" stroke-linejoin="round" stroke-width="2.31"/>
<path d="M651.622 135.666C651.622 135.666 662.562 148.026 666.716 161.807C670.869 175.587 668.236 190.787 668.236 190.787C668.236 190.787 641.08 221.661 600.548 242.926C568.053 259.974 525.939 270.629 493.294 277.823C419.931 293.989 377.122 261.702 377.122 261.702C377.122 261.702 371.386 249.271 372.978 238.589C374.57 227.907 386.695 213.409 386.695 213.409C386.695 213.409 409.297 238.029 508.94 213.694C608.583 189.359 651.622 135.666 651.622 135.666Z" fill="#262222" fill-rule="nonzero" opacity="1" stroke="#000000" stroke-linecap="butt" stroke-linejoin="round" stroke-width="2.31"/>
<path d="M651.29 136.128C651.29 136.128 638.37 205.599 481.473 235.973C379.284 255.756 386.573 213.54 386.573 213.54C386.573 213.54 399.929 233.154 489.673 218.797C540.131 210.726 586.139 187.071 615.74 166.897C638.787 151.189 651.29 136.128 651.29 136.128Z" fill="#000000" fill-rule="nonzero" opacity="1" stroke="#000000" stroke-linecap="butt" stroke-linejoin="round" stroke-width="2.31"/>
<path d="M721.16 308.908C771.294 300.247 770.93 249.776 776.721 236.976C782.512 224.177 784.03 201.932 783.709 187.562C783.026 156.97 760.501 171.966 760.501 171.966L781.623 151.719C781.675 151.669 781.631 151.582 781.559 151.595L755.025 156.365C754.974 156.374 754.93 156.328 754.941 156.278L761.121 127.602C761.121 127.602 768.631 131.852 776.11 122.927C783.589 114.002 742.729 86.2999 764.035 102.516C781.051 115.466 797.304 136.77 798.238 232.208C798.479 256.788 776.416 287.853 769.725 297.927C748.815 329.406 721.16 308.908 721.16 308.908Z" fill="#702429" fill-rule="nonzero" opacity="1" stroke="#000000" stroke-linecap="butt" stroke-linejoin="round" stroke-width="2.31"/>
<path d="M791.403 153.153C789.619 271.396 705.002 278.507 705.002 278.507C705.002 278.507 745.94 280.74 743.268 285.057C731.513 304.052 691.691 306.091 691.691 306.091C691.691 306.091 701.559 313.037 699.076 336.146C698.23 344.021 694.806 363.089 689.897 375.342C680.402 399.044 666.608 417.029 666.608 417.029C666.676 417.067 719.003 394.347 732.703 373.343C753.004 342.22 772.976 354.168 772.976 354.168C772.976 354.168 778.672 340.47 772.712 325.443C772.603 325.169 784.191 326.226 784.408 343.472C784.413 343.86 804.374 311.113 805.738 272.567C806.194 259.696 808.446 213.284 791.403 153.153Z" fill="#c34848" fill-rule="nonzero" opacity="1" stroke="#000000" stroke-linecap="round" stroke-linejoin="round" stroke-width="2.31"/>
<path d="M668.354 137.423C668.354 137.423 731.546 58.8392 775.166 113.65C795.545 139.257 802.034 194.137 786.514 258.816C771.263 322.369 715.733 377.051 666.967 416.973" fill="none" opacity="1" stroke="#000000" stroke-linecap="round" stroke-linejoin="round" stroke-width="2.31"/>
</g>
</g>
</svg>
