<?xml version="1.0" encoding="UTF-8" standalone="no"?>
<!DOCTYPE svg PUBLIC "-//W3C//DTD SVG 1.1//EN" "http://www.w3.org/Graphics/SVG/1.1/DTD/svg11.dtd">
<!-- Created with Vectornator (http://vectornator.io/) -->
<svg height="100%" stroke-miterlimit="10" style="fill-rule:nonzero;clip-rule:evenodd;stroke-linecap:round;stroke-linejoin:round;" version="1.1" viewBox="180.6 72.5444 608.942 871.748" width="100%" xml:space="preserve" xmlns="http://www.w3.org/2000/svg" xmlns:xlink="http://www.w3.org/1999/xlink">
<defs/>
<g id="Walk3-copy">
<g opacity="1">
<g opacity="1">
<path d="M638.578 390.108L511.572 356.373L420.25 390.843L502.362 475.783L630.166 422.484L638.578 390.108Z" fill="#000002" fill-rule="nonzero" opacity="1" stroke="#000000" stroke-linecap="butt" stroke-linejoin="round" stroke-width="2.31"/>
<path d="M385.576 668.097L670.702 701.565L720.04 808.962L536.513 768.008L329.359 872.524L385.576 668.097Z" fill="#000002" fill-rule="nonzero" opacity="1" stroke="#000000" stroke-linecap="round" stroke-linejoin="round" stroke-width="2.31"/>
<path d="M660.934 437.635L395.471 437.635L395.471 648.614L660.934 648.614L660.934 437.635Z" fill="#000002" fill-rule="nonzero" opacity="1" stroke="#000000" stroke-linecap="round" stroke-linejoin="round" stroke-width="2.31"/>
<path d="M505.642 836.305C505.723 836.268 505.795 836.212 505.851 836.143L533.041 802.352C533.128 802.243 533.173 802.106 533.167 801.967L531.307 757.902L529.843 709.925C529.843 709.925 535.936 708.097 535.507 708.698C535.079 709.299 529.93 709.925 529.93 709.925L538.266 768.006C538.269 768.026 538.271 768.045 538.272 768.064L539.83 805.333C539.839 805.529 539.946 805.707 540.115 805.806L590.927 835.532C591.097 835.631 591.305 835.637 591.48 835.548L654.676 803.415C654.961 803.27 655.074 802.921 654.927 802.637L575.419 648.259C575.321 648.068 575.124 647.948 574.909 647.947L459.586 647.569C459.347 647.568 459.133 647.715 459.047 647.937L390.79 824.529C390.697 824.771 390.776 825.045 390.984 825.199L443.799 864.438C443.968 864.564 444.192 864.587 444.384 864.499L505.642 836.305Z" fill="#000002" fill-rule="nonzero" opacity="1" stroke="#000000" stroke-linecap="round" stroke-linejoin="round" stroke-width="2.31"/>
<path d="M590.451 655.065C582.003 657.069 562.771 665.077 529.594 664.657C508.613 664.392 465.352 661.777 468.761 648.896" fill="#000002" fill-rule="nonzero" opacity="1" stroke="#000000" stroke-linecap="round" stroke-linejoin="round" stroke-width="2.31"/>
<path d="M392.081 807.34L437.584 849.66L527.572 812.594L543.604 874.933L478.671 914.381C478.671 914.381 410.923 904.473 398.867 896.348C386.811 888.223 356.4 851.074 356.4 851.074L392.081 807.34Z" fill="#000002" fill-rule="nonzero" opacity="1" stroke="#000000" stroke-linecap="round" stroke-linejoin="round" stroke-width="2.31"/>
<g opacity="1">
<path d="M375.186 900.893C380.421 864.057 406.81 844.466 456.234 844.466C505.658 844.466 516.457 861.201 528.669 893.071C533.42 905.471 534.988 933.016 527.626 936.186C511.878 942.968 388.546 947.517 376.972 936.498C371.604 931.387 373.581 912.185 375.186 900.893Z" fill="#000002" fill-rule="nonzero" opacity="1" stroke="#000000" stroke-linecap="round" stroke-linejoin="round" stroke-width="2.31"/>
<path d="M553.243 891.927C556.813 863.452 570.215 836.675 603.92 836.675C637.624 836.675 652.945 857.519 661.272 882.155C664.513 891.74 639.08 930.28 609.076 928.617C579.458 926.975 552.149 900.655 553.243 891.927Z" fill="#000002" fill-rule="nonzero" opacity="1" stroke="#000000" stroke-linecap="round" stroke-linejoin="round" stroke-width="2.31"/>
</g>
<path d="M643.439 786.896L587.593 833.276L545.319 801.024L539.55 827.782L550.556 836.64L546.226 857.214L616.503 849.716C616.503 849.716 652.315 860.491 662.987 854.576C673.659 848.66 686.94 816.757 686.94 816.757L643.439 786.896Z" fill="#000002" fill-rule="nonzero" opacity="1" stroke="#000000" stroke-linecap="round" stroke-linejoin="round" stroke-width="2.31"/>
<path d="M587.847 603.038C587.847 603.038 576.618 621.894 537.211 625.054C497.805 628.213 450.687 606.471 450.687 606.471L466.084 656.204C466.084 656.204 495.738 663.487 520.975 663.896C546.212 664.306 573.835 660.28 573.835 660.28L587.847 603.038Z" fill="#000002" fill-rule="nonzero" opacity="1" stroke="#000000" stroke-linecap="round" stroke-linejoin="round" stroke-width="2.31"/>
<g opacity="1">
<path d="M547.317 643.586C540.228 644.286 497.484 642.63 497.484 642.63L498.752 649.174L548.781 648.676C548.781 648.676 554.406 642.885 547.317 643.586Z" fill="#000002" fill-rule="nonzero" opacity="1" stroke="#000000" stroke-linecap="butt" stroke-linejoin="round" stroke-width="2.31"/>
<path d="M555.524 622.029L493.869 619.989L497.76 659.509L548.659 661.197L547.273 657.281L547.501 654.213L503.332 654.759L501.471 632.704L548.196 633.63L548.114 661.636C548.114 661.636 554.81 665.477 555.279 655.548C555.748 645.618 555.524 622.029 555.524 622.029Z" fill="#000002" fill-rule="nonzero" opacity="1" stroke="#000000" stroke-linecap="butt" stroke-linejoin="round" stroke-width="2.31"/>
</g>
</g>
<path d="M788.387 671.916C788.387 671.916 776.832 680.928 770.93 692.721C765.029 704.514 761.022 713.336 761.022 713.336L723.878 708.983C723.878 708.983 696.776 703.896 699.929 710.335C706.142 723.024 725.685 597.608 725.685 597.608C725.685 597.608 734.258 627.797 752.938 639.434C771.619 651.07 788.387 671.916 788.387 671.916Z" fill="#000002" fill-rule="nonzero" opacity="1" stroke="#000000" stroke-linecap="round" stroke-linejoin="round" stroke-width="2.31"/>
<path d="M633.093 373.331C672.169 421.853 672.268 405.245 672.268 405.245C672.268 405.245 679.676 441.618 699.033 492.288C718.39 542.958 769.607 620.716 769.607 620.716C769.607 620.716 751.771 645.597 741.385 669.496C732.605 689.699 728.228 712.44 728.228 712.44L700.003 712.996C700.003 712.996 647.11 622.673 629.165 550.803C602.468 443.88 609.725 344.314 633.093 373.331Z" fill="#000002" fill-rule="nonzero" opacity="1" stroke="#000000" stroke-linecap="butt" stroke-linejoin="round" stroke-width="2.31"/>
<path d="M516.138 443.509C516.138 443.509 498.673 630.875 455.896 733.715C439.67 772.723 410.183 804.959 390.698 821.9C288.285 910.946 314.645 873.238 314.645 873.238C314.645 873.238 348.157 825.701 295.383 803.579C272.684 794.064 302.556 810.959 319.835 780.556C342.684 740.354 360.198 648.701 369.373 611.718C396.287 503.232 369.579 419.9 369.579 419.9C370.182 423.1 451.779 405.067 451.779 405.067L521.989 424.271L516.138 443.509Z" fill="#000002" fill-rule="nonzero" opacity="1" stroke="#000000" stroke-linecap="round" stroke-linejoin="round" stroke-width="2.31"/>
<path d="M530.341 444.405C530.341 444.405 557.735 531.712 577.216 640.914C582.881 672.672 605.505 731.165 624.379 748.738C684.983 805.167 744.696 820.765 744.696 820.765C744.696 820.765 713.164 790.249 690.352 726.004C667.54 661.758 653.448 597.356 653.448 562.012C653.448 496.38 671.82 405.933 671.82 405.933C671.82 405.933 643.498 392.278 624.136 364.508C604.774 336.737 524.49 425.167 524.49 425.167L530.341 444.405Z" fill="#000002" fill-rule="nonzero" opacity="1" stroke="#000000" stroke-linecap="round" stroke-linejoin="round" stroke-width="2.31"/>
<path d="M308.356 714.535C305.406 728.48 341.992 804.336 341.992 804.336C341.992 804.336 395.244 793.812 400.928 802.39C404.683 808.057 394.727 777.035 405.268 758.547C409.52 751.088 430.316 761.834 431.767 753.406C432.37 749.898 410.541 725.441 411.065 722.449C412.674 713.273 412.528 713.559 412.528 713.559L308.356 714.535Z" fill="#000002" fill-rule="nonzero" opacity="1" stroke="#000000" stroke-linecap="round" stroke-linejoin="round" stroke-width="2.31"/>
<path d="M428.042 385.199C446.027 354.767 398.575 393.098 363.404 414.089C338.237 429.108 304.398 426.972 304.398 426.972C304.398 426.972 301.189 505.179 295.788 582.012C290.386 658.845 281.685 734.662 281.685 734.662C281.685 734.662 294.957 714.483 329.244 739.888C363.532 765.294 363.923 770.182 363.923 770.182C363.923 770.182 392.375 714.639 449.571 710.934C457.337 710.431 449.571 709.97 449.571 709.97C449.571 709.97 359.227 501.641 428.042 385.199Z" fill="#000002" fill-rule="nonzero" opacity="1" stroke="#000000" stroke-linecap="butt" stroke-linejoin="round" stroke-width="2.31"/>
<path d="M539.555 446.592L429.096 543.853C429.096 543.853 465.056 572.47 471.443 588.312C477.83 604.155 434.267 615.404 434.267 615.404C434.267 615.404 442.507 628.011 449.571 655.487C454.242 673.655 459.041 704.563 458.3 720.285C456.44 759.782 539.555 446.592 539.555 446.592Z" fill="#000002" fill-rule="nonzero" opacity="1" stroke="#000000" stroke-linecap="butt" stroke-linejoin="round" stroke-width="2.31"/>
<path d="M522.704 453.022L619.898 529.968C619.898 529.968 587.523 550.452 581.346 566.11C575.168 581.768 606.079 612.717 606.079 612.717C606.079 612.717 585.143 636.532 595.005 695.354C604.868 754.176 522.704 453.022 522.704 453.022Z" fill="#000002" fill-rule="nonzero" opacity="1" stroke="#000000" stroke-linecap="butt" stroke-linejoin="round" stroke-width="2.31"/>
<path d="M330.284 432.958C350.88 422.669 405.766 385.382 405.766 385.382C405.766 385.382 467.519 422.178 499.333 437.563C491.324 437.627 493.845 435.911 476.144 458.862C461.641 477.667 470.529 537.781 466.827 569.169C425.155 512.096 352.005 447.798 330.284 432.958Z" fill="#000002" fill-rule="nonzero" opacity="1" stroke="#000000" stroke-linecap="round" stroke-linejoin="round" stroke-width="2.31"/>
<path d="M653.448 385.165C633.758 378.001 618.656 357.086 618.656 357.086C618.656 357.086 567.192 480.642 535.944 496.027C543.811 496.092 582.896 442.981 608.034 457.753C631.353 471.457 653.448 494.789 686.272 494.037C666.764 461.626 646.539 411.677 653.448 385.165Z" fill="#000002" fill-rule="nonzero" opacity="1" stroke="#000000" stroke-linecap="round" stroke-linejoin="round" stroke-width="2.31"/>
</g>
<g opacity="1">
<path d="M496.588 366.277L429.775 360.507L459.611 447.825L496.588 366.277Z" fill="#000002" fill-rule="nonzero" opacity="1" stroke="#000000" stroke-linecap="butt" stroke-linejoin="round" stroke-width="2.31"/>
<path d="M573.766 339.555L628 426.299L533.3 424.545L454.816 524.34L360.141 359.63L378.998 338.681L460.41 426.126L573.766 339.555Z" fill="#000002" fill-rule="nonzero" opacity="1" stroke="#000000" stroke-linecap="butt" stroke-linejoin="round" stroke-width="2.31"/>
<path d="M627.357 426.608L532.885 423.686L454.97 524.002L541.822 451.145L627.357 426.608Z" fill="#000002" fill-rule="nonzero" opacity="1" stroke="#000000" stroke-linecap="butt" stroke-linejoin="round" stroke-width="2.31"/>
<path d="M489.707 370.444C489.707 370.444 512.114 368.413 532.936 360.627C553.758 352.841 572.993 339.299 572.993 339.299L460.775 425.931L382.249 344.218C382.249 344.218 401.475 354.533 414.898 360.194C428.32 365.856 435.939 366.864 435.939 366.864L461.129 425.134L489.707 370.444Z" fill="#000002" fill-rule="nonzero" opacity="1" stroke="#000000" stroke-linecap="butt" stroke-linejoin="round" stroke-width="2.31"/>
</g>
<g opacity="1">
<path d="M588.058 328.208C588.058 328.208 561.156 370.495 510.232 387.377C459.308 404.259 419.519 405.308 356.167 375.585C292.815 345.862 294.466 266.38 294.466 266.38L588.058 328.208Z" fill="#000002" fill-rule="nonzero" opacity="1" stroke="#000000" stroke-linecap="round" stroke-linejoin="round" stroke-width="2.31"/>
<path d="M484.397 393.805C487.088 390.499 489.802 380.126 489.802 380.126L464.1 396.439L465.865 388.623L456.488 396.949L461.011 381.231L455.606 387.688L454.172 383.355L441.242 396.216L441.721 386.611L435.549 395.42L436.856 386.604L428.973 395.38L433.505 379.945L425.942 394.418L427.546 377.827L411.719 384.281L412.078 379.592L402.117 391.608C402.117 391.608 405.567 395.24 434.339 398.071C463.111 400.903 481.706 397.112 484.397 393.805Z" fill="#000002" fill-rule="nonzero" opacity="1" stroke="#000000" stroke-linecap="round" stroke-linejoin="round" stroke-width="2.31"/>
</g>
<path d="M593.869 325.956C596.092 328.545 589.491 344.037 568.977 354.509C547.143 365.654 509.913 371.829 463.246 375.264C410.967 379.113 349.662 361.733 317.721 336.055C294.361 317.275 292.501 288.38 292.501 288.38C292.501 288.38 588.804 320.761 593.869 325.956Z" fill="#000002" fill-rule="nonzero" opacity="1" stroke="#000000" stroke-linecap="butt" stroke-linejoin="round" stroke-width="2.31"/>
<g opacity="1">
<path d="M670.317 183.697C670.317 183.697 685.082 177.625 701.697 184.09C776.813 213.319 748.126 284.514 692.724 313.534C637.322 342.555 568.993 363.142 481.09 357.352C393.186 351.562 302.642 303.258 266.705 248.926C247.17 219.392 252.238 181.863 258.664 157.36C264.059 136.788 279.738 126.814 279.738 126.814C279.738 126.814 319.461 132.559 337.594 143.322C355.728 154.086 670.317 183.697 670.317 183.697Z" fill="#000002" fill-rule="nonzero" opacity="1" stroke="#000000" stroke-linecap="butt" stroke-linejoin="round" stroke-width="2.31"/>
<path d="M478.71 133.581L420.883 98.623L387.886 176.053C387.886 176.053 419.25 201.536 421.21 200.883C423.17 200.229 483.938 180.3 483.938 180.3L481.651 133.907L478.057 136.194" fill="#000002" fill-rule="nonzero" opacity="1" stroke="#000000" stroke-linecap="butt" stroke-linejoin="round" stroke-width="2.31"/>
<path d="M525.502 73.8472C599.082 78.2384 648.065 154.919 648.065 154.919C648.065 154.919 665.901 190.539 651.042 216.188C645.671 225.458 611.199 219.135 605.06 229.494C577.158 276.577 547.078 274.581 538.931 275.422C524.032 276.958 330.883 190.798 330.883 190.798C330.883 190.798 326.851 179.525 341.988 138.172C357.125 96.8182 391.998 80.3609 391.998 80.3609C391.998 80.3609 396.903 78.9243 399.601 78.5281C433.65 73.5281 455.392 94.7569 461.094 109.034C470.864 133.497 482.041 122.179 482.041 122.179C482.041 122.179 466.268 156.295 448.111 139.953C432.446 125.855 424.511 119.469 419.867 123.93C417.821 125.895 414.728 126.115 416.561 133.502C422.557 157.659 409.67 183.366 409.67 183.366C409.67 183.366 455.425 169.86 478.436 130.206C488.402 113.033 497.447 92.8285 504.7 85.6231C511.617 78.7523 518.622 73.7198 518.622 73.7198C518.622 73.7198 521.763 73.6241 525.502 73.8472Z" fill="#000002" fill-rule="nonzero" opacity="1" stroke="#000000" stroke-linecap="butt" stroke-linejoin="round" stroke-width="2.31"/>
<path d="M648.531 162.856C648.531 162.856 658.132 167.775 663.522 174.385C668.911 180.995 671.361 189.051 671.361 189.051C671.361 189.051 674.707 263.354 559.281 289.9C525.726 297.618 433.282 277.068 387.201 252.875C340.485 228.348 319.808 200.769 319.808 200.769C319.808 200.769 318.189 181.374 321.692 170.136C323.8 163.374 336.811 145.446 336.811 145.446L336.565 152.609C336.565 152.609 343.074 162.71 371.052 180.329C413.177 206.857 505 241.545 569.986 233.635C666.54 221.882 653.48 174.949 651.273 169.986C647.821 162.222 648.531 162.856 648.531 162.856Z" fill="#000002" fill-rule="nonzero" opacity="1" stroke="#000000" stroke-linecap="butt" stroke-linejoin="round" stroke-width="2.31"/>
<path d="M336.221 144.734C336.221 144.734 325.281 157.094 321.127 170.875C316.973 184.655 319.606 199.855 319.606 199.855C319.606 199.855 346.762 230.729 387.294 251.994C419.789 269.042 461.904 279.697 494.548 286.89C567.912 303.057 610.72 270.77 610.72 270.77C610.72 270.77 616.457 258.339 614.865 247.657C613.272 236.975 601.147 222.476 601.147 222.476C601.147 222.476 578.545 247.097 478.902 222.762C379.259 198.427 336.221 144.734 336.221 144.734Z" fill="#000002" fill-rule="nonzero" opacity="1" stroke="#000000" stroke-linecap="butt" stroke-linejoin="round" stroke-width="2.31"/>
<path d="M336.552 145.196C336.552 145.196 349.472 214.667 506.37 245.041C608.558 264.824 601.269 222.608 601.269 222.608C601.269 222.608 587.914 242.222 498.169 227.865C447.711 219.793 401.704 196.139 372.103 175.965C349.055 160.257 336.552 145.196 336.552 145.196Z" fill="#000002" fill-rule="nonzero" opacity="1" stroke="#000000" stroke-linecap="butt" stroke-linejoin="round" stroke-width="2.31"/>
<path d="M266.682 317.975C216.549 309.315 216.912 258.843 211.121 246.044C205.331 233.245 203.813 211 204.134 196.63C204.817 166.038 227.341 181.034 227.341 181.034L206.22 160.787C206.167 160.737 206.212 160.65 206.283 160.662L232.817 165.433C232.869 165.442 232.913 165.396 232.902 165.345L226.721 136.67C226.721 136.67 219.212 140.92 211.733 131.995C204.254 123.07 245.113 95.3678 223.807 111.583C206.791 124.534 190.539 145.838 189.604 241.276C189.364 265.856 211.426 296.921 218.118 306.995C239.027 338.474 266.682 317.975 266.682 317.975Z" fill="#000002" fill-rule="nonzero" opacity="1" stroke="#000000" stroke-linecap="butt" stroke-linejoin="round" stroke-width="2.31"/>
<path d="M196.439 162.221C198.223 280.464 282.84 287.574 282.84 287.574C282.84 287.574 241.903 289.808 244.574 294.125C256.329 313.12 296.151 315.159 296.151 315.159C296.151 315.159 286.284 322.105 288.767 345.214C289.613 353.089 293.037 372.157 297.945 384.41C307.44 408.112 321.235 426.097 321.235 426.097C321.166 426.135 268.84 403.415 255.14 382.411C234.839 351.287 214.867 363.236 214.867 363.236C214.867 363.236 209.171 349.537 215.131 334.511C215.239 334.237 203.651 335.294 203.434 352.54C203.429 352.928 183.469 320.181 182.104 281.635C181.648 268.763 179.397 222.351 196.439 162.221Z" fill="#000002" fill-rule="nonzero" opacity="1" stroke="#000000" stroke-linecap="round" stroke-linejoin="round" stroke-width="2.31"/>
<path d="M319.488 146.491C319.488 146.491 256.297 67.9071 212.677 122.717C192.298 148.325 185.808 203.205 201.329 267.884C216.579 331.437 272.109 386.119 320.875 426.04" fill="none" opacity="1" stroke="#000000" stroke-linecap="round" stroke-linejoin="round" stroke-width="2.31"/>
</g>
</g>
</svg>
