<?xml version="1.0" encoding="UTF-8" standalone="no"?>
<!DOCTYPE svg PUBLIC "-//W3C//DTD SVG 1.1//EN" "http://www.w3.org/Graphics/SVG/1.1/DTD/svg11.dtd">
<!-- Created with Vectornator (http://vectornator.io/) -->
<svg height="100%" stroke-miterlimit="10" style="fill-rule:nonzero;clip-rule:evenodd;stroke-linecap:round;stroke-linejoin:round;" version="1.1" viewBox="239.541 63.4765 567.702 873.059" width="100%" xml:space="preserve" xmlns="http://www.w3.org/2000/svg" xmlns:xlink="http://www.w3.org/1999/xlink">
<defs/>
<g id="Walk2">
<g opacity="1">
<g opacity="1">
<path d="M386.43 384.666L516.564 348.938L610.135 385.444L526 475.401L395.049 418.954L386.43 384.666Z" fill="#171717" fill-rule="nonzero" opacity="1" stroke="#000000" stroke-linecap="butt" stroke-linejoin="round" stroke-width="2.31"/>
<path d="M347.256 687.166L651.062 722.61L703.632 836.351L508.081 792.977L287.354 903.666L347.256 687.166Z" fill="#171717" fill-rule="nonzero" opacity="1" stroke="#000000" stroke-linecap="round" stroke-linejoin="round" stroke-width="2.31"/>
<path d="M363.523 434.999L635.524 434.999L635.524 658.439L363.523 658.439L363.523 434.999Z" fill="#324e4a" fill-rule="nonzero" opacity="1" stroke="#000000" stroke-linecap="round" stroke-linejoin="round" stroke-width="2.31"/>
<path d="M485.98 826.158C486.061 826.117 486.131 826.056 486.184 825.982L510.955 791.426C511.03 791.322 511.068 791.197 511.063 791.069L509.367 745.992L508.034 696.939C508.034 696.939 513.583 695.07 513.193 695.685C512.803 696.299 508.113 696.939 508.113 696.939L515.707 756.327C515.709 756.344 515.71 756.361 515.711 756.378L517.132 794.511C517.139 794.697 517.235 794.869 517.391 794.971L563.624 825.331C563.806 825.45 564.038 825.457 564.226 825.35L621.75 792.518C622.009 792.37 622.112 792.049 621.988 791.777L549.554 633.907C549.461 633.703 549.257 633.572 549.033 633.571L444.092 633.185C443.846 633.184 443.626 633.34 443.545 633.574L381.363 814.155C381.286 814.381 381.355 814.632 381.539 814.785L429.617 854.88C429.795 855.029 430.045 855.056 430.251 854.95L485.98 826.158Z" fill="#262222" fill-rule="nonzero" opacity="1" stroke="#000000" stroke-linecap="round" stroke-linejoin="round" stroke-width="2.31"/>
<path d="M435.742 665.271C444.398 667.393 464.104 675.874 498.097 675.43C519.596 675.148 563.922 672.379 560.429 658.737" fill="#262222" fill-rule="nonzero" opacity="1" stroke="#000000" stroke-linecap="round" stroke-linejoin="round" stroke-width="2.31"/>
<path d="M382.554 796.538L424 839.807L505.965 801.91L520.568 865.647L461.424 905.979C461.424 905.979 399.716 895.849 388.735 887.542C377.753 879.235 350.054 841.253 350.054 841.253L382.554 796.538Z" fill="#262222" fill-rule="nonzero" opacity="1" stroke="#000000" stroke-linecap="round" stroke-linejoin="round" stroke-width="2.31"/>
<g opacity="1">
<path d="M367.165 892.189C371.933 854.528 395.97 834.497 440.987 834.497C486.005 834.497 495.841 851.607 506.964 884.192C511.292 896.87 512.72 925.032 506.015 928.274C491.671 935.207 379.334 939.858 368.792 928.592C363.902 923.366 365.703 903.734 367.165 892.189Z" fill="#000000" fill-rule="nonzero" opacity="1" stroke="#000000" stroke-linecap="round" stroke-linejoin="round" stroke-width="2.31"/>
<path d="M529.348 883.022C532.6 853.909 544.807 826.531 575.506 826.531C606.206 826.531 620.16 847.842 627.746 873.031C630.697 882.831 607.532 922.235 580.203 920.534C553.226 918.856 528.351 891.946 529.348 883.022Z" fill="#000000" fill-rule="nonzero" opacity="1" stroke="#000000" stroke-linecap="round" stroke-linejoin="round" stroke-width="2.31"/>
</g>
<path d="M611.503 775.636L560.635 823.056L522.13 790.081L516.876 817.439L526.9 826.496L522.956 847.531L586.968 839.865C586.968 839.865 619.587 850.881 629.307 844.833C639.028 838.785 651.125 806.166 651.125 806.166L611.503 775.636Z" fill="#262222" fill-rule="nonzero" opacity="1" stroke="#000000" stroke-linecap="round" stroke-linejoin="round" stroke-width="2.31"/>
<path d="M438.41 610.171C438.41 610.171 449.916 630.141 490.293 633.487C530.67 636.833 578.948 613.807 578.948 613.807L563.172 666.478C563.172 666.478 532.788 674.19 506.929 674.624C481.07 675.057 452.767 670.794 452.767 670.794L438.41 610.171Z" fill="#070707" fill-rule="nonzero" opacity="1" stroke="#000000" stroke-linecap="round" stroke-linejoin="round" stroke-width="2.31"/>
<g opacity="1">
<path d="M479.938 653.114C487.202 653.856 530.998 652.101 530.998 652.101L529.7 659.031L478.439 658.504C478.439 658.504 472.674 652.372 479.938 653.114Z" fill="#d2d2d2" fill-rule="nonzero" opacity="1" stroke="#000000" stroke-linecap="butt" stroke-linejoin="round" stroke-width="2.31"/>
<path d="M471.529 630.284L534.702 628.123L530.716 669.978L478.563 671.765L479.984 667.618L479.749 664.369L525.006 664.947L526.914 641.59L479.038 642.57L479.122 672.23C479.122 672.23 472.261 676.298 471.78 665.782C471.3 655.266 471.529 630.284 471.529 630.284Z" fill="#d2d2d2" fill-rule="nonzero" opacity="1" stroke="#000000" stroke-linecap="butt" stroke-linejoin="round" stroke-width="2.31"/>
</g>
</g>
<path d="M763.021 690.878C763.021 690.878 751.459 700.228 745.554 712.462C739.649 724.696 735.64 733.849 735.64 733.849L698.473 729.333C698.473 729.333 671.354 724.055 674.51 730.736C680.727 743.9 700.282 613.788 700.282 613.788C700.282 613.788 708.859 645.107 727.551 657.18C746.243 669.252 763.021 690.878 763.021 690.878Z" fill="#a59595" fill-rule="nonzero" opacity="1" stroke="#000000" stroke-linecap="round" stroke-linejoin="round" stroke-width="2.31"/>
<path d="M607.634 381.114C646.733 431.452 646.832 414.223 646.832 414.223C646.832 414.223 654.244 451.957 673.613 504.524C692.982 557.092 744.23 637.761 744.23 637.761C744.23 637.761 726.383 663.573 715.99 688.367C707.205 709.327 702.825 732.92 702.825 732.92L674.584 733.497C674.584 733.497 621.659 639.792 603.703 565.23C576.99 454.304 584.251 351.01 607.634 381.114Z" fill="#262222" fill-rule="nonzero" opacity="1" stroke="#000000" stroke-linecap="butt" stroke-linejoin="round" stroke-width="2.31"/>
<path d="M490.608 453.919C490.608 453.919 473.132 648.3 430.329 754.991C414.094 795.459 384.588 828.903 365.092 846.478C262.616 938.858 288.993 899.737 288.993 899.737C288.993 899.737 322.525 850.421 269.719 827.471C247.006 817.599 276.896 835.127 294.186 803.585C317.048 761.879 334.573 666.794 343.754 628.426C370.684 515.879 343.96 429.426 343.96 429.426C344.564 432.746 426.21 414.038 426.21 414.038L496.462 433.961L490.608 453.919Z" fill="#262222" fill-rule="nonzero" opacity="1" stroke="#000000" stroke-linecap="round" stroke-linejoin="round" stroke-width="2.31"/>
<path d="M504.819 454.848C504.819 454.848 532.229 545.424 551.722 658.716C557.391 691.662 580.029 752.345 598.914 770.577C659.554 829.119 719.303 845.301 719.303 845.301C719.303 845.301 687.752 813.642 664.927 746.991C642.101 680.34 628 613.527 628 576.86C628 508.77 646.383 414.936 646.383 414.936C646.383 414.936 618.044 400.771 598.671 371.96C579.297 343.149 498.965 434.89 498.965 434.89L504.819 454.848Z" fill="#262222" fill-rule="nonzero" opacity="1" stroke="#000000" stroke-linecap="round" stroke-linejoin="round" stroke-width="2.31"/>
<path d="M282.7 735.093C279.748 749.56 316.356 828.256 316.356 828.256C316.356 828.256 369.641 817.338 375.328 826.237C379.085 832.116 369.123 799.933 379.67 780.753C383.925 773.014 404.734 784.162 406.185 775.42C406.789 771.78 384.946 746.407 385.471 743.303C387.08 733.784 386.934 734.08 386.934 734.08L282.7 735.093Z" fill="#a59595" fill-rule="nonzero" opacity="1" stroke="#000000" stroke-linecap="round" stroke-linejoin="round" stroke-width="2.31"/>
<path d="M402.459 393.426C420.454 361.855 372.973 401.621 337.781 423.398C312.599 438.98 278.739 436.763 278.739 436.763C278.739 436.763 275.528 517.898 270.124 597.608C264.719 677.318 256.013 755.973 256.013 755.973C256.013 755.973 269.292 735.039 303.601 761.395C337.909 787.752 338.301 792.824 338.301 792.824C338.301 792.824 366.769 735.201 424 731.357C431.771 730.836 424 730.356 424 730.356C424 730.356 333.602 514.227 402.459 393.426Z" fill="#262222" fill-rule="nonzero" opacity="1" stroke="#000000" stroke-linecap="butt" stroke-linejoin="round" stroke-width="2.31"/>
<path d="M514.038 457.118L403.513 558.021C403.513 558.021 439.494 587.709 445.885 604.144C452.277 620.58 408.687 632.25 408.687 632.25C408.687 632.25 416.932 645.329 424 673.834C428.674 692.683 433.476 724.748 432.735 741.058C430.873 782.034 514.038 457.118 514.038 457.118Z" fill="#262222" fill-rule="nonzero" opacity="1" stroke="#000000" stroke-linecap="butt" stroke-linejoin="round" stroke-width="2.31"/>
<path d="M497.178 463.788L594.43 543.615C594.43 543.615 562.036 564.867 555.855 581.111C549.674 597.355 580.603 629.463 580.603 629.463C580.603 629.463 559.654 654.169 569.522 715.194C579.391 776.218 497.178 463.788 497.178 463.788Z" fill="#262222" fill-rule="nonzero" opacity="1" stroke="#000000" stroke-linecap="butt" stroke-linejoin="round" stroke-width="2.31"/>
<path d="M304.641 442.973C325.25 432.299 380.169 393.616 380.169 393.616C380.169 393.616 441.959 431.79 473.792 447.751C465.778 447.817 468.301 446.037 450.589 469.847C436.077 489.356 444.971 551.72 441.266 584.284C399.569 525.075 326.375 458.369 304.641 442.973Z" fill="#262222" fill-rule="nonzero" opacity="1" stroke="#000000" stroke-linecap="round" stroke-linejoin="round" stroke-width="2.31"/>
<path d="M628 393.39C608.299 385.958 593.188 364.26 593.188 364.26C593.188 364.26 541.692 492.443 510.425 508.404C518.297 508.471 557.406 453.371 582.559 468.697C605.892 482.913 628 507.119 660.844 506.339C641.325 472.714 621.087 420.895 628 393.39Z" fill="#262222" fill-rule="nonzero" opacity="1" stroke="#000000" stroke-linecap="round" stroke-linejoin="round" stroke-width="2.31"/>
</g>
<g opacity="1">
<path d="M469.234 385L536.047 379.23L506.211 466.548L469.234 385Z" fill="#000000" fill-rule="nonzero" opacity="1" stroke="#000000" stroke-linecap="butt" stroke-linejoin="round" stroke-width="2.31"/>
<path d="M392.057 358.278L337.822 445.022L432.522 443.268L511.006 543.063L605.681 378.353L586.824 357.404L505.412 444.849L392.057 358.278Z" fill="#c34848" fill-rule="nonzero" opacity="1" stroke="#000000" stroke-linecap="butt" stroke-linejoin="round" stroke-width="2.31"/>
<path d="M338.465 445.331L432.937 442.409L510.852 542.725L424 469.868L338.465 445.331Z" fill="#702429" fill-rule="nonzero" opacity="1" stroke="#000000" stroke-linecap="butt" stroke-linejoin="round" stroke-width="2.31"/>
<path d="M476.115 389.167C476.115 389.167 453.708 387.136 432.886 379.35C412.065 371.564 392.829 358.022 392.829 358.022L505.048 444.654L583.573 362.941C583.573 362.941 564.347 373.256 550.924 378.917C537.502 384.579 529.884 385.587 529.884 385.587L504.693 443.857L476.115 389.167Z" fill="#702429" fill-rule="nonzero" opacity="1" stroke="#000000" stroke-linecap="butt" stroke-linejoin="round" stroke-width="2.31"/>
</g>
<g opacity="1">
<path d="M353.403 319.14C353.403 319.14 380.305 361.427 431.229 378.309C482.152 395.191 521.941 396.24 585.294 366.517C648.646 336.794 646.995 257.312 646.995 257.312L353.403 319.14Z" fill="#a59595" fill-rule="nonzero" opacity="1" stroke="#000000" stroke-linecap="round" stroke-linejoin="round" stroke-width="2.31"/>
<path d="M457.064 384.738C454.373 381.431 451.659 371.058 451.659 371.058L477.361 387.372L475.596 379.555L484.972 387.881L480.45 372.163L485.855 378.62L487.289 374.287L500.218 387.148L499.74 377.543L505.912 386.352L504.604 377.537L512.488 386.312L507.956 370.877L515.518 385.35L513.914 368.759L529.742 375.213L529.383 370.524L539.343 382.54C539.343 382.54 535.893 386.172 507.122 389.004C478.35 391.835 459.755 388.044 457.064 384.738Z" fill="#000000" fill-rule="nonzero" opacity="1" stroke="#000000" stroke-linecap="round" stroke-linejoin="round" stroke-width="2.31"/>
</g>
<path d="M351.852 316.888C349.629 319.478 356.23 334.969 376.744 345.441C398.578 356.586 435.808 362.762 482.475 366.197C534.754 370.045 596.059 352.665 628 326.987C651.36 308.207 653.221 279.313 653.221 279.313C653.221 279.313 356.917 311.693 351.852 316.888Z" fill="#000000" fill-rule="nonzero" opacity="1" stroke="#000000" stroke-linecap="butt" stroke-linejoin="round" stroke-width="2.31"/>
<g opacity="1">
<path d="M317.525 174.629C317.525 174.629 302.76 168.557 286.145 175.022C211.029 204.251 239.716 275.446 295.118 304.466C350.521 333.487 418.849 354.074 506.753 348.284C594.656 342.494 685.201 294.191 721.137 239.858C740.672 210.324 735.604 172.795 729.179 148.292C723.784 127.72 708.105 117.746 708.105 117.746C708.105 117.746 668.382 123.491 650.248 134.255C632.115 145.018 317.525 174.629 317.525 174.629Z" fill="#262222" fill-rule="nonzero" opacity="1" stroke="#000000" stroke-linecap="butt" stroke-linejoin="round" stroke-width="2.31"/>
<path d="M509.132 124.513L566.959 89.5551L599.957 166.985C599.957 166.985 568.593 192.468 566.633 191.815C564.672 191.161 503.905 171.232 503.905 171.232L506.192 124.84L509.786 127.126" fill="#000000" fill-rule="nonzero" opacity="1" stroke="#000000" stroke-linecap="butt" stroke-linejoin="round" stroke-width="2.31"/>
<path d="M462.341 64.7793C388.76 69.1705 339.778 145.852 339.778 145.852C339.778 145.852 321.941 181.471 336.801 207.121C342.171 216.39 376.643 210.067 382.782 220.426C410.685 267.509 440.765 265.514 448.912 266.354C463.81 267.89 656.959 181.73 656.959 181.73C656.959 181.73 660.991 170.457 645.855 129.104C630.718 87.7503 595.844 71.293 595.844 71.293C595.844 71.293 590.939 69.8564 588.241 69.4603C554.192 64.4603 532.45 85.6891 526.748 99.9664C516.979 124.429 505.802 113.111 505.802 113.111C505.802 113.111 521.575 147.227 539.731 130.885C555.396 116.787 563.331 110.401 567.975 114.862C570.021 116.827 573.115 117.047 571.281 124.434C565.285 148.591 578.172 174.298 578.172 174.298C578.172 174.298 532.418 160.792 509.406 121.138C499.44 103.965 490.395 83.7606 483.142 76.5553C476.226 69.6845 469.22 64.6519 469.22 64.6519C469.22 64.6519 466.08 64.5562 462.341 64.7793Z" fill="#262222" fill-rule="nonzero" opacity="1" stroke="#000000" stroke-linecap="butt" stroke-linejoin="round" stroke-width="2.31"/>
<path d="M339.312 153.788C339.312 153.788 329.71 158.707 324.321 165.317C318.931 171.927 316.482 179.983 316.482 179.983C316.482 179.983 313.136 254.286 428.562 280.833C462.116 288.55 554.561 268 600.642 243.807C647.357 219.28 668.034 191.701 668.034 191.701C668.034 191.701 669.653 172.306 666.151 161.068C664.043 154.306 651.031 136.378 651.031 136.378L651.277 143.541C651.277 143.541 644.768 153.642 616.79 171.261C574.666 197.789 482.842 232.478 417.856 224.567C321.302 212.814 334.363 165.881 336.57 160.918C340.022 153.154 339.312 153.788 339.312 153.788Z" fill="#262222" fill-rule="nonzero" opacity="1" stroke="#000000" stroke-linecap="butt" stroke-linejoin="round" stroke-width="2.31"/>
<path d="M651.622 135.666C651.622 135.666 662.562 148.026 666.716 161.807C670.869 175.587 668.236 190.787 668.236 190.787C668.236 190.787 641.08 221.661 600.548 242.926C568.053 259.974 525.939 270.629 493.294 277.823C419.931 293.989 377.122 261.702 377.122 261.702C377.122 261.702 371.386 249.271 372.978 238.589C374.57 227.907 386.695 213.409 386.695 213.409C386.695 213.409 409.297 238.029 508.94 213.694C608.583 189.359 651.622 135.666 651.622 135.666Z" fill="#262222" fill-rule="nonzero" opacity="1" stroke="#000000" stroke-linecap="butt" stroke-linejoin="round" stroke-width="2.31"/>
<path d="M651.29 136.128C651.29 136.128 638.37 205.599 481.473 235.973C379.284 255.756 386.573 213.54 386.573 213.54C386.573 213.54 399.929 233.154 489.673 218.797C540.131 210.726 586.139 187.071 615.74 166.897C638.787 151.189 651.29 136.128 651.29 136.128Z" fill="#000000" fill-rule="nonzero" opacity="1" stroke="#000000" stroke-linecap="butt" stroke-linejoin="round" stroke-width="2.31"/>
<path d="M721.16 308.908C771.294 300.247 770.93 249.776 776.721 236.976C782.512 224.177 784.03 201.932 783.709 187.562C783.026 156.97 760.501 171.966 760.501 171.966L781.623 151.719C781.675 151.669 781.631 151.582 781.559 151.595L755.025 156.365C754.974 156.374 754.93 156.328 754.941 156.278L761.121 127.602C761.121 127.602 768.631 131.852 776.11 122.927C783.589 114.002 742.729 86.2999 764.035 102.516C781.051 115.466 797.304 136.77 798.238 232.208C798.479 256.788 776.416 287.853 769.725 297.927C748.815 329.406 721.16 308.908 721.16 308.908Z" fill="#702429" fill-rule="nonzero" opacity="1" stroke="#000000" stroke-linecap="butt" stroke-linejoin="round" stroke-width="2.31"/>
<path d="M791.403 153.153C789.619 271.396 705.002 278.507 705.002 278.507C705.002 278.507 745.94 280.74 743.268 285.057C731.513 304.052 691.691 306.091 691.691 306.091C691.691 306.091 701.559 313.037 699.076 336.146C698.23 344.021 694.806 363.089 689.897 375.342C680.402 399.044 666.608 417.029 666.608 417.029C666.676 417.067 719.003 394.347 732.703 373.343C753.004 342.22 772.976 354.168 772.976 354.168C772.976 354.168 778.672 340.47 772.712 325.443C772.603 325.169 784.191 326.226 784.408 343.472C784.413 343.86 804.374 311.113 805.738 272.567C806.194 259.696 808.446 213.284 791.403 153.153Z" fill="#c34848" fill-rule="nonzero" opacity="1" stroke="#000000" stroke-linecap="round" stroke-linejoin="round" stroke-width="2.31"/>
<path d="M668.354 137.423C668.354 137.423 731.546 58.8392 775.166 113.65C795.545 139.257 802.034 194.137 786.514 258.816C771.263 322.369 715.733 377.051 666.967 416.973" fill="none" opacity="1" stroke="#000000" stroke-linecap="round" stroke-linejoin="round" stroke-width="2.31"/>
</g>
</g>
</svg>
