<?xml version="1.0" encoding="UTF-8" standalone="no"?>
<!DOCTYPE svg PUBLIC "-//W3C//DTD SVG 1.1//EN" "http://www.w3.org/Graphics/SVG/1.1/DTD/svg11.dtd">
<!-- Created with Vectornator (http://vectornator.io/) -->
<svg height="100%" stroke-miterlimit="10" style="fill-rule:nonzero;clip-rule:evenodd;stroke-linecap:round;stroke-linejoin:round;" version="1.1" viewBox="239.541 63.4765 567.702 873.059" width="100%" xml:space="preserve" xmlns="http://www.w3.org/2000/svg" xmlns:xlink="http://www.w3.org/1999/xlink">
<defs/>
<g id="Walk2-copy">
<g opacity="1">
<g opacity="1">
<path d="M632.604 384.666L502.47 348.938L408.899 385.444L493.034 475.401L623.985 418.954L632.604 384.666Z" fill="#000002" fill-rule="nonzero" opacity="1" stroke="#000000" stroke-linecap="butt" stroke-linejoin="round" stroke-width="2.31"/>
<path d="M671.778 687.166L367.972 722.61L315.402 836.351L510.953 792.977L731.679 903.666L671.778 687.166Z" fill="#000002" fill-rule="nonzero" opacity="1" stroke="#000000" stroke-linecap="round" stroke-linejoin="round" stroke-width="2.31"/>
<path d="M655.511 434.999L383.51 434.999L383.51 658.439L655.511 658.439L655.511 434.999Z" fill="#000002" fill-rule="nonzero" opacity="1" stroke="#000000" stroke-linecap="round" stroke-linejoin="round" stroke-width="2.31"/>
<path d="M533.054 826.158C532.973 826.117 532.903 826.056 532.85 825.982L508.079 791.426C508.004 791.322 507.966 791.197 507.971 791.069L509.667 745.992L511 696.939C511 696.939 505.45 695.07 505.841 695.685C506.231 696.299 510.92 696.939 510.92 696.939L503.327 756.327C503.325 756.344 503.323 756.361 503.323 756.378L501.902 794.511C501.895 794.697 501.798 794.869 501.642 794.971L455.41 825.331C455.228 825.45 454.996 825.457 454.807 825.35L397.284 792.518C397.025 792.37 396.921 792.049 397.046 791.777L469.479 633.907C469.573 633.703 469.777 633.572 470.001 633.571L574.941 633.185C575.188 633.184 575.408 633.34 575.489 633.574L637.67 814.155C637.748 814.381 637.678 814.632 637.495 814.785L589.417 854.88C589.239 855.029 588.989 855.056 588.783 854.95L533.054 826.158Z" fill="#000002" fill-rule="nonzero" opacity="1" stroke="#000000" stroke-linecap="round" stroke-linejoin="round" stroke-width="2.31"/>
<path d="M583.292 665.271C574.636 667.393 554.93 675.874 520.936 675.43C499.438 675.148 455.112 672.379 458.605 658.737" fill="#000002" fill-rule="nonzero" opacity="1" stroke="#000000" stroke-linecap="round" stroke-linejoin="round" stroke-width="2.31"/>
<path d="M636.48 796.538L595.034 839.807L513.069 801.91L498.466 865.647L557.609 905.979C557.609 905.979 619.318 895.849 630.299 887.542C641.28 879.235 668.98 841.253 668.98 841.253L636.48 796.538Z" fill="#000002" fill-rule="nonzero" opacity="1" stroke="#000000" stroke-linecap="round" stroke-linejoin="round" stroke-width="2.31"/>
<g opacity="1">
<path d="M651.869 892.189C647.101 854.528 623.064 834.497 578.047 834.497C533.029 834.497 523.192 851.607 512.069 884.192C507.742 896.87 506.314 925.032 513.019 928.274C527.363 935.207 639.7 939.858 650.242 928.592C655.132 923.366 653.331 903.734 651.869 892.189Z" fill="#000002" fill-rule="nonzero" opacity="1" stroke="#000000" stroke-linecap="round" stroke-linejoin="round" stroke-width="2.31"/>
<path d="M489.686 883.022C486.434 853.909 474.227 826.531 443.528 826.531C412.828 826.531 398.873 847.842 391.288 873.031C388.337 882.831 411.502 922.235 438.831 920.534C465.808 918.856 490.683 891.946 489.686 883.022Z" fill="#000002" fill-rule="nonzero" opacity="1" stroke="#000000" stroke-linecap="round" stroke-linejoin="round" stroke-width="2.31"/>
</g>
<path d="M407.531 775.636L458.399 823.056L496.904 790.081L502.158 817.439L492.134 826.496L496.078 847.531L432.066 839.865C432.066 839.865 399.447 850.881 389.727 844.833C380.006 838.785 367.909 806.166 367.909 806.166L407.531 775.636Z" fill="#000002" fill-rule="nonzero" opacity="1" stroke="#000000" stroke-linecap="round" stroke-linejoin="round" stroke-width="2.31"/>
<path d="M580.624 610.171C580.624 610.171 569.118 630.141 528.741 633.487C488.364 636.833 440.085 613.807 440.085 613.807L455.862 666.478C455.862 666.478 486.246 674.19 512.105 674.624C537.963 675.057 566.267 670.794 566.267 670.794L580.624 610.171Z" fill="#000002" fill-rule="nonzero" opacity="1" stroke="#000000" stroke-linecap="round" stroke-linejoin="round" stroke-width="2.31"/>
<g opacity="1">
<path d="M539.096 653.114C531.832 653.856 488.036 652.101 488.036 652.101L489.334 659.031L540.595 658.504C540.595 658.504 546.359 652.372 539.096 653.114Z" fill="#000002" fill-rule="nonzero" opacity="1" stroke="#000000" stroke-linecap="butt" stroke-linejoin="round" stroke-width="2.31"/>
<path d="M547.505 630.284L484.332 628.123L488.318 669.978L540.471 671.765L539.05 667.618L539.284 664.369L494.027 664.947L492.12 641.59L539.996 642.57L539.912 672.23C539.912 672.23 546.773 676.298 547.254 665.782C547.734 655.266 547.505 630.284 547.505 630.284Z" fill="#000002" fill-rule="nonzero" opacity="1" stroke="#000000" stroke-linecap="butt" stroke-linejoin="round" stroke-width="2.31"/>
</g>
</g>
<path d="M256.013 690.878C256.013 690.878 267.575 700.228 273.48 712.462C279.385 724.696 283.394 733.849 283.394 733.849L320.56 729.333C320.56 729.333 347.679 724.055 344.524 730.736C338.307 743.9 318.752 613.788 318.752 613.788C318.752 613.788 310.175 645.107 291.483 657.18C272.791 669.252 256.013 690.878 256.013 690.878Z" fill="#000002" fill-rule="nonzero" opacity="1" stroke="#000000" stroke-linecap="round" stroke-linejoin="round" stroke-width="2.31"/>
<path d="M411.4 381.114C372.301 431.452 372.202 414.223 372.202 414.223C372.202 414.223 364.79 451.957 345.421 504.524C326.052 557.092 274.804 637.761 274.804 637.761C274.804 637.761 292.651 663.573 303.043 688.367C311.829 709.327 316.209 732.92 316.209 732.92L344.45 733.497C344.45 733.497 397.375 639.792 415.331 565.23C442.044 454.304 434.783 351.01 411.4 381.114Z" fill="#000002" fill-rule="nonzero" opacity="1" stroke="#000000" stroke-linecap="butt" stroke-linejoin="round" stroke-width="2.31"/>
<path d="M528.426 453.919C528.426 453.919 545.902 648.3 588.705 754.991C604.94 795.459 634.446 828.903 653.942 846.478C756.417 938.858 730.041 899.737 730.041 899.737C730.041 899.737 696.509 850.421 749.315 827.471C772.028 817.599 742.138 835.127 724.848 803.585C701.986 761.879 684.461 666.794 675.28 628.426C648.35 515.879 675.074 429.426 675.074 429.426C674.47 432.746 592.824 414.038 592.824 414.038L522.572 433.961L528.426 453.919Z" fill="#000002" fill-rule="nonzero" opacity="1" stroke="#000000" stroke-linecap="round" stroke-linejoin="round" stroke-width="2.31"/>
<path d="M514.215 454.848C514.215 454.848 486.805 545.424 467.311 658.716C461.643 691.662 439.005 752.345 420.12 770.577C359.48 829.119 299.73 845.301 299.73 845.301C299.73 845.301 331.281 813.642 354.107 746.991C376.933 680.34 391.034 613.527 391.034 576.86C391.034 508.77 372.65 414.936 372.65 414.936C372.65 414.936 400.989 400.771 420.363 371.96C439.737 343.149 520.069 434.89 520.069 434.89L514.215 454.848Z" fill="#000002" fill-rule="nonzero" opacity="1" stroke="#000000" stroke-linecap="round" stroke-linejoin="round" stroke-width="2.31"/>
<path d="M736.334 735.093C739.286 749.56 702.678 828.256 702.678 828.256C702.678 828.256 649.393 817.338 643.706 826.237C639.949 832.116 649.911 799.933 639.364 780.753C635.108 773.014 614.3 784.162 612.849 775.42C612.245 771.78 634.088 746.407 633.563 743.303C631.953 733.784 632.099 734.08 632.099 734.08L736.334 735.093Z" fill="#000002" fill-rule="nonzero" opacity="1" stroke="#000000" stroke-linecap="round" stroke-linejoin="round" stroke-width="2.31"/>
<path d="M616.575 393.426C598.58 361.855 646.061 401.621 681.253 423.398C706.435 438.98 740.294 436.763 740.294 436.763C740.294 436.763 743.506 517.898 748.91 597.608C754.315 677.318 763.021 755.973 763.021 755.973C763.021 755.973 749.742 735.039 715.433 761.395C681.125 787.752 680.733 792.824 680.733 792.824C680.733 792.824 652.264 735.201 595.034 731.357C587.263 730.836 595.034 730.356 595.034 730.356C595.034 730.356 685.432 514.227 616.575 393.426Z" fill="#000002" fill-rule="nonzero" opacity="1" stroke="#000000" stroke-linecap="butt" stroke-linejoin="round" stroke-width="2.31"/>
<path d="M504.996 457.118L615.521 558.021C615.521 558.021 579.54 587.709 573.148 604.144C566.757 620.58 610.346 632.25 610.346 632.25C610.346 632.25 602.102 645.329 595.034 673.834C590.36 692.683 585.558 724.748 586.299 741.058C588.161 782.034 504.996 457.118 504.996 457.118Z" fill="#000002" fill-rule="nonzero" opacity="1" stroke="#000000" stroke-linecap="butt" stroke-linejoin="round" stroke-width="2.31"/>
<path d="M521.856 463.788L424.604 543.615C424.604 543.615 456.998 564.867 463.179 581.111C469.36 597.355 438.431 629.463 438.431 629.463C438.431 629.463 459.38 654.169 449.511 715.194C439.643 776.218 521.856 463.788 521.856 463.788Z" fill="#000002" fill-rule="nonzero" opacity="1" stroke="#000000" stroke-linecap="butt" stroke-linejoin="round" stroke-width="2.31"/>
<path d="M714.393 442.973C693.784 432.299 638.865 393.616 638.865 393.616C638.865 393.616 577.075 431.79 545.242 447.751C553.256 447.817 550.733 446.037 568.444 469.847C582.956 489.356 574.063 551.72 577.767 584.284C619.465 525.075 692.659 458.369 714.393 442.973Z" fill="#000002" fill-rule="nonzero" opacity="1" stroke="#000000" stroke-linecap="round" stroke-linejoin="round" stroke-width="2.31"/>
<path d="M391.034 393.39C410.735 385.958 425.846 364.26 425.846 364.26C425.846 364.26 477.342 492.443 508.608 508.404C500.737 508.471 461.628 453.371 436.475 468.697C413.142 482.913 391.034 507.119 358.19 506.339C377.709 472.714 397.947 420.895 391.034 393.39Z" fill="#000002" fill-rule="nonzero" opacity="1" stroke="#000000" stroke-linecap="round" stroke-linejoin="round" stroke-width="2.31"/>
</g>
<g opacity="1">
<path d="M533.304 386.64L466.491 380.87L496.327 468.188L533.304 386.64Z" fill="#000002" fill-rule="nonzero" opacity="1" stroke="#000000" stroke-linecap="butt" stroke-linejoin="round" stroke-width="2.31"/>
<path d="M610.482 359.918L664.716 446.662L570.016 444.908L491.532 544.703L396.857 379.993L415.714 359.044L497.126 446.489L610.482 359.918Z" fill="#000002" fill-rule="nonzero" opacity="1" stroke="#000000" stroke-linecap="butt" stroke-linejoin="round" stroke-width="2.31"/>
<path d="M664.073 446.971L569.601 444.049L491.686 544.364L578.538 471.508L664.073 446.971Z" fill="#000002" fill-rule="nonzero" opacity="1" stroke="#000000" stroke-linecap="butt" stroke-linejoin="round" stroke-width="2.31"/>
<path d="M526.423 390.807C526.423 390.807 548.83 388.776 569.652 380.99C590.474 373.204 609.709 359.662 609.709 359.662L497.491 446.294L418.965 364.581C418.965 364.581 438.191 374.896 451.614 380.557C465.036 386.219 472.655 387.227 472.655 387.227L497.845 445.496L526.423 390.807Z" fill="#000002" fill-rule="nonzero" opacity="1" stroke="#000000" stroke-linecap="butt" stroke-linejoin="round" stroke-width="2.31"/>
</g>
<g opacity="1">
<path d="M646.999 319.14C646.999 319.14 620.097 361.427 569.173 378.309C518.249 395.191 478.461 396.24 415.108 366.517C351.756 336.794 353.407 257.312 353.407 257.312L646.999 319.14Z" fill="#000002" fill-rule="nonzero" opacity="1" stroke="#000000" stroke-linecap="round" stroke-linejoin="round" stroke-width="2.31"/>
<path d="M543.338 384.738C546.029 381.431 548.743 371.058 548.743 371.058L523.041 387.372L524.806 379.555L515.429 387.881L519.952 372.163L514.547 378.62L513.113 374.287L500.183 387.148L500.662 377.543L494.49 386.352L495.798 377.537L487.914 386.312L492.446 370.877L484.884 385.35L486.488 368.759L470.66 375.213L471.019 370.524L461.058 382.54C461.058 382.54 464.508 386.172 493.28 389.004C522.052 391.835 540.647 388.044 543.338 384.738Z" fill="#000002" fill-rule="nonzero" opacity="1" stroke="#000000" stroke-linecap="round" stroke-linejoin="round" stroke-width="2.31"/>
</g>
<path d="M652.81 316.888C655.033 319.478 648.432 334.969 627.918 345.441C606.084 356.586 568.854 362.762 522.187 366.197C469.908 370.045 408.603 352.665 376.662 326.987C353.302 308.207 351.442 279.313 351.442 279.313C351.442 279.313 647.745 311.693 652.81 316.888Z" fill="#000002" fill-rule="nonzero" opacity="1" stroke="#000000" stroke-linecap="butt" stroke-linejoin="round" stroke-width="2.31"/>
<g opacity="1">
<path d="M729.258 174.629C729.258 174.629 744.024 168.557 760.639 175.022C835.754 204.251 807.068 275.446 751.665 304.466C696.263 333.487 627.935 354.074 540.031 348.284C452.128 342.494 361.583 294.191 325.646 239.858C306.112 210.324 311.18 172.795 317.605 148.292C323 127.72 338.679 117.746 338.679 117.746C338.679 117.746 378.402 123.491 396.536 134.255C414.669 145.018 729.258 174.629 729.258 174.629Z" fill="#000002" fill-rule="nonzero" opacity="1" stroke="#000000" stroke-linecap="butt" stroke-linejoin="round" stroke-width="2.31"/>
<path d="M537.652 124.513L479.824 89.5551L446.827 166.985C446.827 166.985 478.191 192.468 480.151 191.815C482.111 191.161 542.879 171.232 542.879 171.232L540.592 124.84L536.998 127.126" fill="#000002" fill-rule="nonzero" opacity="1" stroke="#000000" stroke-linecap="butt" stroke-linejoin="round" stroke-width="2.31"/>
<path d="M584.443 64.7793C658.023 69.1705 707.006 145.852 707.006 145.852C707.006 145.852 724.842 181.471 709.983 207.121C704.613 216.39 670.141 210.067 664.002 220.426C636.099 267.509 606.019 265.514 597.872 266.354C582.973 267.89 389.824 181.73 389.824 181.73C389.824 181.73 385.792 170.457 400.929 129.104C416.066 87.7503 450.94 71.293 450.94 71.293C450.94 71.293 455.845 69.8564 458.542 69.4603C492.592 64.4603 514.334 85.6891 520.035 99.9664C529.805 124.429 540.982 113.111 540.982 113.111C540.982 113.111 525.209 147.227 507.052 130.885C491.387 116.787 483.452 110.401 478.809 114.862C476.763 116.827 473.669 117.047 475.503 124.434C481.499 148.591 468.612 174.298 468.612 174.298C468.612 174.298 514.366 160.792 537.378 121.138C547.344 103.965 556.389 83.7606 563.642 76.5553C570.558 69.6845 577.563 64.6519 577.563 64.6519C577.563 64.6519 580.704 64.5562 584.443 64.7793Z" fill="#000002" fill-rule="nonzero" opacity="1" stroke="#000000" stroke-linecap="butt" stroke-linejoin="round" stroke-width="2.31"/>
<path d="M707.472 153.788C707.472 153.788 717.074 158.707 722.463 165.317C727.853 171.927 730.302 179.983 730.302 179.983C730.302 179.983 733.648 254.286 618.222 280.833C584.667 288.55 492.223 268 446.142 243.807C399.426 219.28 378.749 191.701 378.749 191.701C378.749 191.701 377.13 172.306 380.633 161.068C382.741 154.306 395.753 136.378 395.753 136.378L395.506 143.541C395.506 143.541 402.015 153.642 429.993 171.261C472.118 197.789 563.941 232.478 628.928 224.567C725.482 212.814 712.421 165.881 710.214 160.918C706.762 153.154 707.472 153.788 707.472 153.788Z" fill="#000002" fill-rule="nonzero" opacity="1" stroke="#000000" stroke-linecap="butt" stroke-linejoin="round" stroke-width="2.31"/>
<path d="M395.162 135.666C395.162 135.666 384.222 148.026 380.068 161.807C375.914 175.587 378.547 190.787 378.547 190.787C378.547 190.787 405.703 221.661 446.235 242.926C478.73 259.974 520.845 270.629 553.49 277.823C626.853 293.989 669.661 261.702 669.661 261.702C669.661 261.702 675.398 249.271 673.806 238.589C672.214 227.907 660.088 213.409 660.088 213.409C660.088 213.409 637.487 238.029 537.844 213.694C438.2 189.359 395.162 135.666 395.162 135.666Z" fill="#000002" fill-rule="nonzero" opacity="1" stroke="#000000" stroke-linecap="butt" stroke-linejoin="round" stroke-width="2.31"/>
<path d="M395.494 136.128C395.494 136.128 408.413 205.599 565.311 235.973C667.499 255.756 660.21 213.54 660.21 213.54C660.21 213.54 646.855 233.154 557.11 218.797C506.653 210.726 460.645 187.071 431.044 166.897C407.996 151.189 395.494 136.128 395.494 136.128Z" fill="#000002" fill-rule="nonzero" opacity="1" stroke="#000000" stroke-linecap="butt" stroke-linejoin="round" stroke-width="2.31"/>
<path d="M325.623 308.908C275.49 300.247 275.853 249.776 270.063 236.976C264.272 224.177 262.754 201.932 263.075 187.562C263.758 156.97 286.283 171.966 286.283 171.966L265.161 151.719C265.109 151.669 265.153 151.582 265.224 151.595L291.759 156.365C291.81 156.374 291.854 156.328 291.843 156.278L285.663 127.602C285.663 127.602 278.153 131.852 270.674 122.927C263.195 114.002 304.055 86.2999 282.749 102.516C265.732 115.466 249.48 136.77 248.545 232.208C248.305 256.788 270.367 287.853 277.059 297.927C297.968 329.406 325.623 308.908 325.623 308.908Z" fill="#000002" fill-rule="nonzero" opacity="1" stroke="#000000" stroke-linecap="butt" stroke-linejoin="round" stroke-width="2.31"/>
<path d="M255.38 153.153C257.164 271.396 341.781 278.507 341.781 278.507C341.781 278.507 300.844 280.74 303.515 285.057C315.271 304.052 355.092 306.091 355.093 306.091C355.093 306.091 345.225 313.037 347.708 336.146C348.554 344.021 351.978 363.089 356.886 375.342C366.382 399.044 380.176 417.029 380.176 417.029C380.107 417.067 327.781 394.347 314.081 373.343C293.78 342.22 273.808 354.168 273.808 354.168C273.808 354.168 268.112 340.47 274.072 325.443C274.181 325.169 262.592 326.226 262.376 343.472C262.371 343.86 242.41 311.113 241.045 272.567C240.59 259.696 238.338 213.284 255.38 153.153Z" fill="#000002" fill-rule="nonzero" opacity="1" stroke="#000000" stroke-linecap="round" stroke-linejoin="round" stroke-width="2.31"/>
<path d="M378.43 137.423C378.43 137.423 315.238 58.8392 271.618 113.65C251.239 139.257 244.749 194.137 260.27 258.816C275.52 322.369 331.051 377.051 379.817 416.973" fill="none" opacity="1" stroke="#000000" stroke-linecap="round" stroke-linejoin="round" stroke-width="2.31"/>
</g>
</g>
</svg>
