<?xml version="1.0" encoding="UTF-8" standalone="no"?>
<!DOCTYPE svg PUBLIC "-//W3C//DTD SVG 1.1//EN" "http://www.w3.org/Graphics/SVG/1.1/DTD/svg11.dtd">
<!-- Created with Vectornator (http://vectornator.io/) -->
<svg height="100%" stroke-miterlimit="10" style="fill-rule:nonzero;clip-rule:evenodd;stroke-linecap:round;stroke-linejoin:round;" version="1.1" viewBox="240.743 70.0887 567.702 864.006" width="100%" xml:space="preserve" xmlns="http://www.w3.org/2000/svg" xmlns:xlink="http://www.w3.org/1999/xlink">
<defs/>
<g id="Walk1-copy">
<g opacity="1">
<g opacity="1">
<path d="M632.604 384.666L502.47 348.938L408.899 385.444L493.034 475.401L623.985 418.954L632.604 384.666Z" fill="#000000" fill-rule="nonzero" opacity="1" stroke="#000000" stroke-linecap="butt" stroke-linejoin="round" stroke-width="2.31"/>
<path d="M668.561 682.662L364.755 718.106L312.185 831.847L507.736 788.473L728.462 899.162L668.561 682.662Z" fill="#000000" fill-rule="nonzero" opacity="1" stroke="#000000" stroke-linecap="round" stroke-linejoin="round" stroke-width="2.31"/>
<path d="M655.511 434.999L383.51 434.999L383.51 658.439L655.511 658.439L655.511 434.999Z" fill="#000000" fill-rule="nonzero" opacity="1" stroke="#000000" stroke-linecap="round" stroke-linejoin="round" stroke-width="2.31"/>
<path d="M541.513 820.213C541.504 820.207 541.495 820.2 541.486 820.194L511.964 801.069C511.806 800.967 511.708 800.795 511.701 800.607L509.667 745.992L511 696.939C511 696.939 505.45 695.07 505.841 695.685C506.231 696.299 510.92 696.939 510.92 696.939L509.751 756.863C509.751 756.879 509.75 756.896 509.748 756.913L506.199 789.776C506.184 789.912 506.12 790.04 506.02 790.134L453.879 839.1C453.667 839.3 453.339 839.309 453.116 839.123L397.165 792.539C396.965 792.373 396.901 792.093 397.01 791.856L469.479 633.907C469.573 633.703 469.777 633.572 470.001 633.571L574.941 633.185C575.188 633.184 575.408 633.34 575.489 633.574L637.67 814.155C637.748 814.381 637.678 814.632 637.495 814.785L589.469 854.836C589.266 855.006 588.973 855.015 588.759 854.858L541.513 820.213Z" fill="#000000" fill-rule="nonzero" opacity="1" stroke="#000000" stroke-linecap="round" stroke-linejoin="round" stroke-width="2.31"/>
<path d="M583.292 665.271C574.636 667.393 554.93 675.874 520.936 675.43C499.438 675.148 455.112 672.379 458.605 658.737" fill="#000000" fill-rule="nonzero" opacity="1" stroke="#000000" stroke-linecap="round" stroke-linejoin="round" stroke-width="2.31"/>
<path d="M629.644 804.94L592.95 844.567L520.381 809.86L507.453 868.232L559.816 905.169C559.816 905.169 614.449 895.892 624.172 888.284C633.894 880.677 658.418 845.891 658.418 845.891L629.644 804.94Z" fill="#000000" fill-rule="nonzero" opacity="1" stroke="#000000" stroke-linecap="round" stroke-linejoin="round" stroke-width="2.31"/>
<g opacity="1">
<path d="M643.172 896.484C639.038 864.696 618.199 847.789 579.171 847.789C540.143 847.789 531.615 862.231 521.972 889.734C518.22 900.435 516.983 924.205 522.796 926.941C535.231 932.794 632.622 936.719 641.761 927.21C646 922.799 644.439 906.228 643.172 896.484Z" fill="#000000" fill-rule="nonzero" opacity="1" stroke="#000000" stroke-linecap="round" stroke-linejoin="round" stroke-width="2.31"/>
<path d="M499.859 887.203C496.271 855.935 482.806 826.531 448.941 826.531C415.075 826.531 399.682 849.42 391.314 876.473C388.059 886.998 413.612 929.319 443.76 927.493C473.519 925.69 500.958 896.788 499.859 887.203Z" fill="#000000" fill-rule="nonzero" opacity="1" stroke="#000000" stroke-linecap="round" stroke-linejoin="round" stroke-width="2.31"/>
</g>
<path d="M410.06 775.636L464.175 828.708L505.137 791.802L510.727 822.421L500.063 832.557L504.259 856.1L436.161 847.52C436.161 847.52 401.46 859.85 391.119 853.081C380.778 846.311 367.909 809.805 367.909 809.805L410.06 775.636Z" fill="#000000" fill-rule="nonzero" opacity="1" stroke="#000000" stroke-linecap="round" stroke-linejoin="round" stroke-width="2.31"/>
<path d="M580.624 610.171C580.624 610.171 569.118 630.141 528.741 633.487C488.364 636.833 440.085 613.807 440.085 613.807L455.862 666.478C455.862 666.478 486.246 674.19 512.105 674.624C537.963 675.057 566.267 670.794 566.267 670.794L580.624 610.171Z" fill="#000000" fill-rule="nonzero" opacity="1" stroke="#000000" stroke-linecap="round" stroke-linejoin="round" stroke-width="2.31"/>
<g opacity="1">
<path d="M539.096 653.114C531.832 653.856 488.036 652.101 488.036 652.101L489.334 659.031L540.595 658.504C540.595 658.504 546.359 652.372 539.096 653.114Z" fill="#000000" fill-rule="nonzero" opacity="1" stroke="#000000" stroke-linecap="butt" stroke-linejoin="round" stroke-width="2.31"/>
<path d="M547.505 630.284L484.332 628.123L488.318 669.978L540.471 671.765L539.05 667.618L539.284 664.369L494.027 664.947L492.12 641.59L539.996 642.57L539.912 672.23C539.912 672.23 546.773 676.298 547.254 665.782C547.734 655.266 547.505 630.284 547.505 630.284Z" fill="#000000" fill-rule="nonzero" opacity="1" stroke="#000000" stroke-linecap="butt" stroke-linejoin="round" stroke-width="2.31"/>
</g>
</g>
<path d="M256.013 690.878C256.013 690.878 267.575 700.228 273.48 712.462C279.385 724.696 283.394 733.849 283.394 733.849L320.56 729.333C320.56 729.333 347.679 724.055 344.524 730.736C338.307 743.9 318.752 613.788 318.752 613.788C318.752 613.788 310.175 645.107 291.483 657.18C272.791 669.252 256.013 690.878 256.013 690.878Z" fill="#000000" fill-rule="nonzero" opacity="1" stroke="#000000" stroke-linecap="round" stroke-linejoin="round" stroke-width="2.31"/>
<path d="M411.4 381.114C372.301 431.452 369.179 411.2 369.179 411.2C369.179 411.2 358.743 458.004 339.374 510.571C320.005 563.138 274.804 637.761 274.804 637.761C274.804 637.761 292.651 663.573 303.043 688.367C311.829 709.327 316.209 732.92 316.209 732.92L354.276 738.787C354.276 738.787 397.375 639.792 415.331 565.23C442.044 454.304 434.783 351.01 411.4 381.114Z" fill="#000000" fill-rule="nonzero" opacity="1" stroke="#000000" stroke-linecap="butt" stroke-linejoin="round" stroke-width="2.31"/>
<path d="M528.329 446.609C528.329 446.609 545.805 640.99 588.608 747.68C604.843 788.149 634.349 821.592 653.845 839.168C756.321 931.547 729.944 892.427 729.944 892.427C729.944 892.427 696.412 843.111 749.218 820.16C771.931 810.289 742.041 827.816 724.751 796.275C701.889 754.568 684.364 659.483 675.183 621.115C648.253 508.568 674.977 422.116 674.977 422.116C674.373 425.436 592.727 406.727 592.727 406.727L522.475 426.651L528.329 446.609Z" fill="#000000" fill-rule="nonzero" opacity="1" stroke="#000000" stroke-linecap="round" stroke-linejoin="round" stroke-width="2.31"/>
<path d="M513.315 448.552C513.315 448.552 485.905 539.128 466.412 652.419C460.743 685.366 438.106 746.049 419.221 764.28C358.58 822.822 298.831 839.004 298.831 839.004C298.831 839.004 330.382 807.345 353.208 740.694C376.034 674.044 390.134 607.23 390.134 570.563C390.134 502.473 371.751 408.64 371.751 408.64C371.751 408.64 400.09 394.474 419.464 365.664C438.837 336.853 519.169 428.594 519.169 428.594L513.315 448.552Z" fill="#000000" fill-rule="nonzero" opacity="1" stroke="#000000" stroke-linecap="round" stroke-linejoin="round" stroke-width="2.31"/>
<path d="M736.334 735.093C739.286 749.56 702.678 828.256 702.678 828.256C702.678 828.256 649.393 817.338 643.706 826.237C639.949 832.116 649.911 799.933 639.364 780.753C635.108 773.014 614.3 784.162 612.849 775.42C612.245 771.78 634.088 746.407 633.563 743.303C631.953 733.784 632.099 734.08 632.099 734.08L736.334 735.093Z" fill="#000000" fill-rule="nonzero" opacity="1" stroke="#000000" stroke-linecap="round" stroke-linejoin="round" stroke-width="2.31"/>
<path d="M633.201 393.426C617.249 361.855 659.339 401.621 690.536 423.398C712.859 438.98 742.874 436.763 742.874 436.763C742.874 436.763 745.721 517.898 750.512 597.608C755.303 677.318 763.021 755.973 763.021 755.973C763.021 755.973 751.249 735.039 720.836 761.395C690.422 787.752 690.075 792.824 690.075 792.824C690.075 792.824 664.838 735.201 614.105 731.357C607.217 730.836 614.105 730.356 614.105 730.356C614.105 730.356 694.241 514.227 633.201 393.426Z" fill="#000000" fill-rule="nonzero" opacity="1" stroke="#000000" stroke-linecap="butt" stroke-linejoin="round" stroke-width="2.31"/>
<path d="M514.987 445.205L615.521 558.021C615.521 558.021 579.54 587.709 573.148 604.144C566.757 620.58 618.801 632.25 618.801 632.25C618.801 632.25 602.102 645.329 595.034 673.834C590.36 692.683 582.868 727.438 583.609 743.749C585.47 784.724 514.987 445.205 514.987 445.205Z" fill="#000000" fill-rule="nonzero" opacity="1" stroke="#000000" stroke-linecap="butt" stroke-linejoin="round" stroke-width="2.31"/>
<path d="M521.856 463.788L424.604 543.615C424.604 543.615 456.998 564.867 463.179 581.111C469.36 597.355 438.431 629.463 438.431 629.463C438.431 629.463 459.38 654.169 449.511 715.194C439.643 776.218 521.856 463.788 521.856 463.788Z" fill="#000000" fill-rule="nonzero" opacity="1" stroke="#000000" stroke-linecap="butt" stroke-linejoin="round" stroke-width="2.31"/>
<path d="M704.398 430.427C683.789 419.753 633.951 388.15 633.951 388.15C633.951 388.15 577.075 431.79 545.242 447.751C553.256 447.817 550.733 446.037 568.444 469.847C582.956 489.356 607.437 517.287 611.141 549.85C652.838 490.641 682.663 445.823 704.398 430.427Z" fill="#000000" fill-rule="nonzero" opacity="1" stroke="#000000" stroke-linecap="round" stroke-linejoin="round" stroke-width="2.31"/>
<path d="M391.034 392.962C410.735 385.53 425.846 364.26 425.846 364.26C425.846 364.26 477.342 492.443 508.608 508.404C500.737 508.471 474.193 463.952 449.04 479.278C425.707 493.494 423.878 524.693 391.034 523.913C410.553 490.288 397.947 420.467 391.034 392.962Z" fill="#000000" fill-rule="nonzero" opacity="1" stroke="#000000" stroke-linecap="round" stroke-linejoin="round" stroke-width="2.31"/>
</g>
<g opacity="1">
<path d="M528.691 388.427L461.878 382.658L491.714 469.975L528.691 388.427Z" fill="#000000" fill-rule="nonzero" opacity="1" stroke="#000000" stroke-linecap="butt" stroke-linejoin="round" stroke-width="2.31"/>
<path d="M605.868 361.705L660.103 448.449L565.403 446.696L486.919 546.491L392.244 381.78L411.101 360.831L492.513 448.276L605.868 361.705Z" fill="#000000" fill-rule="nonzero" opacity="1" stroke="#000000" stroke-linecap="butt" stroke-linejoin="round" stroke-width="2.31"/>
<path d="M659.46 448.758L564.988 445.836L487.073 546.152L573.925 473.295L659.46 448.758Z" fill="#000000" fill-rule="nonzero" opacity="1" stroke="#000000" stroke-linecap="butt" stroke-linejoin="round" stroke-width="2.31"/>
<path d="M521.81 392.594C521.81 392.594 544.217 390.563 565.039 382.777C585.86 374.991 605.096 361.449 605.096 361.449L492.877 448.081L414.352 366.368C414.352 366.368 433.578 376.683 447.001 382.344C460.423 388.006 468.041 389.015 468.041 389.015L493.232 447.284L521.81 392.594Z" fill="#000000" fill-rule="nonzero" opacity="1" stroke="#000000" stroke-linecap="butt" stroke-linejoin="round" stroke-width="2.31"/>
</g>
<g opacity="1">
<path d="M646.999 319.14C646.999 319.14 620.097 361.427 569.173 378.309C518.249 395.191 478.461 396.24 415.108 366.517C351.756 336.794 353.407 257.312 353.407 257.312L646.999 319.14Z" fill="#000000" fill-rule="nonzero" opacity="1" stroke="#000000" stroke-linecap="round" stroke-linejoin="round" stroke-width="2.31"/>
<path d="M543.338 384.738C546.029 381.431 548.743 371.058 548.743 371.058L523.041 387.372L524.806 379.555L515.429 387.881L519.952 372.163L514.547 378.62L513.113 374.287L500.183 387.148L500.662 377.543L494.49 386.352L495.798 377.537L487.914 386.312L492.446 370.877L484.884 385.35L486.488 368.759L470.66 375.213L471.019 370.524L461.058 382.54C461.058 382.54 464.508 386.172 493.28 389.004C522.052 391.835 540.647 388.044 543.338 384.738Z" fill="#000000" fill-rule="nonzero" opacity="1" stroke="#000000" stroke-linecap="round" stroke-linejoin="round" stroke-width="2.31"/>
</g>
<path d="M652.81 316.888C655.033 319.478 648.432 334.969 627.918 345.441C606.084 356.586 568.854 362.762 522.187 366.197C469.908 370.045 408.603 352.665 376.662 326.987C353.302 308.207 351.442 279.313 351.442 279.313C351.442 279.313 647.745 311.693 652.81 316.888Z" fill="#000000" fill-rule="nonzero" opacity="1" stroke="#000000" stroke-linecap="butt" stroke-linejoin="round" stroke-width="2.31"/>
<g opacity="1">
<path d="M730.461 181.241C730.461 181.241 745.226 175.169 761.841 181.634C836.957 210.864 808.27 282.058 752.868 311.079C697.465 340.099 629.137 360.686 541.233 354.896C453.33 349.106 362.785 300.803 326.849 246.47C307.314 216.936 312.382 179.407 318.807 154.905C324.202 134.332 339.881 124.358 339.881 124.358C339.881 124.358 379.604 130.103 397.738 140.867C415.871 151.631 730.461 181.241 730.461 181.241Z" fill="#000000" fill-rule="nonzero" opacity="1" stroke="#000000" stroke-linecap="butt" stroke-linejoin="round" stroke-width="2.31"/>
<path d="M538.854 131.125L481.026 96.1673L448.029 173.597C448.029 173.597 479.393 199.08 481.353 198.427C483.313 197.773 544.081 177.844 544.081 177.844L541.794 131.452L538.2 133.739" fill="#000000" fill-rule="nonzero" opacity="1" stroke="#000000" stroke-linecap="butt" stroke-linejoin="round" stroke-width="2.31"/>
<path d="M585.645 71.3916C659.226 75.7827 708.208 152.464 708.208 152.464C708.208 152.464 726.045 188.084 711.185 213.733C705.815 223.003 671.343 216.679 665.204 227.038C637.301 274.121 607.221 272.126 599.074 272.966C584.176 274.502 391.027 188.342 391.027 188.342C391.027 188.342 386.995 177.069 402.131 135.716C417.268 94.3625 452.142 77.9052 452.142 77.9052C452.142 77.9052 457.047 76.4686 459.745 76.0725C493.794 71.0725 515.536 92.3013 521.238 106.579C531.007 131.041 542.184 119.723 542.184 119.723C542.184 119.723 526.411 153.839 508.254 137.498C492.59 123.399 484.655 117.013 480.011 121.474C477.965 123.439 474.871 123.659 476.705 131.047C482.701 155.203 469.814 180.911 469.814 180.911C469.814 180.911 515.568 167.404 538.58 127.751C548.546 110.577 557.591 90.3729 564.844 83.1675C571.76 76.2967 578.765 71.2642 578.765 71.2642C578.765 71.2642 581.906 71.1684 585.645 71.3916Z" fill="#000000" fill-rule="nonzero" opacity="1" stroke="#000000" stroke-linecap="butt" stroke-linejoin="round" stroke-width="2.31"/>
<path d="M708.674 160.4C708.674 160.4 718.276 165.319 723.665 171.929C729.055 178.539 731.504 186.595 731.504 186.595C731.504 186.595 734.85 260.898 619.424 287.445C585.87 295.162 493.425 274.612 447.344 250.419C400.629 225.892 379.952 198.313 379.952 198.313C379.952 198.313 378.333 178.919 381.835 167.68C383.943 160.918 396.955 142.99 396.955 142.99L396.708 150.153C396.708 150.153 403.218 160.254 431.195 177.873C473.32 204.401 565.144 239.09 630.13 231.179C726.684 219.426 713.623 172.493 711.416 167.53C707.964 159.766 708.674 160.4 708.674 160.4Z" fill="#000000" fill-rule="nonzero" opacity="1" stroke="#000000" stroke-linecap="butt" stroke-linejoin="round" stroke-width="2.31"/>
<path d="M396.364 142.278C396.364 142.278 385.424 154.639 381.27 168.419C377.117 182.199 379.75 197.399 379.75 197.399C379.75 197.399 406.906 228.273 447.438 249.538C479.933 266.587 522.047 277.241 554.692 284.435C628.055 300.602 670.863 268.315 670.863 268.315C670.863 268.315 676.6 255.883 675.008 245.201C673.416 234.519 661.291 220.021 661.291 220.021C661.291 220.021 638.689 244.641 539.046 220.306C439.403 195.971 396.364 142.278 396.364 142.278Z" fill="#000000" fill-rule="nonzero" opacity="1" stroke="#000000" stroke-linecap="butt" stroke-linejoin="round" stroke-width="2.31"/>
<path d="M396.696 142.74C396.696 142.74 409.615 212.211 566.513 242.585C668.702 262.368 661.413 220.152 661.413 220.152C661.413 220.152 648.057 239.766 558.313 225.41C507.855 217.338 461.847 193.683 432.246 173.509C409.199 157.802 396.696 142.74 396.696 142.74Z" fill="#000000" fill-rule="nonzero" opacity="1" stroke="#000000" stroke-linecap="butt" stroke-linejoin="round" stroke-width="2.31"/>
<g opacity="1">
<path d="M326.826 315.52C276.692 306.859 277.056 256.388 271.265 243.588C265.474 230.789 263.956 208.545 264.277 194.174C264.96 163.582 287.485 178.578 287.485 178.578L266.363 158.332C266.311 158.281 266.355 158.194 266.427 158.207L292.961 162.977C293.012 162.986 293.056 162.941 293.045 162.89L286.865 134.215C286.865 134.215 279.355 138.464 271.876 129.539C264.397 120.614 305.257 92.9121 283.951 109.128C266.935 122.079 250.682 143.382 249.748 238.82C249.507 263.4 271.57 294.465 278.261 304.539C299.171 336.018 326.826 315.52 326.826 315.52Z" fill="#000000" fill-rule="nonzero" opacity="1" stroke="#000000" stroke-linecap="butt" stroke-linejoin="round" stroke-width="2.31"/>
<path d="M256.582 159.765C258.366 278.008 342.984 285.119 342.983 285.119C342.983 285.119 302.046 287.353 304.717 291.669C316.473 310.664 356.295 312.704 356.295 312.704C356.295 312.704 346.427 319.649 348.91 342.759C349.756 350.634 353.18 369.702 358.089 381.954C367.584 405.657 381.378 423.641 381.378 423.641C381.31 423.679 328.983 400.959 315.283 379.955C294.982 348.832 275.01 360.78 275.01 360.78C275.01 360.78 269.314 347.082 275.274 332.055C275.383 331.782 263.794 332.839 263.578 350.084C263.573 350.472 243.612 317.726 242.247 279.179C241.792 266.308 239.54 219.896 256.582 159.765Z" fill="#000000" fill-rule="nonzero" opacity="1" stroke="#000000" stroke-linecap="round" stroke-linejoin="round" stroke-width="2.31"/>
<path d="M379.632 144.035C379.632 144.035 316.44 65.4514 272.82 120.262C252.441 145.869 245.951 200.749 261.472 265.429C276.723 328.981 332.253 383.664 381.019 423.585" fill="none" opacity="1" stroke="#000000" stroke-linecap="round" stroke-linejoin="round" stroke-width="2.31"/>
</g>
</g>
</g>
</svg>
