<?xml version="1.0" encoding="UTF-8" standalone="no"?>
<!DOCTYPE svg PUBLIC "-//W3C//DTD SVG 1.1//EN" "http://www.w3.org/Graphics/SVG/1.1/DTD/svg11.dtd">
<!-- Created with Vectornator (http://vectornator.io/) -->
<svg height="100%" stroke-miterlimit="10" style="fill-rule:nonzero;clip-rule:evenodd;stroke-linecap:round;stroke-linejoin:round;" version="1.1" viewBox="240.743 70.0887 567.702 864.006" width="100%" xml:space="preserve" xmlns="http://www.w3.org/2000/svg" xmlns:xlink="http://www.w3.org/1999/xlink">
<defs/>
<g id="Walk1">
<g opacity="1">
<g opacity="1">
<path d="M386.43 384.666L516.564 348.938L610.135 385.444L526 475.401L395.049 418.954L386.43 384.666Z" fill="#171717" fill-rule="nonzero" opacity="1" stroke="#000000" stroke-linecap="butt" stroke-linejoin="round" stroke-width="2.31"/>
<path d="M350.473 682.662L654.279 718.106L706.849 831.847L511.298 788.473L290.571 899.162L350.473 682.662Z" fill="#171717" fill-rule="nonzero" opacity="1" stroke="#000000" stroke-linecap="round" stroke-linejoin="round" stroke-width="2.31"/>
<path d="M363.523 434.999L635.524 434.999L635.524 658.439L363.523 658.439L363.523 434.999Z" fill="#324e4a" fill-rule="nonzero" opacity="1" stroke="#000000" stroke-linecap="round" stroke-linejoin="round" stroke-width="2.31"/>
<path d="M477.521 820.213C477.529 820.207 477.539 820.2 477.548 820.194L507.07 801.069C507.227 800.967 507.325 800.795 507.332 800.607L509.367 745.992L508.034 696.939C508.034 696.939 513.583 695.07 513.193 695.685C512.803 696.299 508.113 696.939 508.113 696.939L509.283 756.863C509.283 756.879 509.284 756.896 509.286 756.913L512.835 789.776C512.85 789.912 512.913 790.04 513.014 790.134L565.155 839.1C565.367 839.3 565.694 839.309 565.918 839.123L621.869 792.539C622.069 792.373 622.133 792.093 622.024 791.856L549.554 633.907C549.461 633.703 549.257 633.572 549.033 633.571L444.092 633.185C443.846 633.184 443.626 633.34 443.545 633.574L381.363 814.155C381.286 814.381 381.355 814.632 381.539 814.785L429.564 854.836C429.768 855.006 430.061 855.015 430.274 854.858L477.521 820.213Z" fill="#262222" fill-rule="nonzero" opacity="1" stroke="#000000" stroke-linecap="round" stroke-linejoin="round" stroke-width="2.31"/>
<path d="M435.742 665.271C444.398 667.393 464.104 675.874 498.097 675.43C519.596 675.148 563.922 672.379 560.429 658.737" fill="#262222" fill-rule="nonzero" opacity="1" stroke="#000000" stroke-linecap="round" stroke-linejoin="round" stroke-width="2.31"/>
<path d="M389.39 804.94L426.084 844.567L498.652 809.86L511.581 868.232L459.218 905.169C459.218 905.169 404.585 895.892 394.862 888.284C385.14 880.677 360.616 845.891 360.616 845.891L389.39 804.94Z" fill="#262222" fill-rule="nonzero" opacity="1" stroke="#000000" stroke-linecap="round" stroke-linejoin="round" stroke-width="2.31"/>
<g opacity="1">
<path d="M375.862 896.484C379.996 864.696 400.835 847.789 439.863 847.789C478.89 847.789 487.418 862.231 497.062 889.734C500.813 900.435 502.051 924.205 496.238 926.941C483.803 932.794 386.412 936.719 377.273 927.21C373.034 922.799 374.595 906.228 375.862 896.484Z" fill="#000000" fill-rule="nonzero" opacity="1" stroke="#000000" stroke-linecap="round" stroke-linejoin="round" stroke-width="2.31"/>
<path d="M519.175 887.203C522.762 855.935 536.228 826.531 570.093 826.531C603.959 826.531 619.352 849.42 627.72 876.473C630.975 886.998 605.422 929.319 575.274 927.493C545.515 925.69 518.076 896.788 519.175 887.203Z" fill="#000000" fill-rule="nonzero" opacity="1" stroke="#000000" stroke-linecap="round" stroke-linejoin="round" stroke-width="2.31"/>
</g>
<path d="M608.974 775.636L554.859 828.708L513.896 791.802L508.306 822.421L518.971 832.557L514.775 856.1L582.873 847.52C582.873 847.52 617.574 859.85 627.915 853.081C638.256 846.311 651.125 809.805 651.125 809.805L608.974 775.636Z" fill="#262222" fill-rule="nonzero" opacity="1" stroke="#000000" stroke-linecap="round" stroke-linejoin="round" stroke-width="2.31"/>
<path d="M438.41 610.171C438.41 610.171 449.916 630.141 490.293 633.487C530.67 636.833 578.948 613.807 578.948 613.807L563.172 666.478C563.172 666.478 532.788 674.19 506.929 674.624C481.07 675.057 452.767 670.794 452.767 670.794L438.41 610.171Z" fill="#070707" fill-rule="nonzero" opacity="1" stroke="#000000" stroke-linecap="round" stroke-linejoin="round" stroke-width="2.31"/>
<g opacity="1">
<path d="M479.938 653.114C487.202 653.856 530.998 652.101 530.998 652.101L529.7 659.031L478.439 658.504C478.439 658.504 472.674 652.372 479.938 653.114Z" fill="#d2d2d2" fill-rule="nonzero" opacity="1" stroke="#000000" stroke-linecap="butt" stroke-linejoin="round" stroke-width="2.31"/>
<path d="M471.529 630.284L534.702 628.123L530.716 669.978L478.563 671.765L479.984 667.618L479.749 664.369L525.006 664.947L526.914 641.59L479.038 642.57L479.122 672.23C479.122 672.23 472.261 676.298 471.78 665.782C471.3 655.266 471.529 630.284 471.529 630.284Z" fill="#d2d2d2" fill-rule="nonzero" opacity="1" stroke="#000000" stroke-linecap="butt" stroke-linejoin="round" stroke-width="2.31"/>
</g>
</g>
<path d="M763.021 690.878C763.021 690.878 751.459 700.228 745.554 712.462C739.649 724.696 735.64 733.849 735.64 733.849L698.473 729.333C698.473 729.333 671.354 724.055 674.51 730.736C680.727 743.9 700.282 613.788 700.282 613.788C700.282 613.788 708.859 645.107 727.551 657.18C746.243 669.252 763.021 690.878 763.021 690.878Z" fill="#a59595" fill-rule="nonzero" opacity="1" stroke="#000000" stroke-linecap="round" stroke-linejoin="round" stroke-width="2.31"/>
<path d="M607.634 381.114C646.733 431.452 649.855 411.2 649.855 411.2C649.855 411.2 660.291 458.004 679.66 510.571C699.028 563.138 744.23 637.761 744.23 637.761C744.23 637.761 726.383 663.573 715.99 688.367C707.205 709.327 702.825 732.92 702.825 732.92L664.758 738.787C664.758 738.787 621.659 639.792 603.703 565.23C576.99 454.304 584.251 351.01 607.634 381.114Z" fill="#262222" fill-rule="nonzero" opacity="1" stroke="#000000" stroke-linecap="butt" stroke-linejoin="round" stroke-width="2.31"/>
<path d="M490.705 446.609C490.705 446.609 473.229 640.99 430.426 747.68C414.191 788.149 384.685 821.592 365.189 839.168C262.713 931.547 289.09 892.427 289.09 892.427C289.09 892.427 322.622 843.111 269.815 820.16C247.103 810.289 276.993 827.816 294.283 796.275C317.145 754.568 334.67 659.483 343.851 621.115C370.781 508.568 344.057 422.116 344.057 422.116C344.661 425.436 426.307 406.727 426.307 406.727L496.559 426.651L490.705 446.609Z" fill="#262222" fill-rule="nonzero" opacity="1" stroke="#000000" stroke-linecap="round" stroke-linejoin="round" stroke-width="2.31"/>
<path d="M505.718 448.552C505.718 448.552 533.129 539.128 552.622 652.419C558.291 685.366 580.928 746.049 599.813 764.28C660.454 822.822 720.203 839.004 720.203 839.004C720.203 839.004 688.652 807.345 665.826 740.694C643 674.044 628.899 607.23 628.899 570.563C628.899 502.473 647.283 408.64 647.283 408.64C647.283 408.64 618.944 394.474 599.57 365.664C580.196 336.853 499.864 428.594 499.864 428.594L505.718 448.552Z" fill="#262222" fill-rule="nonzero" opacity="1" stroke="#000000" stroke-linecap="round" stroke-linejoin="round" stroke-width="2.31"/>
<path d="M282.7 735.093C279.748 749.56 316.356 828.256 316.356 828.256C316.356 828.256 369.641 817.338 375.328 826.237C379.085 832.116 369.123 799.933 379.67 780.753C383.925 773.014 404.734 784.162 406.185 775.42C406.789 771.78 384.946 746.407 385.471 743.303C387.08 733.784 386.934 734.08 386.934 734.08L282.7 735.093Z" fill="#a59595" fill-rule="nonzero" opacity="1" stroke="#000000" stroke-linecap="round" stroke-linejoin="round" stroke-width="2.31"/>
<path d="M385.833 393.426C401.785 361.855 359.695 401.621 328.498 423.398C306.175 438.98 276.159 436.763 276.159 436.763C276.159 436.763 273.313 517.898 268.522 597.608C263.731 677.318 256.013 755.973 256.013 755.973C256.013 755.973 267.785 735.039 298.198 761.395C328.612 787.752 328.959 792.824 328.959 792.824C328.959 792.824 354.195 735.201 404.929 731.357C411.817 730.836 404.929 730.356 404.929 730.356C404.929 730.356 324.793 514.227 385.833 393.426Z" fill="#262222" fill-rule="nonzero" opacity="1" stroke="#000000" stroke-linecap="butt" stroke-linejoin="round" stroke-width="2.31"/>
<path d="M504.046 445.205L403.513 558.021C403.513 558.021 439.494 587.709 445.885 604.144C452.277 620.58 400.233 632.25 400.233 632.25C400.233 632.25 416.932 645.329 424 673.834C428.674 692.683 436.166 727.438 435.425 743.749C433.563 784.724 504.046 445.205 504.046 445.205Z" fill="#262222" fill-rule="nonzero" opacity="1" stroke="#000000" stroke-linecap="butt" stroke-linejoin="round" stroke-width="2.31"/>
<path d="M497.178 463.788L594.43 543.615C594.43 543.615 562.036 564.867 555.855 581.111C549.674 597.355 580.603 629.463 580.603 629.463C580.603 629.463 559.654 654.169 569.522 715.194C579.391 776.218 497.178 463.788 497.178 463.788Z" fill="#262222" fill-rule="nonzero" opacity="1" stroke="#000000" stroke-linecap="butt" stroke-linejoin="round" stroke-width="2.31"/>
<path d="M314.636 430.427C335.245 419.753 385.083 388.15 385.083 388.15C385.083 388.15 441.959 431.79 473.792 447.751C465.778 447.817 468.301 446.037 450.589 469.847C436.077 489.356 411.597 517.287 407.893 549.85C366.196 490.641 336.371 445.823 314.636 430.427Z" fill="#262222" fill-rule="nonzero" opacity="1" stroke="#000000" stroke-linecap="round" stroke-linejoin="round" stroke-width="2.31"/>
<path d="M628 392.962C608.299 385.53 593.188 364.26 593.188 364.26C593.188 364.26 541.692 492.443 510.425 508.404C518.297 508.471 544.841 463.952 569.994 479.278C593.327 493.494 595.156 524.693 628 523.913C608.481 490.288 621.087 420.467 628 392.962Z" fill="#262222" fill-rule="nonzero" opacity="1" stroke="#000000" stroke-linecap="round" stroke-linejoin="round" stroke-width="2.31"/>
</g>
<g opacity="1">
<path d="M469.234 387.032L536.047 381.262L506.211 468.579L469.234 387.032Z" fill="#000000" fill-rule="nonzero" opacity="1" stroke="#000000" stroke-linecap="butt" stroke-linejoin="round" stroke-width="2.31"/>
<path d="M392.057 360.31L337.822 447.054L432.522 445.3L511.006 545.095L605.681 380.385L586.824 359.436L505.412 446.881L392.057 360.31Z" fill="#c34848" fill-rule="nonzero" opacity="1" stroke="#000000" stroke-linecap="butt" stroke-linejoin="round" stroke-width="2.31"/>
<path d="M338.465 447.363L432.937 444.441L510.852 544.756L424 471.9L338.465 447.363Z" fill="#702429" fill-rule="nonzero" opacity="1" stroke="#000000" stroke-linecap="butt" stroke-linejoin="round" stroke-width="2.31"/>
<path d="M476.115 391.199C476.115 391.199 453.708 389.168 432.886 381.382C412.065 373.595 392.829 360.054 392.829 360.054L505.048 446.686L583.573 364.973C583.573 364.973 564.347 375.288 550.924 380.949C537.502 386.611 529.884 387.619 529.884 387.619L504.693 445.888L476.115 391.199Z" fill="#702429" fill-rule="nonzero" opacity="1" stroke="#000000" stroke-linecap="butt" stroke-linejoin="round" stroke-width="2.31"/>
</g>
<g opacity="1">
<path d="M353.403 319.14C353.403 319.14 380.305 361.427 431.229 378.309C482.152 395.191 521.941 396.24 585.294 366.517C648.646 336.794 646.995 257.312 646.995 257.312L353.403 319.14Z" fill="#a59595" fill-rule="nonzero" opacity="1" stroke="#000000" stroke-linecap="round" stroke-linejoin="round" stroke-width="2.31"/>
<path d="M457.064 384.738C454.373 381.431 451.659 371.058 451.659 371.058L477.361 387.372L475.596 379.555L484.972 387.881L480.45 372.163L485.855 378.62L487.289 374.287L500.218 387.148L499.74 377.543L505.912 386.352L504.604 377.537L512.488 386.312L507.956 370.877L515.518 385.35L513.914 368.759L529.742 375.213L529.383 370.524L539.343 382.54C539.343 382.54 535.893 386.172 507.122 389.004C478.35 391.835 459.755 388.044 457.064 384.738Z" fill="#000000" fill-rule="nonzero" opacity="1" stroke="#000000" stroke-linecap="round" stroke-linejoin="round" stroke-width="2.31"/>
</g>
<path d="M351.852 316.888C349.629 319.478 356.23 334.969 376.744 345.441C398.578 356.586 435.808 362.762 482.475 366.197C534.754 370.045 596.059 352.665 628 326.987C651.36 308.207 653.221 279.313 653.221 279.313C653.221 279.313 356.917 311.693 351.852 316.888Z" fill="#000000" fill-rule="nonzero" opacity="1" stroke="#000000" stroke-linecap="butt" stroke-linejoin="round" stroke-width="2.31"/>
<g opacity="1">
<path d="M318.727 181.241C318.727 181.241 303.962 175.169 287.347 181.634C212.232 210.864 240.918 282.058 296.321 311.079C351.723 340.099 420.051 360.686 507.955 354.896C595.858 349.106 686.403 300.803 722.339 246.47C741.874 216.936 736.806 179.407 730.381 154.905C724.986 134.332 709.307 124.358 709.307 124.358C709.307 124.358 669.584 130.103 651.45 140.867C633.317 151.631 318.727 181.241 318.727 181.241Z" fill="#262222" fill-rule="nonzero" opacity="1" stroke="#000000" stroke-linecap="butt" stroke-linejoin="round" stroke-width="2.31"/>
<path d="M510.334 131.125L568.162 96.1673L601.159 173.597C601.159 173.597 569.795 199.08 567.835 198.427C565.875 197.773 505.107 177.844 505.107 177.844L507.394 131.452L510.988 133.739" fill="#000000" fill-rule="nonzero" opacity="1" stroke="#000000" stroke-linecap="butt" stroke-linejoin="round" stroke-width="2.31"/>
<path d="M463.543 71.3916C389.963 75.7827 340.98 152.464 340.98 152.464C340.98 152.464 323.144 188.084 338.003 213.733C343.373 223.003 377.845 216.679 383.984 227.038C411.887 274.121 441.967 272.126 450.114 272.966C465.013 274.502 658.161 188.342 658.161 188.342C658.161 188.342 662.194 177.069 647.057 135.716C631.92 94.3625 597.046 77.9052 597.046 77.9052C597.046 77.9052 592.141 76.4686 589.444 76.0725C555.394 71.0725 533.652 92.3013 527.95 106.579C518.181 131.041 507.004 119.723 507.004 119.723C507.004 119.723 522.777 153.839 540.934 137.498C556.598 123.399 564.533 117.013 569.177 121.474C571.223 123.439 574.317 123.659 572.483 131.047C566.487 155.203 579.374 180.911 579.374 180.911C579.374 180.911 533.62 167.404 510.608 127.751C500.642 110.577 491.597 90.3729 484.344 83.1675C477.428 76.2967 470.423 71.2642 470.423 71.2642C470.423 71.2642 467.282 71.1684 463.543 71.3916Z" fill="#262222" fill-rule="nonzero" opacity="1" stroke="#000000" stroke-linecap="butt" stroke-linejoin="round" stroke-width="2.31"/>
<path d="M340.514 160.4C340.514 160.4 330.912 165.319 325.523 171.929C320.133 178.539 317.684 186.595 317.684 186.595C317.684 186.595 314.338 260.898 429.764 287.445C463.318 295.162 555.763 274.612 601.844 250.419C648.56 225.892 669.237 198.313 669.237 198.313C669.237 198.313 670.855 178.919 667.353 167.68C665.245 160.918 652.233 142.99 652.233 142.99L652.48 150.153C652.48 150.153 645.971 160.254 617.993 177.873C575.868 204.401 484.045 239.09 419.058 231.179C322.504 219.426 335.565 172.493 337.772 167.53C341.224 159.766 340.514 160.4 340.514 160.4Z" fill="#262222" fill-rule="nonzero" opacity="1" stroke="#000000" stroke-linecap="butt" stroke-linejoin="round" stroke-width="2.31"/>
<path d="M652.824 142.278C652.824 142.278 663.764 154.639 667.918 168.419C672.071 182.199 669.438 197.399 669.438 197.399C669.438 197.399 642.283 228.273 601.751 249.538C569.256 266.587 527.141 277.241 494.496 284.435C421.133 300.602 378.325 268.315 378.325 268.315C378.325 268.315 372.588 255.883 374.18 245.201C375.772 234.519 387.898 220.021 387.898 220.021C387.898 220.021 410.499 244.641 510.142 220.306C609.785 195.971 652.824 142.278 652.824 142.278Z" fill="#262222" fill-rule="nonzero" opacity="1" stroke="#000000" stroke-linecap="butt" stroke-linejoin="round" stroke-width="2.31"/>
<path d="M652.492 142.74C652.492 142.74 639.573 212.211 482.675 242.585C380.486 262.368 387.775 220.152 387.775 220.152C387.775 220.152 401.131 239.766 490.876 225.41C541.333 217.338 587.341 193.683 616.942 173.509C639.99 157.802 652.492 142.74 652.492 142.74Z" fill="#000000" fill-rule="nonzero" opacity="1" stroke="#000000" stroke-linecap="butt" stroke-linejoin="round" stroke-width="2.31"/>
<path d="M722.363 315.52C772.496 306.859 772.133 256.388 777.923 243.588C783.714 230.789 785.232 208.545 784.911 194.174C784.228 163.582 761.703 178.578 761.703 178.578L782.825 158.332C782.877 158.281 782.833 158.194 782.762 158.207L756.227 162.977C756.176 162.986 756.132 162.941 756.143 162.89L762.323 134.215C762.323 134.215 769.833 138.464 777.312 129.539C784.791 120.614 743.931 92.9121 765.237 109.128C782.253 122.079 798.506 143.382 799.44 238.82C799.681 263.4 777.619 294.465 770.927 304.539C750.017 336.018 722.363 315.52 722.363 315.52Z" fill="#702429" fill-rule="nonzero" opacity="1" stroke="#000000" stroke-linecap="butt" stroke-linejoin="round" stroke-width="2.31"/>
<path d="M792.606 159.765C790.822 278.008 706.205 285.119 706.205 285.119C706.205 285.119 747.142 287.353 744.471 291.669C732.715 310.664 692.893 312.704 692.893 312.704C692.893 312.704 702.761 319.649 700.278 342.759C699.432 350.634 696.008 369.702 691.1 381.954C681.604 405.657 667.81 423.641 667.81 423.641C667.878 423.679 720.205 400.959 733.905 379.955C754.206 348.832 774.178 360.78 774.178 360.78C774.178 360.78 779.874 347.082 773.914 332.055C773.805 331.782 785.394 332.839 785.61 350.084C785.615 350.472 805.576 317.726 806.941 279.179C807.396 266.308 809.648 219.896 792.606 159.765Z" fill="#c34848" fill-rule="nonzero" opacity="1" stroke="#000000" stroke-linecap="round" stroke-linejoin="round" stroke-width="2.31"/>
<path d="M669.556 144.035C669.556 144.035 732.748 65.4514 776.368 120.262C796.747 145.869 803.237 200.749 787.716 265.429C772.466 328.981 716.935 383.664 668.169 423.585" fill="none" opacity="1" stroke="#000000" stroke-linecap="round" stroke-linejoin="round" stroke-width="2.31"/>
</g>
</g>
</svg>
