<?xml version="1.0" encoding="UTF-8" standalone="no"?>
<!DOCTYPE svg PUBLIC "-//W3C//DTD SVG 1.1//EN" "http://www.w3.org/Graphics/SVG/1.1/DTD/svg11.dtd">
<!-- Created with Vectornator (http://vectornator.io/) -->
<svg height="100%" stroke-miterlimit="10" style="fill-rule:nonzero;clip-rule:evenodd;stroke-linecap:round;stroke-linejoin:round;" version="1.1" viewBox="220.18 70.0887 588.265 860.457" width="100%" xml:space="preserve" xmlns="http://www.w3.org/2000/svg" xmlns:xlink="http://www.w3.org/1999/xlink">
<defs/>
<g id="Walk4">
<g opacity="1">
<g opacity="1">
<path d="M386.43 384.666L516.564 348.938L610.135 385.444L526 475.401L395.049 418.954L386.43 384.666Z" fill="#171717" fill-rule="nonzero" opacity="1" stroke="#000000" stroke-linecap="butt" stroke-linejoin="round" stroke-width="2.31"/>
<path d="M610.207 679.113L323.835 714.557L274.283 828.297L458.611 784.924L666.67 895.613L610.207 679.113Z" fill="#171717" fill-rule="nonzero" opacity="1" stroke="#000000" stroke-linecap="round" stroke-linejoin="round" stroke-width="2.31"/>
<path d="M363.523 434.999L635.524 434.999L635.524 658.439L363.523 658.439L363.523 434.999Z" fill="#324e4a" fill-rule="nonzero" opacity="1" stroke="#000000" stroke-linecap="round" stroke-linejoin="round" stroke-width="2.31"/>
<path d="M490.451 816.665C490.442 816.658 490.433 816.651 490.423 816.644L462.599 797.521C462.448 797.418 462.356 797.249 462.349 797.067L460.431 742.442L461.687 693.39C461.687 693.39 456.457 691.521 456.825 692.135C457.192 692.75 461.613 693.389 461.613 693.389L460.511 753.315C460.51 753.331 460.509 753.346 460.508 753.362L457.161 786.234C457.148 786.366 457.089 786.49 456.995 786.584L407.878 835.518C407.663 835.733 407.317 835.743 407.09 835.542L354.38 788.985C354.193 788.819 354.133 788.553 354.232 788.324L422.545 630.369C422.636 630.159 422.843 630.023 423.072 630.022L521.928 629.636C522.179 629.635 522.401 629.796 522.479 630.034L581.094 810.622C581.165 810.84 581.099 811.08 580.928 811.232L535.686 851.259C535.478 851.443 535.169 851.452 534.95 851.282L490.451 816.665Z" fill="#262222" fill-rule="nonzero" opacity="1" stroke="#000000" stroke-linecap="round" stroke-linejoin="round" stroke-width="2.31"/>
<path d="M435.742 665.271C444.398 667.393 464.104 675.874 498.097 675.43C519.596 675.148 563.922 672.379 560.429 658.737" fill="#262222" fill-rule="nonzero" opacity="1" stroke="#000000" stroke-linecap="round" stroke-linejoin="round" stroke-width="2.31"/>
<path d="M573.523 801.391L538.934 841.018L470.531 806.31L458.344 864.683L507.702 901.62C507.702 901.62 559.2 892.343 568.365 884.735C577.529 877.127 600.645 842.342 600.645 842.342L573.523 801.391Z" fill="#262222" fill-rule="nonzero" opacity="1" stroke="#000000" stroke-linecap="round" stroke-linejoin="round" stroke-width="2.31"/>
<g opacity="1">
<path d="M586.274 892.934C582.378 861.146 562.735 844.239 525.947 844.239C489.159 844.239 481.12 858.681 472.03 886.185C468.494 896.885 467.327 920.656 472.807 923.392C484.528 929.244 576.33 933.17 584.944 923.661C588.94 919.25 587.469 902.679 586.274 892.934Z" fill="#000000" fill-rule="nonzero" opacity="1" stroke="#000000" stroke-linecap="round" stroke-linejoin="round" stroke-width="2.31"/>
<path d="M451.186 883.654C447.805 852.386 435.112 822.982 403.19 822.982C371.268 822.982 356.758 845.871 348.871 872.923C345.802 883.449 369.889 925.77 398.306 923.943C426.358 922.14 452.222 893.239 451.186 883.654Z" fill="#000000" fill-rule="nonzero" opacity="1" stroke="#000000" stroke-linecap="round" stroke-linejoin="round" stroke-width="2.31"/>
</g>
<path d="M366.541 772.086L417.55 825.159L456.162 788.253L461.431 818.872L451.379 829.008L455.334 852.551L391.144 843.971C391.144 843.971 358.435 856.301 348.687 849.531C338.939 842.762 326.809 806.256 326.809 806.256L366.541 772.086Z" fill="#262222" fill-rule="nonzero" opacity="1" stroke="#000000" stroke-linecap="round" stroke-linejoin="round" stroke-width="2.31"/>
<path d="M401.2 603.825C401.2 603.825 415.752 625.76 466.82 629.436C517.887 633.111 578.948 607.818 578.948 607.818L558.995 665.673C558.995 665.673 520.566 674.144 487.861 674.621C455.155 675.097 419.358 670.414 419.358 670.414L401.2 603.825Z" fill="#070707" fill-rule="nonzero" opacity="1" stroke="#000000" stroke-linecap="round" stroke-linejoin="round" stroke-width="2.31"/>
<g opacity="1">
<path d="M451.329 653.931C458.593 654.673 502.39 652.919 502.39 652.919L501.091 659.849L449.83 659.322C449.83 659.322 444.066 653.189 451.329 653.931Z" fill="#d2d2d2" fill-rule="nonzero" opacity="1" stroke="#000000" stroke-linecap="butt" stroke-linejoin="round" stroke-width="2.31"/>
<path d="M442.921 631.101L506.094 628.94L502.108 670.795L449.954 672.583L451.375 668.435L451.141 665.186L496.398 665.764L498.305 642.407L450.429 643.388L450.514 673.047C450.514 673.047 443.652 677.115 443.172 666.599C442.692 656.083 442.921 631.101 442.921 631.101Z" fill="#d2d2d2" fill-rule="nonzero" opacity="1" stroke="#000000" stroke-linecap="butt" stroke-linejoin="round" stroke-width="2.31"/>
</g>
</g>
<path d="M221.335 687.329C221.335 687.329 232.233 696.678 237.799 708.913C243.365 721.147 247.144 730.299 247.144 730.299L282.178 725.783C282.178 725.783 307.74 720.506 304.766 727.187C298.906 740.351 280.473 610.239 280.473 610.239C280.473 610.239 272.388 641.558 254.769 653.63C237.15 665.703 221.335 687.329 221.335 687.329Z" fill="#a59595" fill-rule="nonzero" opacity="1" stroke="#000000" stroke-linecap="round" stroke-linejoin="round" stroke-width="2.31"/>
<path d="M367.804 377.564C330.949 427.903 328.006 407.65 328.006 407.65C328.006 407.65 318.169 454.454 299.912 507.022C281.654 559.589 239.047 634.212 239.047 634.212C239.047 634.212 255.87 660.024 265.666 684.818C273.947 705.777 278.076 729.37 278.076 729.37L313.958 735.238C313.958 735.238 354.584 636.242 371.509 561.681C396.689 450.755 389.845 347.461 367.804 377.564Z" fill="#262222" fill-rule="nonzero" opacity="1" stroke="#000000" stroke-linecap="butt" stroke-linejoin="round" stroke-width="2.31"/>
<path d="M478.023 443.059C478.023 443.059 494.495 637.441 534.842 744.131C550.145 784.599 577.958 818.043 596.335 835.618C692.929 927.998 668.067 888.877 668.067 888.877C668.067 888.877 636.459 839.562 686.235 816.611C707.644 806.739 679.469 824.267 663.172 792.725C641.622 751.019 625.102 655.934 616.449 617.566C591.064 505.019 616.254 418.566 616.254 418.566C615.685 421.887 538.724 403.178 538.724 403.178L472.505 423.101L478.023 443.059Z" fill="#262222" fill-rule="nonzero" opacity="1" stroke="#000000" stroke-linecap="round" stroke-linejoin="round" stroke-width="2.31"/>
<path d="M463.87 445.003C463.87 445.003 438.033 535.578 419.659 648.87C414.315 681.816 392.977 742.5 375.176 760.731C318.015 819.273 261.695 835.455 261.695 835.455C261.695 835.455 291.435 803.796 312.951 737.145C334.467 670.494 347.759 603.681 347.759 567.014C347.759 498.924 330.43 405.091 330.43 405.091C330.43 405.091 357.143 390.925 375.405 362.114C393.667 333.304 469.388 425.044 469.388 425.044L463.87 445.003Z" fill="#262222" fill-rule="nonzero" opacity="1" stroke="#000000" stroke-linecap="round" stroke-linejoin="round" stroke-width="2.31"/>
<path d="M674.09 731.543C676.872 746.01 642.365 824.707 642.365 824.707C642.365 824.707 592.139 813.789 586.778 822.688C583.236 828.567 592.627 796.384 582.685 777.203C578.674 769.465 559.059 780.613 557.691 771.87C557.122 768.231 577.711 742.857 577.217 739.753C575.7 730.234 575.837 730.531 575.837 730.531L674.09 731.543Z" fill="#a59595" fill-rule="nonzero" opacity="1" stroke="#000000" stroke-linecap="round" stroke-linejoin="round" stroke-width="2.31"/>
<path d="M576.876 389.876C561.839 358.305 601.514 398.072 630.92 419.848C651.962 435.43 680.255 433.214 680.255 433.214C680.255 433.214 682.938 514.348 687.454 594.058C691.97 673.768 699.245 752.424 699.245 752.424C699.245 752.424 688.149 731.489 659.481 757.846C630.813 784.203 630.486 789.274 630.486 789.274C630.486 789.274 606.697 731.652 558.876 727.808C552.382 727.286 558.876 726.807 558.876 726.807C558.876 726.807 634.412 510.678 576.876 389.876Z" fill="#262222" fill-rule="nonzero" opacity="1" stroke="#000000" stroke-linecap="butt" stroke-linejoin="round" stroke-width="2.31"/>
<path d="M465.446 441.655L560.21 554.471C560.21 554.471 526.294 584.159 520.27 600.595C514.245 617.031 563.302 628.701 563.302 628.701C563.302 628.701 547.561 641.78 540.899 670.284C536.494 689.133 529.431 723.889 530.13 740.199C531.884 781.175 465.446 441.655 465.446 441.655Z" fill="#262222" fill-rule="nonzero" opacity="1" stroke="#000000" stroke-linecap="butt" stroke-linejoin="round" stroke-width="2.31"/>
<path d="M471.921 460.239L380.25 540.066C380.25 540.066 410.785 561.317 416.611 577.561C422.438 593.805 393.284 625.914 393.284 625.914C393.284 625.914 413.03 650.62 403.728 711.644C394.426 772.668 471.921 460.239 471.921 460.239Z" fill="#262222" fill-rule="nonzero" opacity="1" stroke="#000000" stroke-linecap="butt" stroke-linejoin="round" stroke-width="2.31"/>
<path d="M643.986 426.877C624.56 416.204 577.582 384.6 577.582 384.6C577.582 384.6 523.971 428.24 493.965 444.201C501.519 444.268 499.14 442.487 515.835 466.298C529.515 485.807 552.59 513.737 556.082 546.301C595.386 487.091 623.499 442.273 643.986 426.877Z" fill="#262222" fill-rule="nonzero" opacity="1" stroke="#000000" stroke-linecap="round" stroke-linejoin="round" stroke-width="2.31"/>
<path d="M348.607 389.412C367.177 381.98 381.421 360.711 381.421 360.711C381.421 360.711 429.961 488.893 459.434 504.855C452.014 504.921 426.993 460.403 403.284 475.728C381.29 489.945 379.566 521.144 348.607 520.363C367.006 486.739 355.123 416.917 348.607 389.412Z" fill="#262222" fill-rule="nonzero" opacity="1" stroke="#000000" stroke-linecap="round" stroke-linejoin="round" stroke-width="2.31"/>
</g>
<g opacity="1">
<path d="M469.234 387.032L536.047 381.262L506.211 468.579L469.234 387.032Z" fill="#000000" fill-rule="nonzero" opacity="1" stroke="#000000" stroke-linecap="butt" stroke-linejoin="round" stroke-width="2.31"/>
<path d="M392.057 360.31L337.822 447.054L432.522 445.3L511.006 545.095L605.681 380.385L586.824 359.436L505.412 446.881L392.057 360.31Z" fill="#c34848" fill-rule="nonzero" opacity="1" stroke="#000000" stroke-linecap="butt" stroke-linejoin="round" stroke-width="2.31"/>
<path d="M338.465 447.363L432.937 444.441L510.852 544.756L424 471.9L338.465 447.363Z" fill="#702429" fill-rule="nonzero" opacity="1" stroke="#000000" stroke-linecap="butt" stroke-linejoin="round" stroke-width="2.31"/>
<path d="M476.115 391.199C476.115 391.199 453.708 389.168 432.886 381.382C412.065 373.595 392.829 360.054 392.829 360.054L505.048 446.686L583.573 364.973C583.573 364.973 564.347 375.288 550.924 380.949C537.502 386.611 529.884 387.619 529.884 387.619L504.693 445.888L476.115 391.199Z" fill="#702429" fill-rule="nonzero" opacity="1" stroke="#000000" stroke-linecap="butt" stroke-linejoin="round" stroke-width="2.31"/>
</g>
<g opacity="1">
<path d="M353.403 319.14C353.403 319.14 380.305 361.427 431.229 378.309C482.152 395.191 521.941 396.24 585.294 366.517C648.646 336.794 646.995 257.312 646.995 257.312L353.403 319.14Z" fill="#a59595" fill-rule="nonzero" opacity="1" stroke="#000000" stroke-linecap="round" stroke-linejoin="round" stroke-width="2.31"/>
<path d="M457.064 384.738C454.373 381.431 451.659 371.058 451.659 371.058L477.361 387.372L475.596 379.555L484.972 387.881L480.45 372.163L485.855 378.62L487.289 374.287L500.218 387.148L499.74 377.543L505.912 386.352L504.604 377.537L512.488 386.312L507.956 370.877L515.518 385.35L513.914 368.759L529.742 375.213L529.383 370.524L539.343 382.54C539.343 382.54 535.893 386.172 507.122 389.004C478.35 391.835 459.755 388.044 457.064 384.738Z" fill="#000000" fill-rule="nonzero" opacity="1" stroke="#000000" stroke-linecap="round" stroke-linejoin="round" stroke-width="2.31"/>
</g>
<path d="M351.852 316.888C349.629 319.478 356.23 334.969 376.744 345.441C398.578 356.586 435.808 362.762 482.475 366.197C534.754 370.045 596.059 352.665 628 326.987C651.36 308.207 653.221 279.313 653.221 279.313C653.221 279.313 356.917 311.693 351.852 316.888Z" fill="#000000" fill-rule="nonzero" opacity="1" stroke="#000000" stroke-linecap="butt" stroke-linejoin="round" stroke-width="2.31"/>
<g opacity="1">
<path d="M318.727 181.241C318.727 181.241 303.962 175.169 287.347 181.634C212.232 210.864 240.918 282.058 296.321 311.079C351.723 340.099 420.051 360.686 507.955 354.896C595.858 349.106 686.403 300.803 722.339 246.47C741.874 216.936 736.806 179.407 730.381 154.905C724.986 134.332 709.307 124.358 709.307 124.358C709.307 124.358 669.584 130.103 651.45 140.867C633.317 151.631 318.727 181.241 318.727 181.241Z" fill="#262222" fill-rule="nonzero" opacity="1" stroke="#000000" stroke-linecap="butt" stroke-linejoin="round" stroke-width="2.31"/>
<path d="M510.334 131.125L568.162 96.1673L601.159 173.597C601.159 173.597 569.795 199.08 567.835 198.427C565.875 197.773 505.107 177.844 505.107 177.844L507.394 131.452L510.988 133.739" fill="#000000" fill-rule="nonzero" opacity="1" stroke="#000000" stroke-linecap="butt" stroke-linejoin="round" stroke-width="2.31"/>
<path d="M463.543 71.3916C389.963 75.7827 340.98 152.464 340.98 152.464C340.98 152.464 323.144 188.084 338.003 213.733C343.373 223.003 377.845 216.679 383.984 227.038C411.887 274.121 441.967 272.126 450.114 272.966C465.013 274.502 658.161 188.342 658.161 188.342C658.161 188.342 662.194 177.069 647.057 135.716C631.92 94.3625 597.046 77.9052 597.046 77.9052C597.046 77.9052 592.141 76.4686 589.444 76.0725C555.394 71.0725 533.652 92.3013 527.95 106.579C518.181 131.041 507.004 119.723 507.004 119.723C507.004 119.723 522.777 153.839 540.934 137.498C556.598 123.399 564.533 117.013 569.177 121.474C571.223 123.439 574.317 123.659 572.483 131.047C566.487 155.203 579.374 180.911 579.374 180.911C579.374 180.911 533.62 167.404 510.608 127.751C500.642 110.577 491.597 90.3729 484.344 83.1675C477.428 76.2967 470.423 71.2642 470.423 71.2642C470.423 71.2642 467.282 71.1684 463.543 71.3916Z" fill="#262222" fill-rule="nonzero" opacity="1" stroke="#000000" stroke-linecap="butt" stroke-linejoin="round" stroke-width="2.31"/>
<path d="M340.514 160.4C340.514 160.4 330.912 165.319 325.523 171.929C320.133 178.539 317.684 186.595 317.684 186.595C317.684 186.595 314.338 260.898 429.764 287.445C463.318 295.162 555.763 274.612 601.844 250.419C648.56 225.892 669.237 198.313 669.237 198.313C669.237 198.313 670.855 178.919 667.353 167.68C665.245 160.918 652.233 142.99 652.233 142.99L652.48 150.153C652.48 150.153 645.971 160.254 617.993 177.873C575.868 204.401 484.045 239.09 419.058 231.179C322.504 219.426 335.565 172.493 337.772 167.53C341.224 159.766 340.514 160.4 340.514 160.4Z" fill="#262222" fill-rule="nonzero" opacity="1" stroke="#000000" stroke-linecap="butt" stroke-linejoin="round" stroke-width="2.31"/>
<path d="M652.824 142.278C652.824 142.278 663.764 154.639 667.918 168.419C672.071 182.199 669.438 197.399 669.438 197.399C669.438 197.399 642.283 228.273 601.751 249.538C569.256 266.587 527.141 277.241 494.496 284.435C421.133 300.602 378.325 268.315 378.325 268.315C378.325 268.315 372.588 255.883 374.18 245.201C375.772 234.519 387.898 220.021 387.898 220.021C387.898 220.021 410.499 244.641 510.142 220.306C609.785 195.971 652.824 142.278 652.824 142.278Z" fill="#262222" fill-rule="nonzero" opacity="1" stroke="#000000" stroke-linecap="butt" stroke-linejoin="round" stroke-width="2.31"/>
<path d="M652.492 142.74C652.492 142.74 639.573 212.211 482.675 242.585C380.486 262.368 387.775 220.152 387.775 220.152C387.775 220.152 401.131 239.766 490.876 225.41C541.333 217.338 587.341 193.683 616.942 173.509C639.99 157.802 652.492 142.74 652.492 142.74Z" fill="#000000" fill-rule="nonzero" opacity="1" stroke="#000000" stroke-linecap="butt" stroke-linejoin="round" stroke-width="2.31"/>
<path d="M722.363 315.52C772.496 306.859 772.133 256.388 777.923 243.588C783.714 230.789 785.232 208.545 784.911 194.174C784.228 163.582 761.703 178.578 761.703 178.578L782.825 158.332C782.877 158.281 782.833 158.194 782.762 158.207L756.227 162.977C756.176 162.986 756.132 162.941 756.143 162.89L762.323 134.215C762.323 134.215 769.833 138.464 777.312 129.539C784.791 120.614 743.931 92.9121 765.237 109.128C782.253 122.079 798.506 143.382 799.44 238.82C799.681 263.4 777.619 294.465 770.927 304.539C750.017 336.018 722.363 315.52 722.363 315.52Z" fill="#702429" fill-rule="nonzero" opacity="1" stroke="#000000" stroke-linecap="butt" stroke-linejoin="round" stroke-width="2.31"/>
<path d="M792.606 159.765C790.822 278.008 706.205 285.119 706.205 285.119C706.205 285.119 747.142 287.353 744.471 291.669C732.715 310.664 692.893 312.704 692.893 312.704C692.893 312.704 702.761 319.649 700.278 342.759C699.432 350.634 696.008 369.702 691.1 381.954C681.604 405.657 667.81 423.641 667.81 423.641C667.878 423.679 720.205 400.959 733.905 379.955C754.206 348.832 774.178 360.78 774.178 360.78C774.178 360.78 779.874 347.082 773.914 332.055C773.805 331.782 785.394 332.839 785.61 350.084C785.615 350.472 805.576 317.726 806.941 279.179C807.396 266.308 809.648 219.896 792.606 159.765Z" fill="#c34848" fill-rule="nonzero" opacity="1" stroke="#000000" stroke-linecap="round" stroke-linejoin="round" stroke-width="2.31"/>
<path d="M669.556 144.035C669.556 144.035 732.748 65.4514 776.368 120.262C796.747 145.869 803.237 200.749 787.716 265.429C772.466 328.981 716.935 383.664 668.169 423.585" fill="none" opacity="1" stroke="#000000" stroke-linecap="round" stroke-linejoin="round" stroke-width="2.31"/>
</g>
</g>
</svg>
