<?xml version="1.0" encoding="UTF-8" standalone="no"?>
<!DOCTYPE svg PUBLIC "-//W3C//DTD SVG 1.1//EN" "http://www.w3.org/Graphics/SVG/1.1/DTD/svg11.dtd">
<!-- Created with Vectornator (http://vectornator.io/) -->
<svg height="100%" stroke-miterlimit="10" style="fill-rule:nonzero;clip-rule:evenodd;stroke-linecap:round;stroke-linejoin:round;" version="1.1" viewBox="180.415 73.4035 567.702 857.142" width="100%" xml:space="preserve" xmlns="http://www.w3.org/2000/svg" xmlns:xlink="http://www.w3.org/1999/xlink">
<defs/>
<g id="Walk4-copy">
<g opacity="1">
<g opacity="1">
<path d="M534.15 384.666L404.016 348.938L310.445 385.444L394.58 475.401L525.531 418.954L534.15 384.666Z" fill="#000000" fill-rule="nonzero" opacity="1" stroke="#000000" stroke-linecap="butt" stroke-linejoin="round" stroke-width="2.31"/>
<path d="M310.373 679.113L596.744 714.557L646.297 828.297L461.969 784.924L253.91 895.613L310.373 679.113Z" fill="#000000" fill-rule="nonzero" opacity="1" stroke="#000000" stroke-linecap="round" stroke-linejoin="round" stroke-width="2.31"/>
<path d="M557.057 434.999L285.056 434.999L285.056 658.439L557.057 658.439L557.057 434.999Z" fill="#000000" fill-rule="nonzero" opacity="1" stroke="#000000" stroke-linecap="round" stroke-linejoin="round" stroke-width="2.31"/>
<path d="M430.129 816.665C430.138 816.658 430.147 816.651 430.156 816.644L457.981 797.521C458.131 797.418 458.224 797.249 458.23 797.067L460.149 742.442L458.892 693.39C458.892 693.39 464.123 691.521 463.755 692.135C463.387 692.75 458.967 693.389 458.967 693.389L460.069 753.315C460.069 753.331 460.07 753.346 460.072 753.362L463.419 786.234C463.432 786.366 463.491 786.49 463.585 786.584L512.702 835.518C512.917 835.733 513.262 835.743 513.49 835.542L566.2 788.985C566.387 788.819 566.447 788.553 566.348 788.324L498.035 630.369C497.944 630.159 497.737 630.023 497.508 630.022L398.652 629.636C398.401 629.635 398.179 629.796 398.101 630.034L339.486 810.622C339.415 810.84 339.48 811.08 339.652 811.232L384.894 851.259C385.102 851.443 385.411 851.452 385.63 851.282L430.129 816.665Z" fill="#000000" fill-rule="nonzero" opacity="1" stroke="#000000" stroke-linecap="round" stroke-linejoin="round" stroke-width="2.31"/>
<path d="M484.838 665.271C476.182 667.393 456.476 675.874 422.482 675.43C400.984 675.148 356.658 672.379 360.151 658.737" fill="#000000" fill-rule="nonzero" opacity="1" stroke="#000000" stroke-linecap="round" stroke-linejoin="round" stroke-width="2.31"/>
<path d="M347.057 801.391L381.645 841.018L450.049 806.31L462.236 864.683L412.878 901.62C412.878 901.62 361.38 892.343 352.215 884.735C343.051 877.127 319.934 842.342 319.934 842.342L347.057 801.391Z" fill="#000000" fill-rule="nonzero" opacity="1" stroke="#000000" stroke-linecap="round" stroke-linejoin="round" stroke-width="2.31"/>
<g opacity="1">
<path d="M334.306 892.934C338.202 861.146 357.845 844.239 394.633 844.239C431.421 844.239 439.46 858.681 448.549 886.185C452.086 896.885 453.253 920.656 447.773 923.392C436.051 929.244 344.25 933.17 335.635 923.661C331.639 919.25 333.111 902.679 334.306 892.934Z" fill="#000000" fill-rule="nonzero" opacity="1" stroke="#000000" stroke-linecap="round" stroke-linejoin="round" stroke-width="2.31"/>
<path d="M469.394 883.654C472.775 852.386 485.468 822.982 517.39 822.982C549.312 822.982 563.821 845.871 571.709 872.923C574.778 883.449 550.691 925.77 522.273 923.943C494.222 922.14 468.357 893.239 469.394 883.654Z" fill="#000000" fill-rule="nonzero" opacity="1" stroke="#000000" stroke-linecap="round" stroke-linejoin="round" stroke-width="2.31"/>
</g>
<path d="M554.039 772.086L503.03 825.159L464.418 788.253L459.149 818.872L469.201 829.008L465.246 852.551L529.436 843.971C529.436 843.971 562.145 856.301 571.893 849.531C581.641 842.762 593.771 806.256 593.771 806.256L554.039 772.086Z" fill="#000000" fill-rule="nonzero" opacity="1" stroke="#000000" stroke-linecap="round" stroke-linejoin="round" stroke-width="2.31"/>
<path d="M519.38 603.825C519.38 603.825 504.828 625.76 453.76 629.436C402.692 633.111 341.631 607.818 341.631 607.818L361.585 665.673C361.585 665.673 400.014 674.144 432.719 674.621C465.424 675.097 501.222 670.414 501.222 670.414L519.38 603.825Z" fill="#000000" fill-rule="nonzero" opacity="1" stroke="#000000" stroke-linecap="round" stroke-linejoin="round" stroke-width="2.31"/>
<g opacity="1">
<path d="M469.25 653.931C461.987 654.673 418.19 652.919 418.19 652.919L419.489 659.849L470.75 659.322C470.75 659.322 476.514 653.189 469.25 653.931Z" fill="#000000" fill-rule="nonzero" opacity="1" stroke="#000000" stroke-linecap="butt" stroke-linejoin="round" stroke-width="2.31"/>
<path d="M477.659 631.101L414.486 628.94L418.472 670.795L470.626 672.583L469.205 668.435L469.439 665.186L424.182 665.764L422.275 642.407L470.151 643.388L470.066 673.047C470.066 673.047 476.928 677.115 477.408 666.599C477.888 656.083 477.659 631.101 477.659 631.101Z" fill="#000000" fill-rule="nonzero" opacity="1" stroke="#000000" stroke-linecap="butt" stroke-linejoin="round" stroke-width="2.31"/>
</g>
</g>
<path d="M699.245 687.329C699.245 687.329 688.347 696.678 682.781 708.913C677.215 721.147 673.435 730.299 673.435 730.299L638.402 725.783C638.402 725.783 612.839 720.506 615.814 727.187C621.674 740.351 640.106 610.239 640.106 610.239C640.106 610.239 648.192 641.558 665.811 653.63C683.43 665.703 699.245 687.329 699.245 687.329Z" fill="#000000" fill-rule="nonzero" opacity="1" stroke="#000000" stroke-linecap="round" stroke-linejoin="round" stroke-width="2.31"/>
<path d="M552.776 377.564C589.631 427.903 592.574 407.65 592.574 407.65C592.574 407.65 602.411 454.454 620.668 507.022C638.925 559.589 681.533 634.212 681.533 634.212C681.533 634.212 664.71 660.024 654.914 684.818C646.633 705.777 642.504 729.37 642.504 729.37L606.622 735.238C606.622 735.238 565.996 636.242 549.071 561.681C523.891 450.755 530.735 347.461 552.776 377.564Z" fill="#000000" fill-rule="nonzero" opacity="1" stroke="#000000" stroke-linecap="butt" stroke-linejoin="round" stroke-width="2.31"/>
<path d="M442.557 443.059C442.557 443.059 426.084 637.441 385.738 744.131C370.434 784.599 342.622 818.043 324.245 835.618C227.65 927.998 252.513 888.877 252.513 888.877C252.513 888.877 284.121 839.562 234.345 816.611C212.936 806.739 241.11 824.267 257.408 792.725C278.958 751.019 295.477 655.934 304.131 617.566C329.516 505.019 304.326 418.566 304.326 418.566C304.895 421.887 381.855 403.178 381.855 403.178L448.075 423.101L442.557 443.059Z" fill="#000000" fill-rule="nonzero" opacity="1" stroke="#000000" stroke-linecap="round" stroke-linejoin="round" stroke-width="2.31"/>
<path d="M456.709 445.003C456.709 445.003 482.547 535.578 500.921 648.87C506.265 681.816 527.603 742.5 545.404 760.731C602.564 819.273 658.884 835.455 658.884 835.455C658.884 835.455 629.144 803.796 607.628 737.145C586.113 670.494 572.821 603.681 572.821 567.014C572.821 498.924 590.149 405.091 590.149 405.091C590.149 405.091 563.437 390.925 545.175 362.114C526.913 333.304 451.191 425.044 451.191 425.044L456.709 445.003Z" fill="#000000" fill-rule="nonzero" opacity="1" stroke="#000000" stroke-linecap="round" stroke-linejoin="round" stroke-width="2.31"/>
<path d="M246.49 731.543C243.707 746.01 278.215 824.707 278.215 824.707C278.215 824.707 328.441 813.789 333.802 822.688C337.344 828.567 327.953 796.384 337.895 777.203C341.906 769.465 361.52 780.613 362.888 771.87C363.458 768.231 342.868 742.857 343.363 739.753C344.88 730.234 344.742 730.531 344.742 730.531L246.49 731.543Z" fill="#000000" fill-rule="nonzero" opacity="1" stroke="#000000" stroke-linecap="round" stroke-linejoin="round" stroke-width="2.31"/>
<path d="M343.704 389.876C358.741 358.305 319.066 398.072 289.659 419.848C268.618 435.43 240.325 433.214 240.325 433.214C240.325 433.214 237.641 514.348 233.125 594.058C228.609 673.768 221.335 752.424 221.335 752.424C221.335 752.424 232.431 731.489 261.099 757.846C289.767 784.203 290.094 789.274 290.094 789.274C290.094 789.274 313.882 731.652 361.704 727.808C368.197 727.286 361.704 726.807 361.704 726.807C361.704 726.807 286.168 510.678 343.704 389.876Z" fill="#000000" fill-rule="nonzero" opacity="1" stroke="#000000" stroke-linecap="butt" stroke-linejoin="round" stroke-width="2.31"/>
<path d="M455.133 441.655L360.37 554.471C360.37 554.471 394.286 584.159 400.31 600.595C406.335 617.031 357.278 628.701 357.278 628.701C357.278 628.701 373.019 641.78 379.681 670.284C384.086 689.133 391.148 723.889 390.45 740.199C388.695 781.175 455.133 441.655 455.133 441.655Z" fill="#000000" fill-rule="nonzero" opacity="1" stroke="#000000" stroke-linecap="butt" stroke-linejoin="round" stroke-width="2.31"/>
<path d="M448.659 460.239L540.33 540.066C540.33 540.066 509.795 561.317 503.968 577.561C498.142 593.805 527.296 625.914 527.296 625.914C527.296 625.914 507.55 650.62 516.852 711.644C526.154 772.668 448.659 460.239 448.659 460.239Z" fill="#000000" fill-rule="nonzero" opacity="1" stroke="#000000" stroke-linecap="butt" stroke-linejoin="round" stroke-width="2.31"/>
<path d="M276.593 426.877C296.02 416.204 342.997 384.6 342.997 384.6C342.997 384.6 396.609 428.24 426.615 444.201C419.061 444.268 421.439 442.487 404.744 466.298C391.065 485.807 367.99 513.737 364.498 546.301C325.194 487.091 297.081 442.273 276.593 426.877Z" fill="#000000" fill-rule="nonzero" opacity="1" stroke="#000000" stroke-linecap="round" stroke-linejoin="round" stroke-width="2.31"/>
<path d="M571.973 389.412C553.403 381.98 539.159 360.711 539.159 360.711C539.159 360.711 490.619 488.893 461.146 504.855C468.566 504.921 493.587 460.403 517.296 475.728C539.29 489.945 541.014 521.144 571.973 520.363C553.574 486.739 565.457 416.917 571.973 389.412Z" fill="#000000" fill-rule="nonzero" opacity="1" stroke="#000000" stroke-linecap="round" stroke-linejoin="round" stroke-width="2.31"/>
</g>
<g opacity="1">
<path d="M474.269 387.032L407.457 381.262L437.292 468.579L474.269 387.032Z" fill="#000000" fill-rule="nonzero" opacity="1" stroke="#000000" stroke-linecap="butt" stroke-linejoin="round" stroke-width="2.31"/>
<path d="M551.447 360.31L605.681 447.054L510.982 445.3L432.497 545.095L337.822 380.385L356.679 359.436L438.091 446.881L551.447 360.31Z" fill="#000000" fill-rule="nonzero" opacity="1" stroke="#000000" stroke-linecap="butt" stroke-linejoin="round" stroke-width="2.31"/>
<path d="M605.038 447.363L510.566 444.441L432.651 544.756L519.503 471.9L605.038 447.363Z" fill="#000000" fill-rule="nonzero" opacity="1" stroke="#000000" stroke-linecap="butt" stroke-linejoin="round" stroke-width="2.31"/>
<path d="M467.388 391.199C467.388 391.199 489.796 389.168 510.617 381.382C531.439 373.595 550.674 360.054 550.674 360.054L438.456 446.686L359.931 364.973C359.931 364.973 379.157 375.288 392.579 380.949C406.001 386.611 413.62 387.619 413.62 387.619L438.81 445.888L467.388 391.199Z" fill="#000000" fill-rule="nonzero" opacity="1" stroke="#000000" stroke-linecap="butt" stroke-linejoin="round" stroke-width="2.31"/>
</g>
<g opacity="1">
<path d="M586.671 322.455C586.671 322.455 559.769 364.742 508.845 381.624C457.921 398.506 418.133 399.555 354.78 369.832C291.428 340.109 293.079 260.627 293.079 260.627L586.671 322.455Z" fill="#000000" fill-rule="nonzero" opacity="1" stroke="#000000" stroke-linecap="round" stroke-linejoin="round" stroke-width="2.31"/>
<path d="M483.01 388.052C485.701 384.746 488.415 374.373 488.415 374.373L462.713 390.686L464.478 382.869L455.101 391.196L459.624 375.477L454.219 381.935L452.785 377.602L439.855 390.463L440.334 380.858L434.162 389.667L435.47 380.851L427.586 389.627L432.118 374.192L424.556 388.665L426.16 372.073L410.332 378.528L410.691 373.838L400.73 385.855C400.73 385.855 404.18 389.487 432.952 392.318C461.724 395.15 480.319 391.359 483.01 388.052Z" fill="#000000" fill-rule="nonzero" opacity="1" stroke="#000000" stroke-linecap="round" stroke-linejoin="round" stroke-width="2.31"/>
</g>
<path d="M592.482 320.202C594.705 322.792 588.104 338.284 567.59 348.756C545.756 359.901 508.526 366.076 461.859 369.511C409.58 373.359 348.275 355.98 316.334 330.302C292.974 311.522 291.114 282.627 291.114 282.627C291.114 282.627 587.417 315.008 592.482 320.202Z" fill="#000000" fill-rule="nonzero" opacity="1" stroke="#000000" stroke-linecap="butt" stroke-linejoin="round" stroke-width="2.31"/>
<g opacity="1">
<path d="M670.133 184.556C670.133 184.556 684.898 178.484 701.513 184.949C776.629 214.178 747.942 285.373 692.54 314.393C637.137 343.414 568.809 364.001 480.905 358.211C393.002 352.421 302.457 304.117 266.521 249.785C246.986 220.251 252.054 182.722 258.479 158.219C263.874 137.647 279.553 127.673 279.553 127.673C279.553 127.673 319.276 133.418 337.41 144.182C355.543 154.945 670.133 184.556 670.133 184.556Z" fill="#000000" fill-rule="nonzero" opacity="1" stroke="#000000" stroke-linecap="butt" stroke-linejoin="round" stroke-width="2.31"/>
<path d="M478.526 134.44L420.699 99.4821L387.701 176.912C387.701 176.912 419.065 202.395 421.025 201.742C422.985 201.088 483.753 181.159 483.753 181.159L481.466 134.766L477.872 137.053" fill="#000000" fill-rule="nonzero" opacity="1" stroke="#000000" stroke-linecap="butt" stroke-linejoin="round" stroke-width="2.31"/>
<path d="M525.317 74.7063C598.898 79.0974 647.88 155.779 647.88 155.779C647.88 155.779 665.717 191.398 650.857 217.048C645.487 226.317 611.015 219.994 604.876 230.353C576.973 277.436 546.893 275.441 538.746 276.281C523.848 277.817 330.699 191.657 330.699 191.657C330.699 191.657 326.667 180.384 341.803 139.031C356.94 97.6772 391.814 81.2199 391.814 81.2199C391.814 81.2199 396.719 79.7834 399.417 79.3872C433.466 74.3872 455.208 95.616 460.91 109.893C470.679 134.356 481.856 123.038 481.856 123.038C481.856 123.038 466.083 157.154 447.926 140.812C432.262 126.714 424.327 120.328 419.683 124.789C417.637 126.754 414.543 126.974 416.377 134.361C422.373 158.518 409.486 184.225 409.486 184.225C409.486 184.225 455.24 170.719 478.252 131.065C488.218 113.892 497.263 93.6876 504.516 86.4822C511.432 79.6114 518.437 74.5789 518.437 74.5789C518.437 74.5789 521.578 74.4832 525.317 74.7063Z" fill="#000000" fill-rule="nonzero" opacity="1" stroke="#000000" stroke-linecap="butt" stroke-linejoin="round" stroke-width="2.31"/>
<path d="M648.346 163.715C648.346 163.715 657.948 168.634 663.337 175.244C668.727 181.854 671.176 189.91 671.176 189.91C671.176 189.91 674.522 264.213 559.096 290.759C525.542 298.477 433.097 277.927 387.016 253.734C340.301 229.207 319.624 201.628 319.624 201.628C319.624 201.628 318.005 182.233 321.507 170.995C323.615 164.233 336.627 146.305 336.627 146.305L336.38 153.468C336.38 153.468 342.89 163.569 370.867 181.188C412.992 207.716 504.816 242.405 569.802 234.494C666.356 222.741 653.295 175.808 651.088 170.845C647.636 163.081 648.346 163.715 648.346 163.715Z" fill="#000000" fill-rule="nonzero" opacity="1" stroke="#000000" stroke-linecap="butt" stroke-linejoin="round" stroke-width="2.31"/>
<path d="M336.036 145.593C336.036 145.593 325.096 157.953 320.942 171.734C316.789 185.514 319.422 200.714 319.422 200.714C319.422 200.714 346.578 231.588 387.11 252.853C419.605 269.901 461.719 280.556 494.364 287.75C567.727 303.916 610.535 271.629 610.535 271.629C610.535 271.629 616.272 259.198 614.68 248.516C613.088 237.834 600.963 223.336 600.963 223.336C600.963 223.336 578.361 247.956 478.718 223.621C379.075 199.286 336.036 145.593 336.036 145.593Z" fill="#000000" fill-rule="nonzero" opacity="1" stroke="#000000" stroke-linecap="butt" stroke-linejoin="round" stroke-width="2.31"/>
<path d="M336.368 146.055C336.368 146.055 349.287 215.526 506.185 245.9C608.374 265.683 601.085 223.467 601.085 223.467C601.085 223.467 587.729 243.081 497.985 228.724C447.527 220.653 401.519 196.998 371.918 176.824C348.871 161.116 336.368 146.055 336.368 146.055Z" fill="#000000" fill-rule="nonzero" opacity="1" stroke="#000000" stroke-linecap="butt" stroke-linejoin="round" stroke-width="2.31"/>
<path d="M266.498 318.835C216.364 310.174 216.728 259.702 210.937 246.903C205.146 234.104 203.628 211.859 203.949 197.489C204.632 166.897 227.157 181.893 227.157 181.893L206.035 161.646C205.983 161.596 206.027 161.509 206.099 161.521L232.633 166.292C232.684 166.301 232.728 166.255 232.717 166.205L226.537 137.529C226.537 137.529 219.027 141.779 211.548 132.854C204.069 123.929 244.929 96.2268 223.623 112.442C206.607 125.393 190.354 146.697 189.42 242.135C189.179 266.715 211.242 297.78 217.933 307.854C238.843 339.333 266.498 318.835 266.498 318.835Z" fill="#000000" fill-rule="nonzero" opacity="1" stroke="#000000" stroke-linecap="butt" stroke-linejoin="round" stroke-width="2.31"/>
<path d="M196.254 163.08C198.038 281.323 282.656 288.434 282.655 288.434C282.655 288.434 241.718 290.667 244.389 294.984C256.145 313.979 295.967 316.018 295.967 316.018C295.967 316.018 286.099 322.964 288.582 346.073C289.428 353.948 292.852 373.016 297.761 385.269C307.256 408.971 321.05 426.956 321.05 426.956C320.982 426.994 268.655 404.274 254.955 383.27C234.654 352.147 214.682 364.095 214.682 364.095C214.682 364.095 208.986 350.397 214.946 335.37C215.055 335.096 203.466 336.153 203.25 353.399C203.245 353.787 183.284 321.04 181.919 282.494C181.464 269.622 179.212 223.21 196.254 163.08Z" fill="#000000" fill-rule="nonzero" opacity="1" stroke="#000000" stroke-linecap="round" stroke-linejoin="round" stroke-width="2.31"/>
<path d="M319.304 147.35C319.304 147.35 256.112 68.7661 212.492 123.577C192.113 149.184 185.623 204.064 201.144 268.743C216.395 332.296 271.925 386.978 320.691 426.899" fill="none" opacity="1" stroke="#000000" stroke-linecap="round" stroke-linejoin="round" stroke-width="2.31"/>
</g>
</g>
</svg>
